 <svg version=" 1.1 " baseProfile=" full "
width="100%" height="100%" 
 xmlns="http://www.w3.org/2000/svg">

<rect x="0" y="0" width="527" height="391" stroke="black" stroke-width="0.5" fill="red"/>

<circle cx="20" cy="20" r="20" stroke="black" stroke-width="0.5" fill="green"/>
<circle cx="60" cy="20" r="20" stroke="black" stroke-width="0.5" fill="green"/>
<circle cx="100" cy="20" r="20" stroke="black" stroke-width="0.5" fill="green"/>
<circle cx="140" cy="20" r="20" stroke="black" stroke-width="0.5" fill="green"/>
<circle cx="180" cy="20" r="20" stroke="black" stroke-width="0.5" fill="green"/>
<circle cx="220" cy="20" r="20" stroke="black" stroke-width="0.5" fill="green"/>
<circle cx="260" cy="20" r="20" stroke="black" stroke-width="0.5" fill="green"/>
<circle cx="300" cy="20" r="20" stroke="black" stroke-width="0.5" fill="green"/>
<circle cx="340" cy="20" r="20" stroke="black" stroke-width="0.5" fill="green"/>
<circle cx="380" cy="20" r="20" stroke="black" stroke-width="0.5" fill="green"/>
<circle cx="420" cy="20" r="20" stroke="black" stroke-width="0.5" fill="green"/>
<circle cx="460" cy="20" r="20" stroke="black" stroke-width="0.5" fill="green"/>
<circle cx="500" cy="20" r="20" stroke="black" stroke-width="0.5" fill="green"/>
<circle cx="20" cy="60" r="20" stroke="black" stroke-width="0.5" fill="green"/>
<circle cx="60" cy="60" r="20" stroke="black" stroke-width="0.5" fill="green"/>
<circle cx="100" cy="60" r="20" stroke="black" stroke-width="0.5" fill="green"/>
<circle cx="140" cy="60" r="20" stroke="black" stroke-width="0.5" fill="green"/>
<circle cx="180" cy="60" r="20" stroke="black" stroke-width="0.5" fill="green"/>
<circle cx="220" cy="60" r="20" stroke="black" stroke-width="0.5" fill="green"/>
<circle cx="260" cy="60" r="20" stroke="black" stroke-width="0.5" fill="green"/>
<circle cx="300" cy="60" r="20" stroke="black" stroke-width="0.5" fill="green"/>
<circle cx="340" cy="60" r="20" stroke="black" stroke-width="0.5" fill="green"/>
<circle cx="380" cy="60" r="20" stroke="black" stroke-width="0.5" fill="green"/>
<circle cx="420" cy="60" r="20" stroke="black" stroke-width="0.5" fill="green"/>
<circle cx="460" cy="60" r="20" stroke="black" stroke-width="0.5" fill="green"/>
<circle cx="500" cy="60" r="20" stroke="black" stroke-width="0.5" fill="green"/>
<circle cx="20" cy="100" r="20" stroke="black" stroke-width="0.5" fill="green"/>
<circle cx="60" cy="100" r="20" stroke="black" stroke-width="0.5" fill="green"/>
<circle cx="100" cy="100" r="20" stroke="black" stroke-width="0.5" fill="green"/>
<circle cx="140" cy="100" r="20" stroke="black" stroke-width="0.5" fill="green"/>
<circle cx="180" cy="100" r="20" stroke="black" stroke-width="0.5" fill="green"/>
<circle cx="220" cy="100" r="20" stroke="black" stroke-width="0.5" fill="green"/>
<circle cx="260" cy="100" r="20" stroke="black" stroke-width="0.5" fill="green"/>
<circle cx="300" cy="100" r="20" stroke="black" stroke-width="0.5" fill="green"/>
<circle cx="340" cy="100" r="20" stroke="black" stroke-width="0.5" fill="green"/>
<circle cx="380" cy="100" r="20" stroke="black" stroke-width="0.5" fill="green"/>
<circle cx="420" cy="100" r="20" stroke="black" stroke-width="0.5" fill="green"/>
<circle cx="460" cy="100" r="20" stroke="black" stroke-width="0.5" fill="green"/>
<circle cx="500" cy="100" r="20" stroke="black" stroke-width="0.5" fill="green"/>
<circle cx="20" cy="140" r="20" stroke="black" stroke-width="0.5" fill="green"/>
<circle cx="60" cy="140" r="20" stroke="black" stroke-width="0.5" fill="green"/>
<circle cx="100" cy="140" r="20" stroke="black" stroke-width="0.5" fill="green"/>
<circle cx="140" cy="140" r="20" stroke="black" stroke-width="0.5" fill="green"/>
<circle cx="180" cy="140" r="20" stroke="black" stroke-width="0.5" fill="green"/>
<circle cx="220" cy="140" r="20" stroke="black" stroke-width="0.5" fill="green"/>
<circle cx="260" cy="140" r="20" stroke="black" stroke-width="0.5" fill="green"/>
<circle cx="300" cy="140" r="20" stroke="black" stroke-width="0.5" fill="green"/>
<circle cx="340" cy="140" r="20" stroke="black" stroke-width="0.5" fill="green"/>
<circle cx="380" cy="140" r="20" stroke="black" stroke-width="0.5" fill="green"/>
<circle cx="420" cy="140" r="20" stroke="black" stroke-width="0.5" fill="green"/>
<circle cx="460" cy="140" r="20" stroke="black" stroke-width="0.5" fill="green"/>
<circle cx="500" cy="140" r="20" stroke="black" stroke-width="0.5" fill="green"/>
<circle cx="20" cy="180" r="20" stroke="black" stroke-width="0.5" fill="green"/>
<circle cx="60" cy="180" r="20" stroke="black" stroke-width="0.5" fill="green"/>
<circle cx="100" cy="180" r="20" stroke="black" stroke-width="0.5" fill="green"/>
<circle cx="140" cy="180" r="20" stroke="black" stroke-width="0.5" fill="green"/>
<circle cx="180" cy="180" r="20" stroke="black" stroke-width="0.5" fill="green"/>
<circle cx="220" cy="180" r="20" stroke="black" stroke-width="0.5" fill="green"/>
<circle cx="260" cy="180" r="20" stroke="black" stroke-width="0.5" fill="green"/>
<circle cx="300" cy="180" r="20" stroke="black" stroke-width="0.5" fill="green"/>
<circle cx="340" cy="180" r="20" stroke="black" stroke-width="0.5" fill="green"/>
<circle cx="380" cy="180" r="20" stroke="black" stroke-width="0.5" fill="green"/>
<circle cx="420" cy="180" r="20" stroke="black" stroke-width="0.5" fill="green"/>
<circle cx="460" cy="180" r="20" stroke="black" stroke-width="0.5" fill="green"/>
<circle cx="500" cy="180" r="20" stroke="black" stroke-width="0.5" fill="green"/>
<circle cx="20" cy="220" r="20" stroke="black" stroke-width="0.5" fill="green"/>
<circle cx="60" cy="220" r="20" stroke="black" stroke-width="0.5" fill="green"/>
<circle cx="100" cy="220" r="20" stroke="black" stroke-width="0.5" fill="green"/>
<circle cx="140" cy="220" r="20" stroke="black" stroke-width="0.5" fill="green"/>
<circle cx="180" cy="220" r="20" stroke="black" stroke-width="0.5" fill="green"/>
<circle cx="220" cy="220" r="20" stroke="black" stroke-width="0.5" fill="green"/>
<circle cx="260" cy="220" r="20" stroke="black" stroke-width="0.5" fill="green"/>
<circle cx="300" cy="220" r="20" stroke="black" stroke-width="0.5" fill="green"/>
<circle cx="340" cy="220" r="20" stroke="black" stroke-width="0.5" fill="green"/>
<circle cx="380" cy="220" r="20" stroke="black" stroke-width="0.5" fill="green"/>
<circle cx="420" cy="220" r="20" stroke="black" stroke-width="0.5" fill="green"/>
<circle cx="460" cy="220" r="20" stroke="black" stroke-width="0.5" fill="green"/>
<circle cx="500" cy="220" r="20" stroke="black" stroke-width="0.5" fill="green"/>
<circle cx="20" cy="260" r="20" stroke="black" stroke-width="0.5" fill="green"/>
<circle cx="60" cy="260" r="20" stroke="black" stroke-width="0.5" fill="green"/>
<circle cx="100" cy="260" r="20" stroke="black" stroke-width="0.5" fill="green"/>
<circle cx="140" cy="260" r="20" stroke="black" stroke-width="0.5" fill="green"/>
<circle cx="180" cy="260" r="20" stroke="black" stroke-width="0.5" fill="green"/>
<circle cx="220" cy="260" r="20" stroke="black" stroke-width="0.5" fill="green"/>
<circle cx="260" cy="260" r="20" stroke="black" stroke-width="0.5" fill="green"/>
<circle cx="300" cy="260" r="20" stroke="black" stroke-width="0.5" fill="green"/>
<circle cx="340" cy="260" r="20" stroke="black" stroke-width="0.5" fill="green"/>
<circle cx="380" cy="260" r="20" stroke="black" stroke-width="0.5" fill="green"/>
<circle cx="420" cy="260" r="20" stroke="black" stroke-width="0.5" fill="green"/>
<circle cx="460" cy="260" r="20" stroke="black" stroke-width="0.5" fill="green"/>
<circle cx="500" cy="260" r="20" stroke="black" stroke-width="0.5" fill="green"/>
<circle cx="20" cy="300" r="20" stroke="black" stroke-width="0.5" fill="green"/>
<circle cx="60" cy="300" r="20" stroke="black" stroke-width="0.5" fill="green"/>
<circle cx="100" cy="300" r="20" stroke="black" stroke-width="0.5" fill="green"/>
<circle cx="140" cy="300" r="20" stroke="black" stroke-width="0.5" fill="green"/>
<circle cx="180" cy="300" r="20" stroke="black" stroke-width="0.5" fill="green"/>
<circle cx="220" cy="300" r="20" stroke="black" stroke-width="0.5" fill="green"/>
<circle cx="260" cy="300" r="20" stroke="black" stroke-width="0.5" fill="green"/>
<circle cx="300" cy="300" r="20" stroke="black" stroke-width="0.5" fill="green"/>
<circle cx="340" cy="300" r="20" stroke="black" stroke-width="0.5" fill="green"/>
<circle cx="380" cy="300" r="20" stroke="black" stroke-width="0.5" fill="green"/>
<circle cx="420" cy="300" r="20" stroke="black" stroke-width="0.5" fill="green"/>
<circle cx="460" cy="300" r="20" stroke="black" stroke-width="0.5" fill="green"/>
<circle cx="500" cy="300" r="20" stroke="black" stroke-width="0.5" fill="green"/>
<circle cx="20" cy="340" r="20" stroke="black" stroke-width="0.5" fill="green"/>
<circle cx="60" cy="340" r="20" stroke="black" stroke-width="0.5" fill="green"/>
<circle cx="100" cy="340" r="20" stroke="black" stroke-width="0.5" fill="green"/>
<circle cx="140" cy="340" r="20" stroke="black" stroke-width="0.5" fill="green"/>
<circle cx="180" cy="340" r="20" stroke="black" stroke-width="0.5" fill="green"/>
<circle cx="220" cy="340" r="20" stroke="black" stroke-width="0.5" fill="green"/>
<circle cx="260" cy="340" r="20" stroke="black" stroke-width="0.5" fill="green"/>
<circle cx="300" cy="340" r="20" stroke="black" stroke-width="0.5" fill="green"/>
<circle cx="340" cy="340" r="20" stroke="black" stroke-width="0.5" fill="green"/>
<circle cx="380" cy="340" r="20" stroke="black" stroke-width="0.5" fill="green"/>
<circle cx="420" cy="340" r="20" stroke="black" stroke-width="0.5" fill="green"/>
<circle cx="460" cy="340" r="20" stroke="black" stroke-width="0.5" fill="green"/>
<circle cx="500" cy="340" r="20" stroke="black" stroke-width="0.5" fill="green"/>

</svg>