 <svg version=" 1.1 " baseProfile=" full "
width="100%" height="100%" 
 xmlns="http://www.w3.org/2000/svg">

<circle cx="200" cy="200" r="200" stroke="black" stroke-width="0.5" fill="red"/>
<circle cx="200" cy="20" r="20" stroke="black" stroke-width="0.5" fill="green"/>
<circle cx="158" cy="25" r="20" stroke="black" stroke-width="0.5" fill="green"/>
<circle cx="240" cy="25" r="20" stroke="black" stroke-width="0.5" fill="green"/>
<circle cx="278" cy="38" r="20" stroke="black" stroke-width="0.5" fill="green"/>
<circle cx="120" cy="39" r="20" stroke="black" stroke-width="0.5" fill="green"/>
<circle cx="182" cy="57" r="20" stroke="black" stroke-width="0.5" fill="green"/>
<circle cx="312" cy="60" r="20" stroke="black" stroke-width="0.5" fill="green"/>
<circle cx="86" cy="61" r="20" stroke="black" stroke-width="0.5" fill="green"/>
<circle cx="222" cy="61" r="20" stroke="black" stroke-width="0.5" fill="green"/>
<circle cx="144" cy="71" r="20" stroke="black" stroke-width="0.5" fill="green"/>
<circle cx="260" cy="74" r="20" stroke="black" stroke-width="0.5" fill="green"/>
<circle cx="340" cy="89" r="20" stroke="black" stroke-width="0.5" fill="green"/>
<circle cx="58" cy="90" r="20" stroke="black" stroke-width="0.5" fill="green"/>
<circle cx="110" cy="93" r="20" stroke="black" stroke-width="0.5" fill="green"/>
<circle cx="198" cy="94" r="20" stroke="black" stroke-width="0.5" fill="green"/>
<circle cx="294" cy="96" r="20" stroke="black" stroke-width="0.5" fill="green"/>
<circle cx="236" cy="107" r="20" stroke="black" stroke-width="0.5" fill="green"/>
<circle cx="160" cy="108" r="20" stroke="black" stroke-width="0.5" fill="green"/>
<circle cx="82" cy="122" r="20" stroke="black" stroke-width="0.5" fill="green"/>
<circle cx="362" cy="123" r="20" stroke="black" stroke-width="0.5" fill="green"/>
<circle cx="37" cy="125" r="20" stroke="black" stroke-width="0.5" fill="green"/>
<circle cx="322" cy="125" r="20" stroke="black" stroke-width="0.5" fill="green"/>
<circle cx="270" cy="129" r="20" stroke="black" stroke-width="0.5" fill="green"/>
<circle cx="126" cy="130" r="20" stroke="black" stroke-width="0.5" fill="green"/>
<circle cx="191" cy="134" r="20" stroke="black" stroke-width="0.5" fill="green"/>
<circle cx="229" cy="147" r="20" stroke="black" stroke-width="0.5" fill="green"/>
<circle cx="157" cy="156" r="20" stroke="black" stroke-width="0.5" fill="green"/>
<circle cx="61" cy="157" r="20" stroke="black" stroke-width="0.5" fill="green"/>
<circle cx="298" cy="158" r="20" stroke="black" stroke-width="0.5" fill="green"/>
<circle cx="344" cy="159" r="20" stroke="black" stroke-width="0.5" fill="green"/>
<circle cx="101" cy="162" r="20" stroke="black" stroke-width="0.5" fill="green"/>
<circle cx="23" cy="170" r="20" stroke="black" stroke-width="0.5" fill="green"/>
<circle cx="260" cy="173" r="20" stroke="black" stroke-width="0.5" fill="green"/>
<circle cx="193" cy="174" r="20" stroke="black" stroke-width="0.5" fill="green"/>
<circle cx="378" cy="181" r="20" stroke="black" stroke-width="0.5" fill="green"/>
<circle cx="132" cy="188" r="20" stroke="black" stroke-width="0.5" fill="green"/>
<circle cx="320" cy="192" r="20" stroke="black" stroke-width="0.5" fill="green"/>
<circle cx="77" cy="194" r="20" stroke="black" stroke-width="0.5" fill="green"/>
<circle cx="227" cy="196" r="20" stroke="black" stroke-width="0.5" fill="green"/>
<circle cx="168" cy="206" r="20" stroke="black" stroke-width="0.5" fill="green"/>
<circle cx="39" cy="207" r="20" stroke="black" stroke-width="0.5" fill="green"/>
<circle cx="282" cy="207" r="20" stroke="black" stroke-width="0.5" fill="green"/>
<circle cx="354" cy="214" r="20" stroke="black" stroke-width="0.5" fill="green"/>
<circle cx="108" cy="220" r="20" stroke="black" stroke-width="0.5" fill="green"/>
<circle cx="202" cy="228" r="20" stroke="black" stroke-width="0.5" fill="green"/>
<circle cx="249" cy="230" r="20" stroke="black" stroke-width="0.5" fill="green"/>
<circle cx="314" cy="232" r="20" stroke="black" stroke-width="0.5" fill="green"/>
<circle cx="69" cy="234" r="20" stroke="black" stroke-width="0.5" fill="green"/>
<circle cx="144" cy="238" r="20" stroke="black" stroke-width="0.5" fill="green"/>
<circle cx="26" cy="245" r="20" stroke="black" stroke-width="0.5" fill="green"/>
<circle cx="372" cy="250" r="20" stroke="black" stroke-width="0.5" fill="green"/>
<circle cx="281" cy="255" r="20" stroke="black" stroke-width="0.5" fill="green"/>
<circle cx="100" cy="260" r="20" stroke="black" stroke-width="0.5" fill="green"/>
<circle cx="178" cy="260" r="20" stroke="black" stroke-width="0.5" fill="green"/>
<circle cx="224" cy="262" r="20" stroke="black" stroke-width="0.5" fill="green"/>
<circle cx="334" cy="267" r="20" stroke="black" stroke-width="0.5" fill="green"/>
<circle cx="56" cy="272" r="20" stroke="black" stroke-width="0.5" fill="green"/>
<circle cx="136" cy="278" r="20" stroke="black" stroke-width="0.5" fill="green"/>
<circle cx="256" cy="287" r="20" stroke="black" stroke-width="0.5" fill="green"/>
<circle cx="301" cy="290" r="20" stroke="black" stroke-width="0.5" fill="green"/>
<circle cx="200" cy="294" r="20" stroke="black" stroke-width="0.5" fill="green"/>
<circle cx="87" cy="298" r="20" stroke="black" stroke-width="0.5" fill="green"/>
<circle cx="343" cy="306" r="20" stroke="black" stroke-width="0.5" fill="green"/>
<circle cx="162" cy="309" r="20" stroke="black" stroke-width="0.5" fill="green"/>
<circle cx="122" cy="318" r="20" stroke="black" stroke-width="0.5" fill="green"/>
<circle cx="232" cy="319" r="20" stroke="black" stroke-width="0.5" fill="green"/>
<circle cx="276" cy="322" r="20" stroke="black" stroke-width="0.5" fill="green"/>
<circle cx="194" cy="334" r="20" stroke="black" stroke-width="0.5" fill="green"/>
<circle cx="314" cy="335" r="20" stroke="black" stroke-width="0.5" fill="green"/>
<circle cx="85" cy="338" r="20" stroke="black" stroke-width="0.5" fill="green"/>
<circle cx="149" cy="348" r="20" stroke="black" stroke-width="0.5" fill="green"/>
<circle cx="252" cy="354" r="20" stroke="black" stroke-width="0.5" fill="green"/>
<circle cx="214" cy="369" r="20" stroke="black" stroke-width="0.5" fill="green"/>

</svg>