 <svg version=" 1.1 " baseProfile=" full "
width="100%" height="100%" 
 xmlns="http://www.w3.org/2000/svg">

<circle cx="200" cy="200" r="200" stroke="black" stroke-width="0.5" fill="red"/>
<rect x="181" y="1" width="23" height="16" stroke="black" stroke-width="0.5" fill="green"/>

<rect x="120" y="17" width="23" height="16" stroke="black" stroke-width="0.5" fill="green"/>

<rect x="143" y="17" width="23" height="16" stroke="black" stroke-width="0.5" fill="green"/>

<rect x="166" y="17" width="23" height="16" stroke="black" stroke-width="0.5" fill="green"/>

<rect x="189" y="17" width="23" height="16" stroke="black" stroke-width="0.5" fill="green"/>

<rect x="212" y="17" width="23" height="16" stroke="black" stroke-width="0.5" fill="green"/>

<rect x="235" y="17" width="23" height="16" stroke="black" stroke-width="0.5" fill="green"/>

<rect x="90" y="33" width="23" height="16" stroke="black" stroke-width="0.5" fill="green"/>

<rect x="113" y="33" width="23" height="16" stroke="black" stroke-width="0.5" fill="green"/>

<rect x="136" y="33" width="23" height="16" stroke="black" stroke-width="0.5" fill="green"/>

<rect x="159" y="33" width="23" height="16" stroke="black" stroke-width="0.5" fill="green"/>

<rect x="182" y="33" width="23" height="16" stroke="black" stroke-width="0.5" fill="green"/>

<rect x="205" y="33" width="23" height="16" stroke="black" stroke-width="0.5" fill="green"/>

<rect x="228" y="33" width="23" height="16" stroke="black" stroke-width="0.5" fill="green"/>

<rect x="251" y="33" width="23" height="16" stroke="black" stroke-width="0.5" fill="green"/>

<rect x="274" y="33" width="23" height="16" stroke="black" stroke-width="0.5" fill="green"/>

<rect x="69" y="49" width="23" height="16" stroke="black" stroke-width="0.5" fill="green"/>

<rect x="92" y="49" width="23" height="16" stroke="black" stroke-width="0.5" fill="green"/>

<rect x="115" y="49" width="23" height="16" stroke="black" stroke-width="0.5" fill="green"/>

<rect x="138" y="49" width="23" height="16" stroke="black" stroke-width="0.5" fill="green"/>

<rect x="161" y="49" width="23" height="16" stroke="black" stroke-width="0.5" fill="green"/>

<rect x="184" y="49" width="23" height="16" stroke="black" stroke-width="0.5" fill="green"/>

<rect x="207" y="49" width="23" height="16" stroke="black" stroke-width="0.5" fill="green"/>

<rect x="230" y="49" width="23" height="16" stroke="black" stroke-width="0.5" fill="green"/>

<rect x="253" y="49" width="23" height="16" stroke="black" stroke-width="0.5" fill="green"/>

<rect x="276" y="49" width="23" height="16" stroke="black" stroke-width="0.5" fill="green"/>

<rect x="299" y="49" width="23" height="16" stroke="black" stroke-width="0.5" fill="green"/>

<rect x="53" y="65" width="23" height="16" stroke="black" stroke-width="0.5" fill="green"/>

<rect x="76" y="65" width="23" height="16" stroke="black" stroke-width="0.5" fill="green"/>

<rect x="99" y="65" width="23" height="16" stroke="black" stroke-width="0.5" fill="green"/>

<rect x="122" y="65" width="23" height="16" stroke="black" stroke-width="0.5" fill="green"/>

<rect x="145" y="65" width="23" height="16" stroke="black" stroke-width="0.5" fill="green"/>

<rect x="168" y="65" width="23" height="16" stroke="black" stroke-width="0.5" fill="green"/>

<rect x="191" y="65" width="23" height="16" stroke="black" stroke-width="0.5" fill="green"/>

<rect x="214" y="65" width="23" height="16" stroke="black" stroke-width="0.5" fill="green"/>

<rect x="237" y="65" width="23" height="16" stroke="black" stroke-width="0.5" fill="green"/>

<rect x="260" y="65" width="23" height="16" stroke="black" stroke-width="0.5" fill="green"/>

<rect x="283" y="65" width="23" height="16" stroke="black" stroke-width="0.5" fill="green"/>

<rect x="306" y="65" width="23" height="16" stroke="black" stroke-width="0.5" fill="green"/>

<rect x="40" y="81" width="23" height="16" stroke="black" stroke-width="0.5" fill="green"/>

<rect x="63" y="81" width="23" height="16" stroke="black" stroke-width="0.5" fill="green"/>

<rect x="86" y="81" width="23" height="16" stroke="black" stroke-width="0.5" fill="green"/>

<rect x="109" y="81" width="23" height="16" stroke="black" stroke-width="0.5" fill="green"/>

<rect x="132" y="81" width="23" height="16" stroke="black" stroke-width="0.5" fill="green"/>

<rect x="155" y="81" width="23" height="16" stroke="black" stroke-width="0.5" fill="green"/>

<rect x="178" y="81" width="23" height="16" stroke="black" stroke-width="0.5" fill="green"/>

<rect x="201" y="81" width="23" height="16" stroke="black" stroke-width="0.5" fill="green"/>

<rect x="224" y="81" width="23" height="16" stroke="black" stroke-width="0.5" fill="green"/>

<rect x="247" y="81" width="23" height="16" stroke="black" stroke-width="0.5" fill="green"/>

<rect x="270" y="81" width="23" height="16" stroke="black" stroke-width="0.5" fill="green"/>

<rect x="293" y="81" width="23" height="16" stroke="black" stroke-width="0.5" fill="green"/>

<rect x="316" y="81" width="23" height="16" stroke="black" stroke-width="0.5" fill="green"/>

<rect x="29" y="97" width="23" height="16" stroke="black" stroke-width="0.5" fill="green"/>

<rect x="52" y="97" width="23" height="16" stroke="black" stroke-width="0.5" fill="green"/>

<rect x="75" y="97" width="23" height="16" stroke="black" stroke-width="0.5" fill="green"/>

<rect x="98" y="97" width="23" height="16" stroke="black" stroke-width="0.5" fill="green"/>

<rect x="121" y="97" width="23" height="16" stroke="black" stroke-width="0.5" fill="green"/>

<rect x="144" y="97" width="23" height="16" stroke="black" stroke-width="0.5" fill="green"/>

<rect x="167" y="97" width="23" height="16" stroke="black" stroke-width="0.5" fill="green"/>

<rect x="190" y="97" width="23" height="16" stroke="black" stroke-width="0.5" fill="green"/>

<rect x="213" y="97" width="23" height="16" stroke="black" stroke-width="0.5" fill="green"/>

<rect x="236" y="97" width="23" height="16" stroke="black" stroke-width="0.5" fill="green"/>

<rect x="259" y="97" width="23" height="16" stroke="black" stroke-width="0.5" fill="green"/>

<rect x="282" y="97" width="23" height="16" stroke="black" stroke-width="0.5" fill="green"/>

<rect x="305" y="97" width="23" height="16" stroke="black" stroke-width="0.5" fill="green"/>

<rect x="328" y="97" width="23" height="16" stroke="black" stroke-width="0.5" fill="green"/>

<rect x="20" y="113" width="23" height="16" stroke="black" stroke-width="0.5" fill="green"/>

<rect x="43" y="113" width="23" height="16" stroke="black" stroke-width="0.5" fill="green"/>

<rect x="66" y="113" width="23" height="16" stroke="black" stroke-width="0.5" fill="green"/>

<rect x="89" y="113" width="23" height="16" stroke="black" stroke-width="0.5" fill="green"/>

<rect x="112" y="113" width="23" height="16" stroke="black" stroke-width="0.5" fill="green"/>

<rect x="135" y="113" width="23" height="16" stroke="black" stroke-width="0.5" fill="green"/>

<rect x="158" y="113" width="23" height="16" stroke="black" stroke-width="0.5" fill="green"/>

<rect x="181" y="113" width="23" height="16" stroke="black" stroke-width="0.5" fill="green"/>

<rect x="204" y="113" width="23" height="16" stroke="black" stroke-width="0.5" fill="green"/>

<rect x="227" y="113" width="23" height="16" stroke="black" stroke-width="0.5" fill="green"/>

<rect x="250" y="113" width="23" height="16" stroke="black" stroke-width="0.5" fill="green"/>

<rect x="273" y="113" width="23" height="16" stroke="black" stroke-width="0.5" fill="green"/>

<rect x="296" y="113" width="23" height="16" stroke="black" stroke-width="0.5" fill="green"/>

<rect x="319" y="113" width="23" height="16" stroke="black" stroke-width="0.5" fill="green"/>

<rect x="342" y="113" width="23" height="16" stroke="black" stroke-width="0.5" fill="green"/>

<rect x="14" y="129" width="23" height="16" stroke="black" stroke-width="0.5" fill="green"/>

<rect x="37" y="129" width="23" height="16" stroke="black" stroke-width="0.5" fill="green"/>

<rect x="60" y="129" width="23" height="16" stroke="black" stroke-width="0.5" fill="green"/>

<rect x="83" y="129" width="23" height="16" stroke="black" stroke-width="0.5" fill="green"/>

<rect x="106" y="129" width="23" height="16" stroke="black" stroke-width="0.5" fill="green"/>

<rect x="129" y="129" width="23" height="16" stroke="black" stroke-width="0.5" fill="green"/>

<rect x="152" y="129" width="23" height="16" stroke="black" stroke-width="0.5" fill="green"/>

<rect x="175" y="129" width="23" height="16" stroke="black" stroke-width="0.5" fill="green"/>

<rect x="198" y="129" width="23" height="16" stroke="black" stroke-width="0.5" fill="green"/>

<rect x="221" y="129" width="23" height="16" stroke="black" stroke-width="0.5" fill="green"/>

<rect x="244" y="129" width="23" height="16" stroke="black" stroke-width="0.5" fill="green"/>

<rect x="267" y="129" width="23" height="16" stroke="black" stroke-width="0.5" fill="green"/>

<rect x="290" y="129" width="23" height="16" stroke="black" stroke-width="0.5" fill="green"/>

<rect x="313" y="129" width="23" height="16" stroke="black" stroke-width="0.5" fill="green"/>

<rect x="336" y="129" width="23" height="16" stroke="black" stroke-width="0.5" fill="green"/>

<rect x="359" y="129" width="23" height="16" stroke="black" stroke-width="0.5" fill="green"/>

<rect x="8" y="145" width="23" height="16" stroke="black" stroke-width="0.5" fill="green"/>

<rect x="31" y="145" width="23" height="16" stroke="black" stroke-width="0.5" fill="green"/>

<rect x="54" y="145" width="23" height="16" stroke="black" stroke-width="0.5" fill="green"/>

<rect x="77" y="145" width="23" height="16" stroke="black" stroke-width="0.5" fill="green"/>

<rect x="100" y="145" width="23" height="16" stroke="black" stroke-width="0.5" fill="green"/>

<rect x="123" y="145" width="23" height="16" stroke="black" stroke-width="0.5" fill="green"/>

<rect x="146" y="145" width="23" height="16" stroke="black" stroke-width="0.5" fill="green"/>

<rect x="169" y="145" width="23" height="16" stroke="black" stroke-width="0.5" fill="green"/>

<rect x="192" y="145" width="23" height="16" stroke="black" stroke-width="0.5" fill="green"/>

<rect x="215" y="145" width="23" height="16" stroke="black" stroke-width="0.5" fill="green"/>

<rect x="238" y="145" width="23" height="16" stroke="black" stroke-width="0.5" fill="green"/>

<rect x="261" y="145" width="23" height="16" stroke="black" stroke-width="0.5" fill="green"/>

<rect x="284" y="145" width="23" height="16" stroke="black" stroke-width="0.5" fill="green"/>

<rect x="307" y="145" width="23" height="16" stroke="black" stroke-width="0.5" fill="green"/>

<rect x="330" y="145" width="23" height="16" stroke="black" stroke-width="0.5" fill="green"/>

<rect x="353" y="145" width="23" height="16" stroke="black" stroke-width="0.5" fill="green"/>

<rect x="4" y="161" width="23" height="16" stroke="black" stroke-width="0.5" fill="green"/>

<rect x="27" y="161" width="23" height="16" stroke="black" stroke-width="0.5" fill="green"/>

<rect x="50" y="161" width="23" height="16" stroke="black" stroke-width="0.5" fill="green"/>

<rect x="73" y="161" width="23" height="16" stroke="black" stroke-width="0.5" fill="green"/>

<rect x="96" y="161" width="23" height="16" stroke="black" stroke-width="0.5" fill="green"/>

<rect x="119" y="161" width="23" height="16" stroke="black" stroke-width="0.5" fill="green"/>

<rect x="142" y="161" width="23" height="16" stroke="black" stroke-width="0.5" fill="green"/>

<rect x="165" y="161" width="23" height="16" stroke="black" stroke-width="0.5" fill="green"/>

<rect x="188" y="161" width="23" height="16" stroke="black" stroke-width="0.5" fill="green"/>

<rect x="211" y="161" width="23" height="16" stroke="black" stroke-width="0.5" fill="green"/>

<rect x="234" y="161" width="23" height="16" stroke="black" stroke-width="0.5" fill="green"/>

<rect x="257" y="161" width="23" height="16" stroke="black" stroke-width="0.5" fill="green"/>

<rect x="280" y="161" width="23" height="16" stroke="black" stroke-width="0.5" fill="green"/>

<rect x="303" y="161" width="23" height="16" stroke="black" stroke-width="0.5" fill="green"/>

<rect x="326" y="161" width="23" height="16" stroke="black" stroke-width="0.5" fill="green"/>

<rect x="349" y="161" width="23" height="16" stroke="black" stroke-width="0.5" fill="green"/>

<rect x="372" y="161" width="23" height="16" stroke="black" stroke-width="0.5" fill="green"/>

<rect x="2" y="177" width="23" height="16" stroke="black" stroke-width="0.5" fill="green"/>

<rect x="25" y="177" width="23" height="16" stroke="black" stroke-width="0.5" fill="green"/>

<rect x="48" y="177" width="23" height="16" stroke="black" stroke-width="0.5" fill="green"/>

<rect x="71" y="177" width="23" height="16" stroke="black" stroke-width="0.5" fill="green"/>

<rect x="94" y="177" width="23" height="16" stroke="black" stroke-width="0.5" fill="green"/>

<rect x="117" y="177" width="23" height="16" stroke="black" stroke-width="0.5" fill="green"/>

<rect x="140" y="177" width="23" height="16" stroke="black" stroke-width="0.5" fill="green"/>

<rect x="163" y="177" width="23" height="16" stroke="black" stroke-width="0.5" fill="green"/>

<rect x="186" y="177" width="23" height="16" stroke="black" stroke-width="0.5" fill="green"/>

<rect x="209" y="177" width="23" height="16" stroke="black" stroke-width="0.5" fill="green"/>

<rect x="232" y="177" width="23" height="16" stroke="black" stroke-width="0.5" fill="green"/>

<rect x="255" y="177" width="23" height="16" stroke="black" stroke-width="0.5" fill="green"/>

<rect x="278" y="177" width="23" height="16" stroke="black" stroke-width="0.5" fill="green"/>

<rect x="301" y="177" width="23" height="16" stroke="black" stroke-width="0.5" fill="green"/>

<rect x="324" y="177" width="23" height="16" stroke="black" stroke-width="0.5" fill="green"/>

<rect x="347" y="177" width="23" height="16" stroke="black" stroke-width="0.5" fill="green"/>

<rect x="370" y="177" width="23" height="16" stroke="black" stroke-width="0.5" fill="green"/>

<rect x="1" y="193" width="23" height="16" stroke="black" stroke-width="0.5" fill="green"/>

<rect x="24" y="193" width="23" height="16" stroke="black" stroke-width="0.5" fill="green"/>

<rect x="47" y="193" width="23" height="16" stroke="black" stroke-width="0.5" fill="green"/>

<rect x="70" y="193" width="23" height="16" stroke="black" stroke-width="0.5" fill="green"/>

<rect x="93" y="193" width="23" height="16" stroke="black" stroke-width="0.5" fill="green"/>

<rect x="116" y="193" width="23" height="16" stroke="black" stroke-width="0.5" fill="green"/>

<rect x="139" y="193" width="23" height="16" stroke="black" stroke-width="0.5" fill="green"/>

<rect x="162" y="193" width="23" height="16" stroke="black" stroke-width="0.5" fill="green"/>

<rect x="185" y="193" width="23" height="16" stroke="black" stroke-width="0.5" fill="green"/>

<rect x="208" y="193" width="23" height="16" stroke="black" stroke-width="0.5" fill="green"/>

<rect x="231" y="193" width="23" height="16" stroke="black" stroke-width="0.5" fill="green"/>

<rect x="254" y="193" width="23" height="16" stroke="black" stroke-width="0.5" fill="green"/>

<rect x="277" y="193" width="23" height="16" stroke="black" stroke-width="0.5" fill="green"/>

<rect x="300" y="193" width="23" height="16" stroke="black" stroke-width="0.5" fill="green"/>

<rect x="323" y="193" width="23" height="16" stroke="black" stroke-width="0.5" fill="green"/>

<rect x="346" y="193" width="23" height="16" stroke="black" stroke-width="0.5" fill="green"/>

<rect x="369" y="193" width="23" height="16" stroke="black" stroke-width="0.5" fill="green"/>

<rect x="2" y="209" width="23" height="16" stroke="black" stroke-width="0.5" fill="green"/>

<rect x="25" y="209" width="23" height="16" stroke="black" stroke-width="0.5" fill="green"/>

<rect x="48" y="209" width="23" height="16" stroke="black" stroke-width="0.5" fill="green"/>

<rect x="71" y="209" width="23" height="16" stroke="black" stroke-width="0.5" fill="green"/>

<rect x="94" y="209" width="23" height="16" stroke="black" stroke-width="0.5" fill="green"/>

<rect x="117" y="209" width="23" height="16" stroke="black" stroke-width="0.5" fill="green"/>

<rect x="140" y="209" width="23" height="16" stroke="black" stroke-width="0.5" fill="green"/>

<rect x="163" y="209" width="23" height="16" stroke="black" stroke-width="0.5" fill="green"/>

<rect x="186" y="209" width="23" height="16" stroke="black" stroke-width="0.5" fill="green"/>

<rect x="209" y="209" width="23" height="16" stroke="black" stroke-width="0.5" fill="green"/>

<rect x="232" y="209" width="23" height="16" stroke="black" stroke-width="0.5" fill="green"/>

<rect x="255" y="209" width="23" height="16" stroke="black" stroke-width="0.5" fill="green"/>

<rect x="278" y="209" width="23" height="16" stroke="black" stroke-width="0.5" fill="green"/>

<rect x="301" y="209" width="23" height="16" stroke="black" stroke-width="0.5" fill="green"/>

<rect x="324" y="209" width="23" height="16" stroke="black" stroke-width="0.5" fill="green"/>

<rect x="347" y="209" width="23" height="16" stroke="black" stroke-width="0.5" fill="green"/>

<rect x="370" y="209" width="23" height="16" stroke="black" stroke-width="0.5" fill="green"/>

<rect x="5" y="225" width="23" height="16" stroke="black" stroke-width="0.5" fill="green"/>

<rect x="28" y="225" width="23" height="16" stroke="black" stroke-width="0.5" fill="green"/>

<rect x="51" y="225" width="23" height="16" stroke="black" stroke-width="0.5" fill="green"/>

<rect x="74" y="225" width="23" height="16" stroke="black" stroke-width="0.5" fill="green"/>

<rect x="97" y="225" width="23" height="16" stroke="black" stroke-width="0.5" fill="green"/>

<rect x="120" y="225" width="23" height="16" stroke="black" stroke-width="0.5" fill="green"/>

<rect x="143" y="225" width="23" height="16" stroke="black" stroke-width="0.5" fill="green"/>

<rect x="166" y="225" width="23" height="16" stroke="black" stroke-width="0.5" fill="green"/>

<rect x="189" y="225" width="23" height="16" stroke="black" stroke-width="0.5" fill="green"/>

<rect x="212" y="225" width="23" height="16" stroke="black" stroke-width="0.5" fill="green"/>

<rect x="235" y="225" width="23" height="16" stroke="black" stroke-width="0.5" fill="green"/>

<rect x="258" y="225" width="23" height="16" stroke="black" stroke-width="0.5" fill="green"/>

<rect x="281" y="225" width="23" height="16" stroke="black" stroke-width="0.5" fill="green"/>

<rect x="304" y="225" width="23" height="16" stroke="black" stroke-width="0.5" fill="green"/>

<rect x="327" y="225" width="23" height="16" stroke="black" stroke-width="0.5" fill="green"/>

<rect x="350" y="225" width="23" height="16" stroke="black" stroke-width="0.5" fill="green"/>

<rect x="9" y="241" width="23" height="16" stroke="black" stroke-width="0.5" fill="green"/>

<rect x="32" y="241" width="23" height="16" stroke="black" stroke-width="0.5" fill="green"/>

<rect x="55" y="241" width="23" height="16" stroke="black" stroke-width="0.5" fill="green"/>

<rect x="78" y="241" width="23" height="16" stroke="black" stroke-width="0.5" fill="green"/>

<rect x="101" y="241" width="23" height="16" stroke="black" stroke-width="0.5" fill="green"/>

<rect x="124" y="241" width="23" height="16" stroke="black" stroke-width="0.5" fill="green"/>

<rect x="147" y="241" width="23" height="16" stroke="black" stroke-width="0.5" fill="green"/>

<rect x="170" y="241" width="23" height="16" stroke="black" stroke-width="0.5" fill="green"/>

<rect x="193" y="241" width="23" height="16" stroke="black" stroke-width="0.5" fill="green"/>

<rect x="216" y="241" width="23" height="16" stroke="black" stroke-width="0.5" fill="green"/>

<rect x="239" y="241" width="23" height="16" stroke="black" stroke-width="0.5" fill="green"/>

<rect x="262" y="241" width="23" height="16" stroke="black" stroke-width="0.5" fill="green"/>

<rect x="285" y="241" width="23" height="16" stroke="black" stroke-width="0.5" fill="green"/>

<rect x="308" y="241" width="23" height="16" stroke="black" stroke-width="0.5" fill="green"/>

<rect x="331" y="241" width="23" height="16" stroke="black" stroke-width="0.5" fill="green"/>

<rect x="354" y="241" width="23" height="16" stroke="black" stroke-width="0.5" fill="green"/>

<rect x="14" y="257" width="23" height="16" stroke="black" stroke-width="0.5" fill="green"/>

<rect x="37" y="257" width="23" height="16" stroke="black" stroke-width="0.5" fill="green"/>

<rect x="60" y="257" width="23" height="16" stroke="black" stroke-width="0.5" fill="green"/>

<rect x="83" y="257" width="23" height="16" stroke="black" stroke-width="0.5" fill="green"/>

<rect x="106" y="257" width="23" height="16" stroke="black" stroke-width="0.5" fill="green"/>

<rect x="129" y="257" width="23" height="16" stroke="black" stroke-width="0.5" fill="green"/>

<rect x="152" y="257" width="23" height="16" stroke="black" stroke-width="0.5" fill="green"/>

<rect x="175" y="257" width="23" height="16" stroke="black" stroke-width="0.5" fill="green"/>

<rect x="198" y="257" width="23" height="16" stroke="black" stroke-width="0.5" fill="green"/>

<rect x="221" y="257" width="23" height="16" stroke="black" stroke-width="0.5" fill="green"/>

<rect x="244" y="257" width="23" height="16" stroke="black" stroke-width="0.5" fill="green"/>

<rect x="267" y="257" width="23" height="16" stroke="black" stroke-width="0.5" fill="green"/>

<rect x="290" y="257" width="23" height="16" stroke="black" stroke-width="0.5" fill="green"/>

<rect x="313" y="257" width="23" height="16" stroke="black" stroke-width="0.5" fill="green"/>

<rect x="336" y="257" width="23" height="16" stroke="black" stroke-width="0.5" fill="green"/>

<rect x="359" y="257" width="23" height="16" stroke="black" stroke-width="0.5" fill="green"/>

<rect x="21" y="273" width="23" height="16" stroke="black" stroke-width="0.5" fill="green"/>

<rect x="44" y="273" width="23" height="16" stroke="black" stroke-width="0.5" fill="green"/>

<rect x="67" y="273" width="23" height="16" stroke="black" stroke-width="0.5" fill="green"/>

<rect x="90" y="273" width="23" height="16" stroke="black" stroke-width="0.5" fill="green"/>

<rect x="113" y="273" width="23" height="16" stroke="black" stroke-width="0.5" fill="green"/>

<rect x="136" y="273" width="23" height="16" stroke="black" stroke-width="0.5" fill="green"/>

<rect x="159" y="273" width="23" height="16" stroke="black" stroke-width="0.5" fill="green"/>

<rect x="182" y="273" width="23" height="16" stroke="black" stroke-width="0.5" fill="green"/>

<rect x="205" y="273" width="23" height="16" stroke="black" stroke-width="0.5" fill="green"/>

<rect x="228" y="273" width="23" height="16" stroke="black" stroke-width="0.5" fill="green"/>

<rect x="251" y="273" width="23" height="16" stroke="black" stroke-width="0.5" fill="green"/>

<rect x="274" y="273" width="23" height="16" stroke="black" stroke-width="0.5" fill="green"/>

<rect x="297" y="273" width="23" height="16" stroke="black" stroke-width="0.5" fill="green"/>

<rect x="320" y="273" width="23" height="16" stroke="black" stroke-width="0.5" fill="green"/>

<rect x="343" y="273" width="23" height="16" stroke="black" stroke-width="0.5" fill="green"/>

<rect x="30" y="289" width="23" height="16" stroke="black" stroke-width="0.5" fill="green"/>

<rect x="53" y="289" width="23" height="16" stroke="black" stroke-width="0.5" fill="green"/>

<rect x="76" y="289" width="23" height="16" stroke="black" stroke-width="0.5" fill="green"/>

<rect x="99" y="289" width="23" height="16" stroke="black" stroke-width="0.5" fill="green"/>

<rect x="122" y="289" width="23" height="16" stroke="black" stroke-width="0.5" fill="green"/>

<rect x="145" y="289" width="23" height="16" stroke="black" stroke-width="0.5" fill="green"/>

<rect x="168" y="289" width="23" height="16" stroke="black" stroke-width="0.5" fill="green"/>

<rect x="191" y="289" width="23" height="16" stroke="black" stroke-width="0.5" fill="green"/>

<rect x="214" y="289" width="23" height="16" stroke="black" stroke-width="0.5" fill="green"/>

<rect x="237" y="289" width="23" height="16" stroke="black" stroke-width="0.5" fill="green"/>

<rect x="260" y="289" width="23" height="16" stroke="black" stroke-width="0.5" fill="green"/>

<rect x="283" y="289" width="23" height="16" stroke="black" stroke-width="0.5" fill="green"/>

<rect x="306" y="289" width="23" height="16" stroke="black" stroke-width="0.5" fill="green"/>

<rect x="329" y="289" width="23" height="16" stroke="black" stroke-width="0.5" fill="green"/>

<rect x="41" y="305" width="23" height="16" stroke="black" stroke-width="0.5" fill="green"/>

<rect x="64" y="305" width="23" height="16" stroke="black" stroke-width="0.5" fill="green"/>

<rect x="87" y="305" width="23" height="16" stroke="black" stroke-width="0.5" fill="green"/>

<rect x="110" y="305" width="23" height="16" stroke="black" stroke-width="0.5" fill="green"/>

<rect x="133" y="305" width="23" height="16" stroke="black" stroke-width="0.5" fill="green"/>

<rect x="156" y="305" width="23" height="16" stroke="black" stroke-width="0.5" fill="green"/>

<rect x="179" y="305" width="23" height="16" stroke="black" stroke-width="0.5" fill="green"/>

<rect x="202" y="305" width="23" height="16" stroke="black" stroke-width="0.5" fill="green"/>

<rect x="225" y="305" width="23" height="16" stroke="black" stroke-width="0.5" fill="green"/>

<rect x="248" y="305" width="23" height="16" stroke="black" stroke-width="0.5" fill="green"/>

<rect x="271" y="305" width="23" height="16" stroke="black" stroke-width="0.5" fill="green"/>

<rect x="294" y="305" width="23" height="16" stroke="black" stroke-width="0.5" fill="green"/>

<rect x="317" y="305" width="23" height="16" stroke="black" stroke-width="0.5" fill="green"/>

<rect x="55" y="321" width="23" height="16" stroke="black" stroke-width="0.5" fill="green"/>

<rect x="78" y="321" width="23" height="16" stroke="black" stroke-width="0.5" fill="green"/>

<rect x="101" y="321" width="23" height="16" stroke="black" stroke-width="0.5" fill="green"/>

<rect x="124" y="321" width="23" height="16" stroke="black" stroke-width="0.5" fill="green"/>

<rect x="147" y="321" width="23" height="16" stroke="black" stroke-width="0.5" fill="green"/>

<rect x="170" y="321" width="23" height="16" stroke="black" stroke-width="0.5" fill="green"/>

<rect x="193" y="321" width="23" height="16" stroke="black" stroke-width="0.5" fill="green"/>

<rect x="216" y="321" width="23" height="16" stroke="black" stroke-width="0.5" fill="green"/>

<rect x="239" y="321" width="23" height="16" stroke="black" stroke-width="0.5" fill="green"/>

<rect x="262" y="321" width="23" height="16" stroke="black" stroke-width="0.5" fill="green"/>

<rect x="285" y="321" width="23" height="16" stroke="black" stroke-width="0.5" fill="green"/>

<rect x="308" y="321" width="23" height="16" stroke="black" stroke-width="0.5" fill="green"/>

<rect x="72" y="337" width="23" height="16" stroke="black" stroke-width="0.5" fill="green"/>

<rect x="95" y="337" width="23" height="16" stroke="black" stroke-width="0.5" fill="green"/>

<rect x="118" y="337" width="23" height="16" stroke="black" stroke-width="0.5" fill="green"/>

<rect x="141" y="337" width="23" height="16" stroke="black" stroke-width="0.5" fill="green"/>

<rect x="164" y="337" width="23" height="16" stroke="black" stroke-width="0.5" fill="green"/>

<rect x="187" y="337" width="23" height="16" stroke="black" stroke-width="0.5" fill="green"/>

<rect x="210" y="337" width="23" height="16" stroke="black" stroke-width="0.5" fill="green"/>

<rect x="233" y="337" width="23" height="16" stroke="black" stroke-width="0.5" fill="green"/>

<rect x="256" y="337" width="23" height="16" stroke="black" stroke-width="0.5" fill="green"/>

<rect x="279" y="337" width="23" height="16" stroke="black" stroke-width="0.5" fill="green"/>

<rect x="302" y="337" width="23" height="16" stroke="black" stroke-width="0.5" fill="green"/>

<rect x="94" y="353" width="23" height="16" stroke="black" stroke-width="0.5" fill="green"/>

<rect x="117" y="353" width="23" height="16" stroke="black" stroke-width="0.5" fill="green"/>

<rect x="140" y="353" width="23" height="16" stroke="black" stroke-width="0.5" fill="green"/>

<rect x="163" y="353" width="23" height="16" stroke="black" stroke-width="0.5" fill="green"/>

<rect x="186" y="353" width="23" height="16" stroke="black" stroke-width="0.5" fill="green"/>

<rect x="209" y="353" width="23" height="16" stroke="black" stroke-width="0.5" fill="green"/>

<rect x="232" y="353" width="23" height="16" stroke="black" stroke-width="0.5" fill="green"/>

<rect x="255" y="353" width="23" height="16" stroke="black" stroke-width="0.5" fill="green"/>

<rect x="278" y="353" width="23" height="16" stroke="black" stroke-width="0.5" fill="green"/>

<rect x="125" y="369" width="23" height="16" stroke="black" stroke-width="0.5" fill="green"/>

<rect x="148" y="369" width="23" height="16" stroke="black" stroke-width="0.5" fill="green"/>

<rect x="171" y="369" width="23" height="16" stroke="black" stroke-width="0.5" fill="green"/>

<rect x="194" y="369" width="23" height="16" stroke="black" stroke-width="0.5" fill="green"/>

<rect x="217" y="369" width="23" height="16" stroke="black" stroke-width="0.5" fill="green"/>

<rect x="240" y="369" width="23" height="16" stroke="black" stroke-width="0.5" fill="green"/>


</svg>