 <svg version=" 1.1 " baseProfile=" full "
width="100%" height="100%" 
 xmlns="http://www.w3.org/2000/svg">

<polygon points="250,0 500,433.013 0,433.013" stroke="black" stroke-width="0.5" fill="red"/>

<circle cx="17.3205" cy="423.013" r="10" stroke="black" stroke-width="0.5" fill="green"/>
<circle cx="37.3205" cy="423.013" r="10" stroke="black" stroke-width="0.5" fill="green"/>
<circle cx="57.3205" cy="423.013" r="10" stroke="black" stroke-width="0.5" fill="green"/>
<circle cx="77.3205" cy="423.013" r="10" stroke="black" stroke-width="0.5" fill="green"/>
<circle cx="97.3205" cy="423.013" r="10" stroke="black" stroke-width="0.5" fill="green"/>
<circle cx="117.321" cy="423.013" r="10" stroke="black" stroke-width="0.5" fill="green"/>
<circle cx="137.321" cy="423.013" r="10" stroke="black" stroke-width="0.5" fill="green"/>
<circle cx="157.321" cy="423.013" r="10" stroke="black" stroke-width="0.5" fill="green"/>
<circle cx="177.321" cy="423.013" r="10" stroke="black" stroke-width="0.5" fill="green"/>
<circle cx="197.321" cy="423.013" r="10" stroke="black" stroke-width="0.5" fill="green"/>
<circle cx="217.321" cy="423.013" r="10" stroke="black" stroke-width="0.5" fill="green"/>
<circle cx="237.321" cy="423.013" r="10" stroke="black" stroke-width="0.5" fill="green"/>
<circle cx="257.321" cy="423.013" r="10" stroke="black" stroke-width="0.5" fill="green"/>
<circle cx="277.321" cy="423.013" r="10" stroke="black" stroke-width="0.5" fill="green"/>
<circle cx="297.321" cy="423.013" r="10" stroke="black" stroke-width="0.5" fill="green"/>
<circle cx="317.321" cy="423.013" r="10" stroke="black" stroke-width="0.5" fill="green"/>
<circle cx="337.321" cy="423.013" r="10" stroke="black" stroke-width="0.5" fill="green"/>
<circle cx="357.321" cy="423.013" r="10" stroke="black" stroke-width="0.5" fill="green"/>
<circle cx="377.321" cy="423.013" r="10" stroke="black" stroke-width="0.5" fill="green"/>
<circle cx="397.321" cy="423.013" r="10" stroke="black" stroke-width="0.5" fill="green"/>
<circle cx="417.321" cy="423.013" r="10" stroke="black" stroke-width="0.5" fill="green"/>
<circle cx="437.321" cy="423.013" r="10" stroke="black" stroke-width="0.5" fill="green"/>
<circle cx="457.321" cy="423.013" r="10" stroke="black" stroke-width="0.5" fill="green"/>
<circle cx="477.321" cy="423.013" r="10" stroke="black" stroke-width="0.5" fill="green"/>
<circle cx="27.3205" cy="405.692" r="10" stroke="black" stroke-width="0.5" fill="green"/>
<circle cx="47.3205" cy="405.692" r="10" stroke="black" stroke-width="0.5" fill="green"/>
<circle cx="67.3205" cy="405.692" r="10" stroke="black" stroke-width="0.5" fill="green"/>
<circle cx="87.3205" cy="405.692" r="10" stroke="black" stroke-width="0.5" fill="green"/>
<circle cx="107.321" cy="405.692" r="10" stroke="black" stroke-width="0.5" fill="green"/>
<circle cx="127.321" cy="405.692" r="10" stroke="black" stroke-width="0.5" fill="green"/>
<circle cx="147.321" cy="405.692" r="10" stroke="black" stroke-width="0.5" fill="green"/>
<circle cx="167.321" cy="405.692" r="10" stroke="black" stroke-width="0.5" fill="green"/>
<circle cx="187.321" cy="405.692" r="10" stroke="black" stroke-width="0.5" fill="green"/>
<circle cx="207.321" cy="405.692" r="10" stroke="black" stroke-width="0.5" fill="green"/>
<circle cx="227.321" cy="405.692" r="10" stroke="black" stroke-width="0.5" fill="green"/>
<circle cx="247.321" cy="405.692" r="10" stroke="black" stroke-width="0.5" fill="green"/>
<circle cx="267.321" cy="405.692" r="10" stroke="black" stroke-width="0.5" fill="green"/>
<circle cx="287.321" cy="405.692" r="10" stroke="black" stroke-width="0.5" fill="green"/>
<circle cx="307.321" cy="405.692" r="10" stroke="black" stroke-width="0.5" fill="green"/>
<circle cx="327.321" cy="405.692" r="10" stroke="black" stroke-width="0.5" fill="green"/>
<circle cx="347.321" cy="405.692" r="10" stroke="black" stroke-width="0.5" fill="green"/>
<circle cx="367.321" cy="405.692" r="10" stroke="black" stroke-width="0.5" fill="green"/>
<circle cx="387.321" cy="405.692" r="10" stroke="black" stroke-width="0.5" fill="green"/>
<circle cx="407.321" cy="405.692" r="10" stroke="black" stroke-width="0.5" fill="green"/>
<circle cx="427.321" cy="405.692" r="10" stroke="black" stroke-width="0.5" fill="green"/>
<circle cx="447.321" cy="405.692" r="10" stroke="black" stroke-width="0.5" fill="green"/>
<circle cx="467.321" cy="405.692" r="10" stroke="black" stroke-width="0.5" fill="green"/>
<circle cx="37.3205" cy="388.372" r="10" stroke="black" stroke-width="0.5" fill="green"/>
<circle cx="57.3205" cy="388.372" r="10" stroke="black" stroke-width="0.5" fill="green"/>
<circle cx="77.3205" cy="388.372" r="10" stroke="black" stroke-width="0.5" fill="green"/>
<circle cx="97.3205" cy="388.372" r="10" stroke="black" stroke-width="0.5" fill="green"/>
<circle cx="117.321" cy="388.372" r="10" stroke="black" stroke-width="0.5" fill="green"/>
<circle cx="137.321" cy="388.372" r="10" stroke="black" stroke-width="0.5" fill="green"/>
<circle cx="157.321" cy="388.372" r="10" stroke="black" stroke-width="0.5" fill="green"/>
<circle cx="177.321" cy="388.372" r="10" stroke="black" stroke-width="0.5" fill="green"/>
<circle cx="197.321" cy="388.372" r="10" stroke="black" stroke-width="0.5" fill="green"/>
<circle cx="217.321" cy="388.372" r="10" stroke="black" stroke-width="0.5" fill="green"/>
<circle cx="237.321" cy="388.372" r="10" stroke="black" stroke-width="0.5" fill="green"/>
<circle cx="257.321" cy="388.372" r="10" stroke="black" stroke-width="0.5" fill="green"/>
<circle cx="277.321" cy="388.372" r="10" stroke="black" stroke-width="0.5" fill="green"/>
<circle cx="297.321" cy="388.372" r="10" stroke="black" stroke-width="0.5" fill="green"/>
<circle cx="317.321" cy="388.372" r="10" stroke="black" stroke-width="0.5" fill="green"/>
<circle cx="337.321" cy="388.372" r="10" stroke="black" stroke-width="0.5" fill="green"/>
<circle cx="357.321" cy="388.372" r="10" stroke="black" stroke-width="0.5" fill="green"/>
<circle cx="377.321" cy="388.372" r="10" stroke="black" stroke-width="0.5" fill="green"/>
<circle cx="397.321" cy="388.372" r="10" stroke="black" stroke-width="0.5" fill="green"/>
<circle cx="417.321" cy="388.372" r="10" stroke="black" stroke-width="0.5" fill="green"/>
<circle cx="437.321" cy="388.372" r="10" stroke="black" stroke-width="0.5" fill="green"/>
<circle cx="457.321" cy="388.372" r="10" stroke="black" stroke-width="0.5" fill="green"/>
<circle cx="47.3205" cy="371.051" r="10" stroke="black" stroke-width="0.5" fill="green"/>
<circle cx="67.3205" cy="371.051" r="10" stroke="black" stroke-width="0.5" fill="green"/>
<circle cx="87.3205" cy="371.051" r="10" stroke="black" stroke-width="0.5" fill="green"/>
<circle cx="107.321" cy="371.051" r="10" stroke="black" stroke-width="0.5" fill="green"/>
<circle cx="127.321" cy="371.051" r="10" stroke="black" stroke-width="0.5" fill="green"/>
<circle cx="147.321" cy="371.051" r="10" stroke="black" stroke-width="0.5" fill="green"/>
<circle cx="167.321" cy="371.051" r="10" stroke="black" stroke-width="0.5" fill="green"/>
<circle cx="187.321" cy="371.051" r="10" stroke="black" stroke-width="0.5" fill="green"/>
<circle cx="207.321" cy="371.051" r="10" stroke="black" stroke-width="0.5" fill="green"/>
<circle cx="227.321" cy="371.051" r="10" stroke="black" stroke-width="0.5" fill="green"/>
<circle cx="247.321" cy="371.051" r="10" stroke="black" stroke-width="0.5" fill="green"/>
<circle cx="267.321" cy="371.051" r="10" stroke="black" stroke-width="0.5" fill="green"/>
<circle cx="287.321" cy="371.051" r="10" stroke="black" stroke-width="0.5" fill="green"/>
<circle cx="307.321" cy="371.051" r="10" stroke="black" stroke-width="0.5" fill="green"/>
<circle cx="327.321" cy="371.051" r="10" stroke="black" stroke-width="0.5" fill="green"/>
<circle cx="347.321" cy="371.051" r="10" stroke="black" stroke-width="0.5" fill="green"/>
<circle cx="367.321" cy="371.051" r="10" stroke="black" stroke-width="0.5" fill="green"/>
<circle cx="387.321" cy="371.051" r="10" stroke="black" stroke-width="0.5" fill="green"/>
<circle cx="407.321" cy="371.051" r="10" stroke="black" stroke-width="0.5" fill="green"/>
<circle cx="427.321" cy="371.051" r="10" stroke="black" stroke-width="0.5" fill="green"/>
<circle cx="447.321" cy="371.051" r="10" stroke="black" stroke-width="0.5" fill="green"/>
<circle cx="57.3205" cy="353.731" r="10" stroke="black" stroke-width="0.5" fill="green"/>
<circle cx="77.3205" cy="353.731" r="10" stroke="black" stroke-width="0.5" fill="green"/>
<circle cx="97.3205" cy="353.731" r="10" stroke="black" stroke-width="0.5" fill="green"/>
<circle cx="117.321" cy="353.731" r="10" stroke="black" stroke-width="0.5" fill="green"/>
<circle cx="137.321" cy="353.731" r="10" stroke="black" stroke-width="0.5" fill="green"/>
<circle cx="157.321" cy="353.731" r="10" stroke="black" stroke-width="0.5" fill="green"/>
<circle cx="177.321" cy="353.731" r="10" stroke="black" stroke-width="0.5" fill="green"/>
<circle cx="197.321" cy="353.731" r="10" stroke="black" stroke-width="0.5" fill="green"/>
<circle cx="217.321" cy="353.731" r="10" stroke="black" stroke-width="0.5" fill="green"/>
<circle cx="237.321" cy="353.731" r="10" stroke="black" stroke-width="0.5" fill="green"/>
<circle cx="257.321" cy="353.731" r="10" stroke="black" stroke-width="0.5" fill="green"/>
<circle cx="277.321" cy="353.731" r="10" stroke="black" stroke-width="0.5" fill="green"/>
<circle cx="297.321" cy="353.731" r="10" stroke="black" stroke-width="0.5" fill="green"/>
<circle cx="317.321" cy="353.731" r="10" stroke="black" stroke-width="0.5" fill="green"/>
<circle cx="337.321" cy="353.731" r="10" stroke="black" stroke-width="0.5" fill="green"/>
<circle cx="357.321" cy="353.731" r="10" stroke="black" stroke-width="0.5" fill="green"/>
<circle cx="377.321" cy="353.731" r="10" stroke="black" stroke-width="0.5" fill="green"/>
<circle cx="397.321" cy="353.731" r="10" stroke="black" stroke-width="0.5" fill="green"/>
<circle cx="417.321" cy="353.731" r="10" stroke="black" stroke-width="0.5" fill="green"/>
<circle cx="437.321" cy="353.731" r="10" stroke="black" stroke-width="0.5" fill="green"/>
<circle cx="67.3205" cy="336.41" r="10" stroke="black" stroke-width="0.5" fill="green"/>
<circle cx="87.3205" cy="336.41" r="10" stroke="black" stroke-width="0.5" fill="green"/>
<circle cx="107.321" cy="336.41" r="10" stroke="black" stroke-width="0.5" fill="green"/>
<circle cx="127.321" cy="336.41" r="10" stroke="black" stroke-width="0.5" fill="green"/>
<circle cx="147.321" cy="336.41" r="10" stroke="black" stroke-width="0.5" fill="green"/>
<circle cx="167.321" cy="336.41" r="10" stroke="black" stroke-width="0.5" fill="green"/>
<circle cx="187.321" cy="336.41" r="10" stroke="black" stroke-width="0.5" fill="green"/>
<circle cx="207.321" cy="336.41" r="10" stroke="black" stroke-width="0.5" fill="green"/>
<circle cx="227.321" cy="336.41" r="10" stroke="black" stroke-width="0.5" fill="green"/>
<circle cx="247.321" cy="336.41" r="10" stroke="black" stroke-width="0.5" fill="green"/>
<circle cx="267.321" cy="336.41" r="10" stroke="black" stroke-width="0.5" fill="green"/>
<circle cx="287.321" cy="336.41" r="10" stroke="black" stroke-width="0.5" fill="green"/>
<circle cx="307.321" cy="336.41" r="10" stroke="black" stroke-width="0.5" fill="green"/>
<circle cx="327.321" cy="336.41" r="10" stroke="black" stroke-width="0.5" fill="green"/>
<circle cx="347.321" cy="336.41" r="10" stroke="black" stroke-width="0.5" fill="green"/>
<circle cx="367.321" cy="336.41" r="10" stroke="black" stroke-width="0.5" fill="green"/>
<circle cx="387.321" cy="336.41" r="10" stroke="black" stroke-width="0.5" fill="green"/>
<circle cx="407.321" cy="336.41" r="10" stroke="black" stroke-width="0.5" fill="green"/>
<circle cx="427.321" cy="336.41" r="10" stroke="black" stroke-width="0.5" fill="green"/>
<circle cx="77.3205" cy="319.09" r="10" stroke="black" stroke-width="0.5" fill="green"/>
<circle cx="97.3205" cy="319.09" r="10" stroke="black" stroke-width="0.5" fill="green"/>
<circle cx="117.321" cy="319.09" r="10" stroke="black" stroke-width="0.5" fill="green"/>
<circle cx="137.321" cy="319.09" r="10" stroke="black" stroke-width="0.5" fill="green"/>
<circle cx="157.321" cy="319.09" r="10" stroke="black" stroke-width="0.5" fill="green"/>
<circle cx="177.321" cy="319.09" r="10" stroke="black" stroke-width="0.5" fill="green"/>
<circle cx="197.321" cy="319.09" r="10" stroke="black" stroke-width="0.5" fill="green"/>
<circle cx="217.321" cy="319.09" r="10" stroke="black" stroke-width="0.5" fill="green"/>
<circle cx="237.321" cy="319.09" r="10" stroke="black" stroke-width="0.5" fill="green"/>
<circle cx="257.321" cy="319.09" r="10" stroke="black" stroke-width="0.5" fill="green"/>
<circle cx="277.321" cy="319.09" r="10" stroke="black" stroke-width="0.5" fill="green"/>
<circle cx="297.321" cy="319.09" r="10" stroke="black" stroke-width="0.5" fill="green"/>
<circle cx="317.321" cy="319.09" r="10" stroke="black" stroke-width="0.5" fill="green"/>
<circle cx="337.321" cy="319.09" r="10" stroke="black" stroke-width="0.5" fill="green"/>
<circle cx="357.321" cy="319.09" r="10" stroke="black" stroke-width="0.5" fill="green"/>
<circle cx="377.321" cy="319.09" r="10" stroke="black" stroke-width="0.5" fill="green"/>
<circle cx="397.321" cy="319.09" r="10" stroke="black" stroke-width="0.5" fill="green"/>
<circle cx="417.321" cy="319.09" r="10" stroke="black" stroke-width="0.5" fill="green"/>
<circle cx="87.3205" cy="301.769" r="10" stroke="black" stroke-width="0.5" fill="green"/>
<circle cx="107.321" cy="301.769" r="10" stroke="black" stroke-width="0.5" fill="green"/>
<circle cx="127.321" cy="301.769" r="10" stroke="black" stroke-width="0.5" fill="green"/>
<circle cx="147.321" cy="301.769" r="10" stroke="black" stroke-width="0.5" fill="green"/>
<circle cx="167.321" cy="301.769" r="10" stroke="black" stroke-width="0.5" fill="green"/>
<circle cx="187.321" cy="301.769" r="10" stroke="black" stroke-width="0.5" fill="green"/>
<circle cx="207.321" cy="301.769" r="10" stroke="black" stroke-width="0.5" fill="green"/>
<circle cx="227.321" cy="301.769" r="10" stroke="black" stroke-width="0.5" fill="green"/>
<circle cx="247.321" cy="301.769" r="10" stroke="black" stroke-width="0.5" fill="green"/>
<circle cx="267.321" cy="301.769" r="10" stroke="black" stroke-width="0.5" fill="green"/>
<circle cx="287.321" cy="301.769" r="10" stroke="black" stroke-width="0.5" fill="green"/>
<circle cx="307.321" cy="301.769" r="10" stroke="black" stroke-width="0.5" fill="green"/>
<circle cx="327.321" cy="301.769" r="10" stroke="black" stroke-width="0.5" fill="green"/>
<circle cx="347.321" cy="301.769" r="10" stroke="black" stroke-width="0.5" fill="green"/>
<circle cx="367.321" cy="301.769" r="10" stroke="black" stroke-width="0.5" fill="green"/>
<circle cx="387.321" cy="301.769" r="10" stroke="black" stroke-width="0.5" fill="green"/>
<circle cx="407.321" cy="301.769" r="10" stroke="black" stroke-width="0.5" fill="green"/>
<circle cx="97.3205" cy="284.449" r="10" stroke="black" stroke-width="0.5" fill="green"/>
<circle cx="117.321" cy="284.449" r="10" stroke="black" stroke-width="0.5" fill="green"/>
<circle cx="137.321" cy="284.449" r="10" stroke="black" stroke-width="0.5" fill="green"/>
<circle cx="157.321" cy="284.449" r="10" stroke="black" stroke-width="0.5" fill="green"/>
<circle cx="177.321" cy="284.449" r="10" stroke="black" stroke-width="0.5" fill="green"/>
<circle cx="197.321" cy="284.449" r="10" stroke="black" stroke-width="0.5" fill="green"/>
<circle cx="217.321" cy="284.449" r="10" stroke="black" stroke-width="0.5" fill="green"/>
<circle cx="237.321" cy="284.449" r="10" stroke="black" stroke-width="0.5" fill="green"/>
<circle cx="257.321" cy="284.449" r="10" stroke="black" stroke-width="0.5" fill="green"/>
<circle cx="277.321" cy="284.449" r="10" stroke="black" stroke-width="0.5" fill="green"/>
<circle cx="297.321" cy="284.449" r="10" stroke="black" stroke-width="0.5" fill="green"/>
<circle cx="317.321" cy="284.449" r="10" stroke="black" stroke-width="0.5" fill="green"/>
<circle cx="337.321" cy="284.449" r="10" stroke="black" stroke-width="0.5" fill="green"/>
<circle cx="357.321" cy="284.449" r="10" stroke="black" stroke-width="0.5" fill="green"/>
<circle cx="377.321" cy="284.449" r="10" stroke="black" stroke-width="0.5" fill="green"/>
<circle cx="397.321" cy="284.449" r="10" stroke="black" stroke-width="0.5" fill="green"/>
<circle cx="107.321" cy="267.128" r="10" stroke="black" stroke-width="0.5" fill="green"/>
<circle cx="127.321" cy="267.128" r="10" stroke="black" stroke-width="0.5" fill="green"/>
<circle cx="147.321" cy="267.128" r="10" stroke="black" stroke-width="0.5" fill="green"/>
<circle cx="167.321" cy="267.128" r="10" stroke="black" stroke-width="0.5" fill="green"/>
<circle cx="187.321" cy="267.128" r="10" stroke="black" stroke-width="0.5" fill="green"/>
<circle cx="207.321" cy="267.128" r="10" stroke="black" stroke-width="0.5" fill="green"/>
<circle cx="227.321" cy="267.128" r="10" stroke="black" stroke-width="0.5" fill="green"/>
<circle cx="247.321" cy="267.128" r="10" stroke="black" stroke-width="0.5" fill="green"/>
<circle cx="267.321" cy="267.128" r="10" stroke="black" stroke-width="0.5" fill="green"/>
<circle cx="287.321" cy="267.128" r="10" stroke="black" stroke-width="0.5" fill="green"/>
<circle cx="307.321" cy="267.128" r="10" stroke="black" stroke-width="0.5" fill="green"/>
<circle cx="327.321" cy="267.128" r="10" stroke="black" stroke-width="0.5" fill="green"/>
<circle cx="347.321" cy="267.128" r="10" stroke="black" stroke-width="0.5" fill="green"/>
<circle cx="367.321" cy="267.128" r="10" stroke="black" stroke-width="0.5" fill="green"/>
<circle cx="387.321" cy="267.128" r="10" stroke="black" stroke-width="0.5" fill="green"/>
<circle cx="117.321" cy="249.808" r="10" stroke="black" stroke-width="0.5" fill="green"/>
<circle cx="137.321" cy="249.808" r="10" stroke="black" stroke-width="0.5" fill="green"/>
<circle cx="157.321" cy="249.808" r="10" stroke="black" stroke-width="0.5" fill="green"/>
<circle cx="177.321" cy="249.808" r="10" stroke="black" stroke-width="0.5" fill="green"/>
<circle cx="197.321" cy="249.808" r="10" stroke="black" stroke-width="0.5" fill="green"/>
<circle cx="217.321" cy="249.808" r="10" stroke="black" stroke-width="0.5" fill="green"/>
<circle cx="237.321" cy="249.808" r="10" stroke="black" stroke-width="0.5" fill="green"/>
<circle cx="257.321" cy="249.808" r="10" stroke="black" stroke-width="0.5" fill="green"/>
<circle cx="277.321" cy="249.808" r="10" stroke="black" stroke-width="0.5" fill="green"/>
<circle cx="297.321" cy="249.808" r="10" stroke="black" stroke-width="0.5" fill="green"/>
<circle cx="317.321" cy="249.808" r="10" stroke="black" stroke-width="0.5" fill="green"/>
<circle cx="337.321" cy="249.808" r="10" stroke="black" stroke-width="0.5" fill="green"/>
<circle cx="357.321" cy="249.808" r="10" stroke="black" stroke-width="0.5" fill="green"/>
<circle cx="377.321" cy="249.808" r="10" stroke="black" stroke-width="0.5" fill="green"/>
<circle cx="127.321" cy="232.487" r="10" stroke="black" stroke-width="0.5" fill="green"/>
<circle cx="147.321" cy="232.487" r="10" stroke="black" stroke-width="0.5" fill="green"/>
<circle cx="167.321" cy="232.487" r="10" stroke="black" stroke-width="0.5" fill="green"/>
<circle cx="187.321" cy="232.487" r="10" stroke="black" stroke-width="0.5" fill="green"/>
<circle cx="207.321" cy="232.487" r="10" stroke="black" stroke-width="0.5" fill="green"/>
<circle cx="227.321" cy="232.487" r="10" stroke="black" stroke-width="0.5" fill="green"/>
<circle cx="247.321" cy="232.487" r="10" stroke="black" stroke-width="0.5" fill="green"/>
<circle cx="267.321" cy="232.487" r="10" stroke="black" stroke-width="0.5" fill="green"/>
<circle cx="287.321" cy="232.487" r="10" stroke="black" stroke-width="0.5" fill="green"/>
<circle cx="307.321" cy="232.487" r="10" stroke="black" stroke-width="0.5" fill="green"/>
<circle cx="327.321" cy="232.487" r="10" stroke="black" stroke-width="0.5" fill="green"/>
<circle cx="347.321" cy="232.487" r="10" stroke="black" stroke-width="0.5" fill="green"/>
<circle cx="367.321" cy="232.487" r="10" stroke="black" stroke-width="0.5" fill="green"/>
<circle cx="137.321" cy="215.167" r="10" stroke="black" stroke-width="0.5" fill="green"/>
<circle cx="157.321" cy="215.167" r="10" stroke="black" stroke-width="0.5" fill="green"/>
<circle cx="177.321" cy="215.167" r="10" stroke="black" stroke-width="0.5" fill="green"/>
<circle cx="197.321" cy="215.167" r="10" stroke="black" stroke-width="0.5" fill="green"/>
<circle cx="217.321" cy="215.167" r="10" stroke="black" stroke-width="0.5" fill="green"/>
<circle cx="237.321" cy="215.167" r="10" stroke="black" stroke-width="0.5" fill="green"/>
<circle cx="257.321" cy="215.167" r="10" stroke="black" stroke-width="0.5" fill="green"/>
<circle cx="277.321" cy="215.167" r="10" stroke="black" stroke-width="0.5" fill="green"/>
<circle cx="297.321" cy="215.167" r="10" stroke="black" stroke-width="0.5" fill="green"/>
<circle cx="317.321" cy="215.167" r="10" stroke="black" stroke-width="0.5" fill="green"/>
<circle cx="337.321" cy="215.167" r="10" stroke="black" stroke-width="0.5" fill="green"/>
<circle cx="357.321" cy="215.167" r="10" stroke="black" stroke-width="0.5" fill="green"/>
<circle cx="147.321" cy="197.846" r="10" stroke="black" stroke-width="0.5" fill="green"/>
<circle cx="167.321" cy="197.846" r="10" stroke="black" stroke-width="0.5" fill="green"/>
<circle cx="187.321" cy="197.846" r="10" stroke="black" stroke-width="0.5" fill="green"/>
<circle cx="207.321" cy="197.846" r="10" stroke="black" stroke-width="0.5" fill="green"/>
<circle cx="227.321" cy="197.846" r="10" stroke="black" stroke-width="0.5" fill="green"/>
<circle cx="247.321" cy="197.846" r="10" stroke="black" stroke-width="0.5" fill="green"/>
<circle cx="267.321" cy="197.846" r="10" stroke="black" stroke-width="0.5" fill="green"/>
<circle cx="287.321" cy="197.846" r="10" stroke="black" stroke-width="0.5" fill="green"/>
<circle cx="307.321" cy="197.846" r="10" stroke="black" stroke-width="0.5" fill="green"/>
<circle cx="327.321" cy="197.846" r="10" stroke="black" stroke-width="0.5" fill="green"/>
<circle cx="347.321" cy="197.846" r="10" stroke="black" stroke-width="0.5" fill="green"/>
<circle cx="157.321" cy="180.526" r="10" stroke="black" stroke-width="0.5" fill="green"/>
<circle cx="177.321" cy="180.526" r="10" stroke="black" stroke-width="0.5" fill="green"/>
<circle cx="197.321" cy="180.526" r="10" stroke="black" stroke-width="0.5" fill="green"/>
<circle cx="217.321" cy="180.526" r="10" stroke="black" stroke-width="0.5" fill="green"/>
<circle cx="237.321" cy="180.526" r="10" stroke="black" stroke-width="0.5" fill="green"/>
<circle cx="257.321" cy="180.526" r="10" stroke="black" stroke-width="0.5" fill="green"/>
<circle cx="277.321" cy="180.526" r="10" stroke="black" stroke-width="0.5" fill="green"/>
<circle cx="297.321" cy="180.526" r="10" stroke="black" stroke-width="0.5" fill="green"/>
<circle cx="317.321" cy="180.526" r="10" stroke="black" stroke-width="0.5" fill="green"/>
<circle cx="337.321" cy="180.526" r="10" stroke="black" stroke-width="0.5" fill="green"/>
<circle cx="167.321" cy="163.205" r="10" stroke="black" stroke-width="0.5" fill="green"/>
<circle cx="187.321" cy="163.205" r="10" stroke="black" stroke-width="0.5" fill="green"/>
<circle cx="207.321" cy="163.205" r="10" stroke="black" stroke-width="0.5" fill="green"/>
<circle cx="227.321" cy="163.205" r="10" stroke="black" stroke-width="0.5" fill="green"/>
<circle cx="247.321" cy="163.205" r="10" stroke="black" stroke-width="0.5" fill="green"/>
<circle cx="267.321" cy="163.205" r="10" stroke="black" stroke-width="0.5" fill="green"/>
<circle cx="287.321" cy="163.205" r="10" stroke="black" stroke-width="0.5" fill="green"/>
<circle cx="307.321" cy="163.205" r="10" stroke="black" stroke-width="0.5" fill="green"/>
<circle cx="327.321" cy="163.205" r="10" stroke="black" stroke-width="0.5" fill="green"/>
<circle cx="177.321" cy="145.885" r="10" stroke="black" stroke-width="0.5" fill="green"/>
<circle cx="197.321" cy="145.885" r="10" stroke="black" stroke-width="0.5" fill="green"/>
<circle cx="217.321" cy="145.885" r="10" stroke="black" stroke-width="0.5" fill="green"/>
<circle cx="237.321" cy="145.885" r="10" stroke="black" stroke-width="0.5" fill="green"/>
<circle cx="257.321" cy="145.885" r="10" stroke="black" stroke-width="0.5" fill="green"/>
<circle cx="277.321" cy="145.885" r="10" stroke="black" stroke-width="0.5" fill="green"/>
<circle cx="297.321" cy="145.885" r="10" stroke="black" stroke-width="0.5" fill="green"/>
<circle cx="317.321" cy="145.885" r="10" stroke="black" stroke-width="0.5" fill="green"/>
<circle cx="187.321" cy="128.564" r="10" stroke="black" stroke-width="0.5" fill="green"/>
<circle cx="207.321" cy="128.564" r="10" stroke="black" stroke-width="0.5" fill="green"/>
<circle cx="227.321" cy="128.564" r="10" stroke="black" stroke-width="0.5" fill="green"/>
<circle cx="247.321" cy="128.564" r="10" stroke="black" stroke-width="0.5" fill="green"/>
<circle cx="267.321" cy="128.564" r="10" stroke="black" stroke-width="0.5" fill="green"/>
<circle cx="287.321" cy="128.564" r="10" stroke="black" stroke-width="0.5" fill="green"/>
<circle cx="307.321" cy="128.564" r="10" stroke="black" stroke-width="0.5" fill="green"/>
<circle cx="197.321" cy="111.244" r="10" stroke="black" stroke-width="0.5" fill="green"/>
<circle cx="217.321" cy="111.244" r="10" stroke="black" stroke-width="0.5" fill="green"/>
<circle cx="237.321" cy="111.244" r="10" stroke="black" stroke-width="0.5" fill="green"/>
<circle cx="257.321" cy="111.244" r="10" stroke="black" stroke-width="0.5" fill="green"/>
<circle cx="277.321" cy="111.244" r="10" stroke="black" stroke-width="0.5" fill="green"/>
<circle cx="297.321" cy="111.244" r="10" stroke="black" stroke-width="0.5" fill="green"/>
<circle cx="207.321" cy="93.923" r="10" stroke="black" stroke-width="0.5" fill="green"/>
<circle cx="227.321" cy="93.923" r="10" stroke="black" stroke-width="0.5" fill="green"/>
<circle cx="247.321" cy="93.923" r="10" stroke="black" stroke-width="0.5" fill="green"/>
<circle cx="267.321" cy="93.923" r="10" stroke="black" stroke-width="0.5" fill="green"/>
<circle cx="287.321" cy="93.923" r="10" stroke="black" stroke-width="0.5" fill="green"/>
<circle cx="217.321" cy="76.6025" r="10" stroke="black" stroke-width="0.5" fill="green"/>
<circle cx="237.321" cy="76.6025" r="10" stroke="black" stroke-width="0.5" fill="green"/>
<circle cx="257.321" cy="76.6025" r="10" stroke="black" stroke-width="0.5" fill="green"/>
<circle cx="277.321" cy="76.6025" r="10" stroke="black" stroke-width="0.5" fill="green"/>
<circle cx="227.321" cy="59.282" r="10" stroke="black" stroke-width="0.5" fill="green"/>
<circle cx="247.321" cy="59.282" r="10" stroke="black" stroke-width="0.5" fill="green"/>
<circle cx="267.321" cy="59.282" r="10" stroke="black" stroke-width="0.5" fill="green"/>
<circle cx="237.321" cy="41.9615" r="10" stroke="black" stroke-width="0.5" fill="green"/>
<circle cx="257.321" cy="41.9615" r="10" stroke="black" stroke-width="0.5" fill="green"/>
<circle cx="247.321" cy="24.641" r="10" stroke="black" stroke-width="0.5" fill="green"/>

</svg>