 <svg version=" 1.1 " baseProfile=" full "
width="100%" height="100%" 
 xmlns="http://www.w3.org/2000/svg">

<rect x="0" y="0" width="500" height="250" stroke="black" stroke-width="0.5" fill="red"/>

<circle cx="10" cy="10" r="10" stroke="black" stroke-width="0.5" fill="green"/>
<circle cx="30" cy="10" r="10" stroke="black" stroke-width="0.5" fill="green"/>
<circle cx="50" cy="10" r="10" stroke="black" stroke-width="0.5" fill="green"/>
<circle cx="70" cy="10" r="10" stroke="black" stroke-width="0.5" fill="green"/>
<circle cx="90" cy="10" r="10" stroke="black" stroke-width="0.5" fill="green"/>
<circle cx="110" cy="10" r="10" stroke="black" stroke-width="0.5" fill="green"/>
<circle cx="130" cy="10" r="10" stroke="black" stroke-width="0.5" fill="green"/>
<circle cx="150" cy="10" r="10" stroke="black" stroke-width="0.5" fill="green"/>
<circle cx="170" cy="10" r="10" stroke="black" stroke-width="0.5" fill="green"/>
<circle cx="190" cy="10" r="10" stroke="black" stroke-width="0.5" fill="green"/>
<circle cx="210" cy="10" r="10" stroke="black" stroke-width="0.5" fill="green"/>
<circle cx="230" cy="10" r="10" stroke="black" stroke-width="0.5" fill="green"/>
<circle cx="250" cy="10" r="10" stroke="black" stroke-width="0.5" fill="green"/>
<circle cx="270" cy="10" r="10" stroke="black" stroke-width="0.5" fill="green"/>
<circle cx="290" cy="10" r="10" stroke="black" stroke-width="0.5" fill="green"/>
<circle cx="310" cy="10" r="10" stroke="black" stroke-width="0.5" fill="green"/>
<circle cx="330" cy="10" r="10" stroke="black" stroke-width="0.5" fill="green"/>
<circle cx="350" cy="10" r="10" stroke="black" stroke-width="0.5" fill="green"/>
<circle cx="370" cy="10" r="10" stroke="black" stroke-width="0.5" fill="green"/>
<circle cx="390" cy="10" r="10" stroke="black" stroke-width="0.5" fill="green"/>
<circle cx="410" cy="10" r="10" stroke="black" stroke-width="0.5" fill="green"/>
<circle cx="430" cy="10" r="10" stroke="black" stroke-width="0.5" fill="green"/>
<circle cx="450" cy="10" r="10" stroke="black" stroke-width="0.5" fill="green"/>
<circle cx="470" cy="10" r="10" stroke="black" stroke-width="0.5" fill="green"/>
<circle cx="490" cy="10" r="10" stroke="black" stroke-width="0.5" fill="green"/>
<circle cx="10" cy="30" r="10" stroke="black" stroke-width="0.5" fill="green"/>
<circle cx="30" cy="30" r="10" stroke="black" stroke-width="0.5" fill="green"/>
<circle cx="50" cy="30" r="10" stroke="black" stroke-width="0.5" fill="green"/>
<circle cx="70" cy="30" r="10" stroke="black" stroke-width="0.5" fill="green"/>
<circle cx="90" cy="30" r="10" stroke="black" stroke-width="0.5" fill="green"/>
<circle cx="110" cy="30" r="10" stroke="black" stroke-width="0.5" fill="green"/>
<circle cx="130" cy="30" r="10" stroke="black" stroke-width="0.5" fill="green"/>
<circle cx="150" cy="30" r="10" stroke="black" stroke-width="0.5" fill="green"/>
<circle cx="170" cy="30" r="10" stroke="black" stroke-width="0.5" fill="green"/>
<circle cx="190" cy="30" r="10" stroke="black" stroke-width="0.5" fill="green"/>
<circle cx="210" cy="30" r="10" stroke="black" stroke-width="0.5" fill="green"/>
<circle cx="230" cy="30" r="10" stroke="black" stroke-width="0.5" fill="green"/>
<circle cx="250" cy="30" r="10" stroke="black" stroke-width="0.5" fill="green"/>
<circle cx="270" cy="30" r="10" stroke="black" stroke-width="0.5" fill="green"/>
<circle cx="290" cy="30" r="10" stroke="black" stroke-width="0.5" fill="green"/>
<circle cx="310" cy="30" r="10" stroke="black" stroke-width="0.5" fill="green"/>
<circle cx="330" cy="30" r="10" stroke="black" stroke-width="0.5" fill="green"/>
<circle cx="350" cy="30" r="10" stroke="black" stroke-width="0.5" fill="green"/>
<circle cx="370" cy="30" r="10" stroke="black" stroke-width="0.5" fill="green"/>
<circle cx="390" cy="30" r="10" stroke="black" stroke-width="0.5" fill="green"/>
<circle cx="410" cy="30" r="10" stroke="black" stroke-width="0.5" fill="green"/>
<circle cx="430" cy="30" r="10" stroke="black" stroke-width="0.5" fill="green"/>
<circle cx="450" cy="30" r="10" stroke="black" stroke-width="0.5" fill="green"/>
<circle cx="470" cy="30" r="10" stroke="black" stroke-width="0.5" fill="green"/>
<circle cx="490" cy="30" r="10" stroke="black" stroke-width="0.5" fill="green"/>
<circle cx="10" cy="50" r="10" stroke="black" stroke-width="0.5" fill="green"/>
<circle cx="30" cy="50" r="10" stroke="black" stroke-width="0.5" fill="green"/>
<circle cx="50" cy="50" r="10" stroke="black" stroke-width="0.5" fill="green"/>
<circle cx="70" cy="50" r="10" stroke="black" stroke-width="0.5" fill="green"/>
<circle cx="90" cy="50" r="10" stroke="black" stroke-width="0.5" fill="green"/>
<circle cx="110" cy="50" r="10" stroke="black" stroke-width="0.5" fill="green"/>
<circle cx="130" cy="50" r="10" stroke="black" stroke-width="0.5" fill="green"/>
<circle cx="150" cy="50" r="10" stroke="black" stroke-width="0.5" fill="green"/>
<circle cx="170" cy="50" r="10" stroke="black" stroke-width="0.5" fill="green"/>
<circle cx="190" cy="50" r="10" stroke="black" stroke-width="0.5" fill="green"/>
<circle cx="210" cy="50" r="10" stroke="black" stroke-width="0.5" fill="green"/>
<circle cx="230" cy="50" r="10" stroke="black" stroke-width="0.5" fill="green"/>
<circle cx="250" cy="50" r="10" stroke="black" stroke-width="0.5" fill="green"/>
<circle cx="270" cy="50" r="10" stroke="black" stroke-width="0.5" fill="green"/>
<circle cx="290" cy="50" r="10" stroke="black" stroke-width="0.5" fill="green"/>
<circle cx="310" cy="50" r="10" stroke="black" stroke-width="0.5" fill="green"/>
<circle cx="330" cy="50" r="10" stroke="black" stroke-width="0.5" fill="green"/>
<circle cx="350" cy="50" r="10" stroke="black" stroke-width="0.5" fill="green"/>
<circle cx="370" cy="50" r="10" stroke="black" stroke-width="0.5" fill="green"/>
<circle cx="390" cy="50" r="10" stroke="black" stroke-width="0.5" fill="green"/>
<circle cx="410" cy="50" r="10" stroke="black" stroke-width="0.5" fill="green"/>
<circle cx="430" cy="50" r="10" stroke="black" stroke-width="0.5" fill="green"/>
<circle cx="450" cy="50" r="10" stroke="black" stroke-width="0.5" fill="green"/>
<circle cx="470" cy="50" r="10" stroke="black" stroke-width="0.5" fill="green"/>
<circle cx="490" cy="50" r="10" stroke="black" stroke-width="0.5" fill="green"/>
<circle cx="10" cy="70" r="10" stroke="black" stroke-width="0.5" fill="green"/>
<circle cx="30" cy="70" r="10" stroke="black" stroke-width="0.5" fill="green"/>
<circle cx="50" cy="70" r="10" stroke="black" stroke-width="0.5" fill="green"/>
<circle cx="70" cy="70" r="10" stroke="black" stroke-width="0.5" fill="green"/>
<circle cx="90" cy="70" r="10" stroke="black" stroke-width="0.5" fill="green"/>
<circle cx="110" cy="70" r="10" stroke="black" stroke-width="0.5" fill="green"/>
<circle cx="130" cy="70" r="10" stroke="black" stroke-width="0.5" fill="green"/>
<circle cx="150" cy="70" r="10" stroke="black" stroke-width="0.5" fill="green"/>
<circle cx="170" cy="70" r="10" stroke="black" stroke-width="0.5" fill="green"/>
<circle cx="190" cy="70" r="10" stroke="black" stroke-width="0.5" fill="green"/>
<circle cx="210" cy="70" r="10" stroke="black" stroke-width="0.5" fill="green"/>
<circle cx="230" cy="70" r="10" stroke="black" stroke-width="0.5" fill="green"/>
<circle cx="250" cy="70" r="10" stroke="black" stroke-width="0.5" fill="green"/>
<circle cx="270" cy="70" r="10" stroke="black" stroke-width="0.5" fill="green"/>
<circle cx="290" cy="70" r="10" stroke="black" stroke-width="0.5" fill="green"/>
<circle cx="310" cy="70" r="10" stroke="black" stroke-width="0.5" fill="green"/>
<circle cx="330" cy="70" r="10" stroke="black" stroke-width="0.5" fill="green"/>
<circle cx="350" cy="70" r="10" stroke="black" stroke-width="0.5" fill="green"/>
<circle cx="370" cy="70" r="10" stroke="black" stroke-width="0.5" fill="green"/>
<circle cx="390" cy="70" r="10" stroke="black" stroke-width="0.5" fill="green"/>
<circle cx="410" cy="70" r="10" stroke="black" stroke-width="0.5" fill="green"/>
<circle cx="430" cy="70" r="10" stroke="black" stroke-width="0.5" fill="green"/>
<circle cx="450" cy="70" r="10" stroke="black" stroke-width="0.5" fill="green"/>
<circle cx="470" cy="70" r="10" stroke="black" stroke-width="0.5" fill="green"/>
<circle cx="490" cy="70" r="10" stroke="black" stroke-width="0.5" fill="green"/>
<circle cx="10" cy="90" r="10" stroke="black" stroke-width="0.5" fill="green"/>
<circle cx="30" cy="90" r="10" stroke="black" stroke-width="0.5" fill="green"/>
<circle cx="50" cy="90" r="10" stroke="black" stroke-width="0.5" fill="green"/>
<circle cx="70" cy="90" r="10" stroke="black" stroke-width="0.5" fill="green"/>
<circle cx="90" cy="90" r="10" stroke="black" stroke-width="0.5" fill="green"/>
<circle cx="110" cy="90" r="10" stroke="black" stroke-width="0.5" fill="green"/>
<circle cx="130" cy="90" r="10" stroke="black" stroke-width="0.5" fill="green"/>
<circle cx="150" cy="90" r="10" stroke="black" stroke-width="0.5" fill="green"/>
<circle cx="170" cy="90" r="10" stroke="black" stroke-width="0.5" fill="green"/>
<circle cx="190" cy="90" r="10" stroke="black" stroke-width="0.5" fill="green"/>
<circle cx="210" cy="90" r="10" stroke="black" stroke-width="0.5" fill="green"/>
<circle cx="230" cy="90" r="10" stroke="black" stroke-width="0.5" fill="green"/>
<circle cx="250" cy="90" r="10" stroke="black" stroke-width="0.5" fill="green"/>
<circle cx="270" cy="90" r="10" stroke="black" stroke-width="0.5" fill="green"/>
<circle cx="290" cy="90" r="10" stroke="black" stroke-width="0.5" fill="green"/>
<circle cx="310" cy="90" r="10" stroke="black" stroke-width="0.5" fill="green"/>
<circle cx="330" cy="90" r="10" stroke="black" stroke-width="0.5" fill="green"/>
<circle cx="350" cy="90" r="10" stroke="black" stroke-width="0.5" fill="green"/>
<circle cx="370" cy="90" r="10" stroke="black" stroke-width="0.5" fill="green"/>
<circle cx="390" cy="90" r="10" stroke="black" stroke-width="0.5" fill="green"/>
<circle cx="410" cy="90" r="10" stroke="black" stroke-width="0.5" fill="green"/>
<circle cx="430" cy="90" r="10" stroke="black" stroke-width="0.5" fill="green"/>
<circle cx="450" cy="90" r="10" stroke="black" stroke-width="0.5" fill="green"/>
<circle cx="470" cy="90" r="10" stroke="black" stroke-width="0.5" fill="green"/>
<circle cx="490" cy="90" r="10" stroke="black" stroke-width="0.5" fill="green"/>
<circle cx="10" cy="110" r="10" stroke="black" stroke-width="0.5" fill="green"/>
<circle cx="30" cy="110" r="10" stroke="black" stroke-width="0.5" fill="green"/>
<circle cx="50" cy="110" r="10" stroke="black" stroke-width="0.5" fill="green"/>
<circle cx="70" cy="110" r="10" stroke="black" stroke-width="0.5" fill="green"/>
<circle cx="90" cy="110" r="10" stroke="black" stroke-width="0.5" fill="green"/>
<circle cx="110" cy="110" r="10" stroke="black" stroke-width="0.5" fill="green"/>
<circle cx="130" cy="110" r="10" stroke="black" stroke-width="0.5" fill="green"/>
<circle cx="150" cy="110" r="10" stroke="black" stroke-width="0.5" fill="green"/>
<circle cx="170" cy="110" r="10" stroke="black" stroke-width="0.5" fill="green"/>
<circle cx="190" cy="110" r="10" stroke="black" stroke-width="0.5" fill="green"/>
<circle cx="210" cy="110" r="10" stroke="black" stroke-width="0.5" fill="green"/>
<circle cx="230" cy="110" r="10" stroke="black" stroke-width="0.5" fill="green"/>
<circle cx="250" cy="110" r="10" stroke="black" stroke-width="0.5" fill="green"/>
<circle cx="270" cy="110" r="10" stroke="black" stroke-width="0.5" fill="green"/>
<circle cx="290" cy="110" r="10" stroke="black" stroke-width="0.5" fill="green"/>
<circle cx="310" cy="110" r="10" stroke="black" stroke-width="0.5" fill="green"/>
<circle cx="330" cy="110" r="10" stroke="black" stroke-width="0.5" fill="green"/>
<circle cx="350" cy="110" r="10" stroke="black" stroke-width="0.5" fill="green"/>
<circle cx="370" cy="110" r="10" stroke="black" stroke-width="0.5" fill="green"/>
<circle cx="390" cy="110" r="10" stroke="black" stroke-width="0.5" fill="green"/>
<circle cx="410" cy="110" r="10" stroke="black" stroke-width="0.5" fill="green"/>
<circle cx="430" cy="110" r="10" stroke="black" stroke-width="0.5" fill="green"/>
<circle cx="450" cy="110" r="10" stroke="black" stroke-width="0.5" fill="green"/>
<circle cx="470" cy="110" r="10" stroke="black" stroke-width="0.5" fill="green"/>
<circle cx="490" cy="110" r="10" stroke="black" stroke-width="0.5" fill="green"/>
<circle cx="10" cy="130" r="10" stroke="black" stroke-width="0.5" fill="green"/>
<circle cx="30" cy="130" r="10" stroke="black" stroke-width="0.5" fill="green"/>
<circle cx="50" cy="130" r="10" stroke="black" stroke-width="0.5" fill="green"/>
<circle cx="70" cy="130" r="10" stroke="black" stroke-width="0.5" fill="green"/>
<circle cx="90" cy="130" r="10" stroke="black" stroke-width="0.5" fill="green"/>
<circle cx="110" cy="130" r="10" stroke="black" stroke-width="0.5" fill="green"/>
<circle cx="130" cy="130" r="10" stroke="black" stroke-width="0.5" fill="green"/>
<circle cx="150" cy="130" r="10" stroke="black" stroke-width="0.5" fill="green"/>
<circle cx="170" cy="130" r="10" stroke="black" stroke-width="0.5" fill="green"/>
<circle cx="190" cy="130" r="10" stroke="black" stroke-width="0.5" fill="green"/>
<circle cx="210" cy="130" r="10" stroke="black" stroke-width="0.5" fill="green"/>
<circle cx="230" cy="130" r="10" stroke="black" stroke-width="0.5" fill="green"/>
<circle cx="250" cy="130" r="10" stroke="black" stroke-width="0.5" fill="green"/>
<circle cx="270" cy="130" r="10" stroke="black" stroke-width="0.5" fill="green"/>
<circle cx="290" cy="130" r="10" stroke="black" stroke-width="0.5" fill="green"/>
<circle cx="310" cy="130" r="10" stroke="black" stroke-width="0.5" fill="green"/>
<circle cx="330" cy="130" r="10" stroke="black" stroke-width="0.5" fill="green"/>
<circle cx="350" cy="130" r="10" stroke="black" stroke-width="0.5" fill="green"/>
<circle cx="370" cy="130" r="10" stroke="black" stroke-width="0.5" fill="green"/>
<circle cx="390" cy="130" r="10" stroke="black" stroke-width="0.5" fill="green"/>
<circle cx="410" cy="130" r="10" stroke="black" stroke-width="0.5" fill="green"/>
<circle cx="430" cy="130" r="10" stroke="black" stroke-width="0.5" fill="green"/>
<circle cx="450" cy="130" r="10" stroke="black" stroke-width="0.5" fill="green"/>
<circle cx="470" cy="130" r="10" stroke="black" stroke-width="0.5" fill="green"/>
<circle cx="490" cy="130" r="10" stroke="black" stroke-width="0.5" fill="green"/>
<circle cx="10" cy="150" r="10" stroke="black" stroke-width="0.5" fill="green"/>
<circle cx="30" cy="150" r="10" stroke="black" stroke-width="0.5" fill="green"/>
<circle cx="50" cy="150" r="10" stroke="black" stroke-width="0.5" fill="green"/>
<circle cx="70" cy="150" r="10" stroke="black" stroke-width="0.5" fill="green"/>
<circle cx="90" cy="150" r="10" stroke="black" stroke-width="0.5" fill="green"/>
<circle cx="110" cy="150" r="10" stroke="black" stroke-width="0.5" fill="green"/>
<circle cx="130" cy="150" r="10" stroke="black" stroke-width="0.5" fill="green"/>
<circle cx="150" cy="150" r="10" stroke="black" stroke-width="0.5" fill="green"/>
<circle cx="170" cy="150" r="10" stroke="black" stroke-width="0.5" fill="green"/>
<circle cx="190" cy="150" r="10" stroke="black" stroke-width="0.5" fill="green"/>
<circle cx="210" cy="150" r="10" stroke="black" stroke-width="0.5" fill="green"/>
<circle cx="230" cy="150" r="10" stroke="black" stroke-width="0.5" fill="green"/>
<circle cx="250" cy="150" r="10" stroke="black" stroke-width="0.5" fill="green"/>
<circle cx="270" cy="150" r="10" stroke="black" stroke-width="0.5" fill="green"/>
<circle cx="290" cy="150" r="10" stroke="black" stroke-width="0.5" fill="green"/>
<circle cx="310" cy="150" r="10" stroke="black" stroke-width="0.5" fill="green"/>
<circle cx="330" cy="150" r="10" stroke="black" stroke-width="0.5" fill="green"/>
<circle cx="350" cy="150" r="10" stroke="black" stroke-width="0.5" fill="green"/>
<circle cx="370" cy="150" r="10" stroke="black" stroke-width="0.5" fill="green"/>
<circle cx="390" cy="150" r="10" stroke="black" stroke-width="0.5" fill="green"/>
<circle cx="410" cy="150" r="10" stroke="black" stroke-width="0.5" fill="green"/>
<circle cx="430" cy="150" r="10" stroke="black" stroke-width="0.5" fill="green"/>
<circle cx="450" cy="150" r="10" stroke="black" stroke-width="0.5" fill="green"/>
<circle cx="470" cy="150" r="10" stroke="black" stroke-width="0.5" fill="green"/>
<circle cx="490" cy="150" r="10" stroke="black" stroke-width="0.5" fill="green"/>
<circle cx="10" cy="170" r="10" stroke="black" stroke-width="0.5" fill="green"/>
<circle cx="30" cy="170" r="10" stroke="black" stroke-width="0.5" fill="green"/>
<circle cx="50" cy="170" r="10" stroke="black" stroke-width="0.5" fill="green"/>
<circle cx="70" cy="170" r="10" stroke="black" stroke-width="0.5" fill="green"/>
<circle cx="90" cy="170" r="10" stroke="black" stroke-width="0.5" fill="green"/>
<circle cx="110" cy="170" r="10" stroke="black" stroke-width="0.5" fill="green"/>
<circle cx="130" cy="170" r="10" stroke="black" stroke-width="0.5" fill="green"/>
<circle cx="150" cy="170" r="10" stroke="black" stroke-width="0.5" fill="green"/>
<circle cx="170" cy="170" r="10" stroke="black" stroke-width="0.5" fill="green"/>
<circle cx="190" cy="170" r="10" stroke="black" stroke-width="0.5" fill="green"/>
<circle cx="210" cy="170" r="10" stroke="black" stroke-width="0.5" fill="green"/>
<circle cx="230" cy="170" r="10" stroke="black" stroke-width="0.5" fill="green"/>
<circle cx="250" cy="170" r="10" stroke="black" stroke-width="0.5" fill="green"/>
<circle cx="270" cy="170" r="10" stroke="black" stroke-width="0.5" fill="green"/>
<circle cx="290" cy="170" r="10" stroke="black" stroke-width="0.5" fill="green"/>
<circle cx="310" cy="170" r="10" stroke="black" stroke-width="0.5" fill="green"/>
<circle cx="330" cy="170" r="10" stroke="black" stroke-width="0.5" fill="green"/>
<circle cx="350" cy="170" r="10" stroke="black" stroke-width="0.5" fill="green"/>
<circle cx="370" cy="170" r="10" stroke="black" stroke-width="0.5" fill="green"/>
<circle cx="390" cy="170" r="10" stroke="black" stroke-width="0.5" fill="green"/>
<circle cx="410" cy="170" r="10" stroke="black" stroke-width="0.5" fill="green"/>
<circle cx="430" cy="170" r="10" stroke="black" stroke-width="0.5" fill="green"/>
<circle cx="450" cy="170" r="10" stroke="black" stroke-width="0.5" fill="green"/>
<circle cx="470" cy="170" r="10" stroke="black" stroke-width="0.5" fill="green"/>
<circle cx="490" cy="170" r="10" stroke="black" stroke-width="0.5" fill="green"/>
<circle cx="10" cy="190" r="10" stroke="black" stroke-width="0.5" fill="green"/>
<circle cx="30" cy="190" r="10" stroke="black" stroke-width="0.5" fill="green"/>
<circle cx="50" cy="190" r="10" stroke="black" stroke-width="0.5" fill="green"/>
<circle cx="70" cy="190" r="10" stroke="black" stroke-width="0.5" fill="green"/>
<circle cx="90" cy="190" r="10" stroke="black" stroke-width="0.5" fill="green"/>
<circle cx="110" cy="190" r="10" stroke="black" stroke-width="0.5" fill="green"/>
<circle cx="130" cy="190" r="10" stroke="black" stroke-width="0.5" fill="green"/>
<circle cx="150" cy="190" r="10" stroke="black" stroke-width="0.5" fill="green"/>
<circle cx="170" cy="190" r="10" stroke="black" stroke-width="0.5" fill="green"/>
<circle cx="190" cy="190" r="10" stroke="black" stroke-width="0.5" fill="green"/>
<circle cx="210" cy="190" r="10" stroke="black" stroke-width="0.5" fill="green"/>
<circle cx="230" cy="190" r="10" stroke="black" stroke-width="0.5" fill="green"/>
<circle cx="250" cy="190" r="10" stroke="black" stroke-width="0.5" fill="green"/>
<circle cx="270" cy="190" r="10" stroke="black" stroke-width="0.5" fill="green"/>
<circle cx="290" cy="190" r="10" stroke="black" stroke-width="0.5" fill="green"/>
<circle cx="310" cy="190" r="10" stroke="black" stroke-width="0.5" fill="green"/>
<circle cx="330" cy="190" r="10" stroke="black" stroke-width="0.5" fill="green"/>
<circle cx="350" cy="190" r="10" stroke="black" stroke-width="0.5" fill="green"/>
<circle cx="370" cy="190" r="10" stroke="black" stroke-width="0.5" fill="green"/>
<circle cx="390" cy="190" r="10" stroke="black" stroke-width="0.5" fill="green"/>
<circle cx="410" cy="190" r="10" stroke="black" stroke-width="0.5" fill="green"/>
<circle cx="430" cy="190" r="10" stroke="black" stroke-width="0.5" fill="green"/>
<circle cx="450" cy="190" r="10" stroke="black" stroke-width="0.5" fill="green"/>
<circle cx="470" cy="190" r="10" stroke="black" stroke-width="0.5" fill="green"/>
<circle cx="490" cy="190" r="10" stroke="black" stroke-width="0.5" fill="green"/>
<circle cx="10" cy="210" r="10" stroke="black" stroke-width="0.5" fill="green"/>
<circle cx="30" cy="210" r="10" stroke="black" stroke-width="0.5" fill="green"/>
<circle cx="50" cy="210" r="10" stroke="black" stroke-width="0.5" fill="green"/>
<circle cx="70" cy="210" r="10" stroke="black" stroke-width="0.5" fill="green"/>
<circle cx="90" cy="210" r="10" stroke="black" stroke-width="0.5" fill="green"/>
<circle cx="110" cy="210" r="10" stroke="black" stroke-width="0.5" fill="green"/>
<circle cx="130" cy="210" r="10" stroke="black" stroke-width="0.5" fill="green"/>
<circle cx="150" cy="210" r="10" stroke="black" stroke-width="0.5" fill="green"/>
<circle cx="170" cy="210" r="10" stroke="black" stroke-width="0.5" fill="green"/>
<circle cx="190" cy="210" r="10" stroke="black" stroke-width="0.5" fill="green"/>
<circle cx="210" cy="210" r="10" stroke="black" stroke-width="0.5" fill="green"/>
<circle cx="230" cy="210" r="10" stroke="black" stroke-width="0.5" fill="green"/>
<circle cx="250" cy="210" r="10" stroke="black" stroke-width="0.5" fill="green"/>
<circle cx="270" cy="210" r="10" stroke="black" stroke-width="0.5" fill="green"/>
<circle cx="290" cy="210" r="10" stroke="black" stroke-width="0.5" fill="green"/>
<circle cx="310" cy="210" r="10" stroke="black" stroke-width="0.5" fill="green"/>
<circle cx="330" cy="210" r="10" stroke="black" stroke-width="0.5" fill="green"/>
<circle cx="350" cy="210" r="10" stroke="black" stroke-width="0.5" fill="green"/>
<circle cx="370" cy="210" r="10" stroke="black" stroke-width="0.5" fill="green"/>
<circle cx="390" cy="210" r="10" stroke="black" stroke-width="0.5" fill="green"/>
<circle cx="410" cy="210" r="10" stroke="black" stroke-width="0.5" fill="green"/>
<circle cx="430" cy="210" r="10" stroke="black" stroke-width="0.5" fill="green"/>
<circle cx="450" cy="210" r="10" stroke="black" stroke-width="0.5" fill="green"/>
<circle cx="470" cy="210" r="10" stroke="black" stroke-width="0.5" fill="green"/>
<circle cx="490" cy="210" r="10" stroke="black" stroke-width="0.5" fill="green"/>
<circle cx="10" cy="230" r="10" stroke="black" stroke-width="0.5" fill="green"/>
<circle cx="30" cy="230" r="10" stroke="black" stroke-width="0.5" fill="green"/>
<circle cx="50" cy="230" r="10" stroke="black" stroke-width="0.5" fill="green"/>
<circle cx="70" cy="230" r="10" stroke="black" stroke-width="0.5" fill="green"/>
<circle cx="90" cy="230" r="10" stroke="black" stroke-width="0.5" fill="green"/>
<circle cx="110" cy="230" r="10" stroke="black" stroke-width="0.5" fill="green"/>
<circle cx="130" cy="230" r="10" stroke="black" stroke-width="0.5" fill="green"/>
<circle cx="150" cy="230" r="10" stroke="black" stroke-width="0.5" fill="green"/>
<circle cx="170" cy="230" r="10" stroke="black" stroke-width="0.5" fill="green"/>
<circle cx="190" cy="230" r="10" stroke="black" stroke-width="0.5" fill="green"/>
<circle cx="210" cy="230" r="10" stroke="black" stroke-width="0.5" fill="green"/>
<circle cx="230" cy="230" r="10" stroke="black" stroke-width="0.5" fill="green"/>
<circle cx="250" cy="230" r="10" stroke="black" stroke-width="0.5" fill="green"/>
<circle cx="270" cy="230" r="10" stroke="black" stroke-width="0.5" fill="green"/>
<circle cx="290" cy="230" r="10" stroke="black" stroke-width="0.5" fill="green"/>
<circle cx="310" cy="230" r="10" stroke="black" stroke-width="0.5" fill="green"/>
<circle cx="330" cy="230" r="10" stroke="black" stroke-width="0.5" fill="green"/>
<circle cx="350" cy="230" r="10" stroke="black" stroke-width="0.5" fill="green"/>
<circle cx="370" cy="230" r="10" stroke="black" stroke-width="0.5" fill="green"/>
<circle cx="390" cy="230" r="10" stroke="black" stroke-width="0.5" fill="green"/>
<circle cx="410" cy="230" r="10" stroke="black" stroke-width="0.5" fill="green"/>
<circle cx="430" cy="230" r="10" stroke="black" stroke-width="0.5" fill="green"/>
<circle cx="450" cy="230" r="10" stroke="black" stroke-width="0.5" fill="green"/>
<circle cx="470" cy="230" r="10" stroke="black" stroke-width="0.5" fill="green"/>
<circle cx="490" cy="230" r="10" stroke="black" stroke-width="0.5" fill="green"/>

</svg>