 <svg version=" 1.1 " baseProfile=" full "
width="100%" height="100%" 
 xmlns="http://www.w3.org/2000/svg">

<polygon points="250,0 0,433.013 500,433.013 " stroke="black" stroke-width="0.5" fill="pink"/>
<polygon points="100,0 106.279,0.197327 112.533,0.788529 118.738,1.77127 124.869,3.14168 130.902,4.89434 136.812,7.02234 142.578,9.51728 148.175,12.3693 153.583,15.5672 158.778,19.0983 163.742,22.9486 168.455,27.1031 172.897,31.5452 177.051,36.2575 180.902,41.2214 184.433,46.4172 187.631,51.8246 190.483,57.422 192.978,63.1875 195.106,69.0982 196.858,75.1309 198.229,81.2618 199.211,87.4666 199.803,93.7208 200,99.9999 199.803,106.279 199.211,112.533 198.229,118.738 196.858,124.869 195.106,130.902 192.978,136.812 190.483,142.578 187.631,148.175 184.433,153.583 180.902,158.778 177.051,163.742 172.897,168.455 168.455,172.897 163.743,177.051 158.779,180.902 153.583,184.433 148.176,187.631 142.578,190.483 136.813,192.978 130.902,195.106 124.869,196.858 118.738,198.229 112.534,199.211 106.279,199.803 100,200 93.7212,199.803 87.467,199.212 81.2621,198.229 75.1313,196.858 69.0986,195.106 63.1878,192.978 57.4223,190.483 51.8249,187.631 46.4176,184.433 41.2217,180.902 36.2579,177.052 31.5455,172.897 27.1034,168.455 22.9489,163.743 19.0985,158.779 15.5674,153.583 12.3695,148.176 9.51745,142.578 7.02249,136.813 4.89446,130.902 3.14178,124.869 1.77135,118.739 0.788578,112.534 0.197352,106.279 7.92184e-10,100 0.197302,93.7214 0.788479,87.4671 1.7712,81.2623 3.14158,75.1314 4.89422,69.0987 7.02219,63.1879 9.51711,57.4225 12.3691,51.825 15.567,46.4177 19.098,41.2218 22.9484,36.258 27.1028,31.5456 31.5449,27.1035 36.2572,22.949 41.2211,19.0986 46.4169,15.5675 51.8242,12.3696 57.4216,9.5175 63.1871,7.02254 69.0978,4.8945 75.1305,3.14181 81.2614,1.77137 87.4662,0.788595 93.7204,0.19736 " stroke="black" stroke-width="0.5" fill="grey"/>
<polygon points="0,0 500,0 500,250 0,250 " stroke="black" stroke-width="0.5" fill="yellow"/>
<polygon points="100,0 106.279,0.197327 112.533,0.788529 118.738,1.77127 124.869,3.14168 130.902,4.89434 136.812,7.02234 142.578,9.51728 148.175,12.3693 153.583,15.5672 158.778,19.0983 163.742,22.9486 168.455,27.1031 172.897,31.5452 177.051,36.2575 180.902,41.2214 184.433,46.4172 187.631,51.8246 190.483,57.422 192.978,63.1875 195.106,69.0982 196.858,75.1309 198.229,81.2618 199.211,87.4666 199.803,93.7208 200,99.9999 199.803,106.279 199.211,112.533 198.229,118.738 196.858,124.869 195.106,130.902 192.978,136.812 190.483,142.578 187.631,148.175 184.433,153.583 180.902,158.778 177.051,163.742 172.897,168.455 168.455,172.897 163.743,177.051 158.779,180.902 153.583,184.433 148.176,187.631 142.578,190.483 136.813,192.978 130.902,195.106 124.869,196.858 118.738,198.229 112.534,199.211 106.279,199.803 100,200 93.7212,199.803 87.467,199.212 81.2621,198.229 75.1313,196.858 69.0986,195.106 63.1878,192.978 57.4223,190.483 51.8249,187.631 46.4176,184.433 41.2217,180.902 36.2579,177.052 31.5455,172.897 27.1034,168.455 22.9489,163.743 19.0985,158.779 15.5674,153.583 12.3695,148.176 9.51745,142.578 7.02249,136.813 4.89446,130.902 3.14178,124.869 1.77135,118.739 0.788578,112.534 0.197352,106.279 7.92184e-10,100 0.197302,93.7214 0.788479,87.4671 1.7712,81.2623 3.14158,75.1314 4.89422,69.0987 7.02219,63.1879 9.51711,57.4225 12.3691,51.825 15.567,46.4177 19.098,41.2218 22.9484,36.258 27.1028,31.5456 31.5449,27.1035 36.2572,22.949 41.2211,19.0986 46.4169,15.5675 51.8242,12.3696 57.4216,9.5175 63.1871,7.02254 69.0978,4.8945 75.1305,3.14181 81.2614,1.77137 87.4662,0.788595 93.7204,0.19736 " stroke="black" stroke-width="0.5" fill="grey"/>
<polygon points="250,0 0,433.013 500,433.013 " stroke="black" stroke-width="0.5" fill="pink"/>
<polygon points="0,0 9,0 9,17 0,17 " stroke="black" stroke-width="0.5" fill="yellow"/>
<polygon points="10,0 10.6279,0.0197327 11.2533,0.0788529 11.8738,0.177127 12.4869,0.314168 13.0902,0.489434 13.6812,0.702234 14.2578,0.951728 14.8175,1.23693 15.3583,1.55672 15.8778,1.90983 16.3742,2.29486 16.8455,2.71031 17.2897,3.15452 17.7051,3.62575 18.0902,4.12214 18.4433,4.64172 18.7631,5.18246 19.0483,5.7422 19.2978,6.31875 19.5106,6.90982 19.6858,7.51309 19.8229,8.12618 19.9211,8.74666 19.9803,9.37208 20,9.99999 19.9803,10.6279 19.9211,11.2533 19.8229,11.8738 19.6858,12.4869 19.5106,13.0902 19.2978,13.6812 19.0483,14.2578 18.7631,14.8175 18.4433,15.3583 18.0902,15.8778 17.7051,16.3742 17.2897,16.8455 16.8455,17.2897 16.3743,17.7051 15.8779,18.0902 15.3583,18.4433 14.8176,18.7631 14.2578,19.0483 13.6813,19.2978 13.0902,19.5106 12.4869,19.6858 11.8738,19.8229 11.2534,19.9211 10.6279,19.9803 10,20 9.37212,19.9803 8.7467,19.9212 8.12621,19.8229 7.51313,19.6858 6.90986,19.5106 6.31878,19.2978 5.74223,19.0483 5.18249,18.7631 4.64176,18.4433 4.12217,18.0902 3.62579,17.7052 3.15455,17.2897 2.71034,16.8455 2.29489,16.3743 1.90985,15.8779 1.55674,15.3583 1.23695,14.8176 0.951745,14.2578 0.702249,13.6813 0.489446,13.0902 0.314178,12.4869 0.177135,11.8739 0.0788578,11.2534 0.0197352,10.6279 7.92184e-11,10 0.0197302,9.37214 0.0788479,8.74671 0.17712,8.12623 0.314158,7.51314 0.489422,6.90987 0.702219,6.31879 0.951711,5.74225 1.23691,5.1825 1.5567,4.64177 1.9098,4.12218 2.29484,3.6258 2.71028,3.15456 3.15449,2.71035 3.62572,2.2949 4.12211,1.90986 4.64169,1.55675 5.18242,1.23696 5.74216,0.95175 6.31871,0.702254 6.90978,0.48945 7.51305,0.314181 8.12614,0.177137 8.74662,0.0788595 9.37204,0.019736 " stroke="black" stroke-width="0.5" fill="grey"/>
<polygon points="8.5,0 0,14.7224 17,14.7224 " stroke="black" stroke-width="0.5" fill="pink"/>

</svg>