 <svg version=" 1.1 " baseProfile=" full "
width="100%" height="100%" 
 xmlns="http://www.w3.org/2000/svg">

<circle cx="100" cy="100" r="100" stroke="black" stroke-width="0.5" fill="red"/>
<circle cx="100" cy="10" r="10" stroke="black" stroke-width="0.5" fill="green"/>
<circle cx="77" cy="13" r="10" stroke="black" stroke-width="0.5" fill="green"/>
<circle cx="120" cy="13" r="10" stroke="black" stroke-width="0.5" fill="green"/>
<circle cx="139" cy="20" r="10" stroke="black" stroke-width="0.5" fill="green"/>
<circle cx="57" cy="21" r="10" stroke="black" stroke-width="0.5" fill="green"/>
<circle cx="91" cy="28" r="10" stroke="black" stroke-width="0.5" fill="green"/>
<circle cx="111" cy="31" r="10" stroke="black" stroke-width="0.5" fill="green"/>
<circle cx="156" cy="31" r="10" stroke="black" stroke-width="0.5" fill="green"/>
<circle cx="40" cy="33" r="10" stroke="black" stroke-width="0.5" fill="green"/>
<circle cx="72" cy="35" r="10" stroke="black" stroke-width="0.5" fill="green"/>
<circle cx="130" cy="38" r="10" stroke="black" stroke-width="0.5" fill="green"/>
<circle cx="171" cy="45" r="10" stroke="black" stroke-width="0.5" fill="green"/>
<circle cx="55" cy="47" r="10" stroke="black" stroke-width="0.5" fill="green"/>
<circle cx="98" cy="47" r="10" stroke="black" stroke-width="0.5" fill="green"/>
<circle cx="26" cy="49" r="10" stroke="black" stroke-width="0.5" fill="green"/>
<circle cx="147" cy="49" r="10" stroke="black" stroke-width="0.5" fill="green"/>
<circle cx="79" cy="54" r="10" stroke="black" stroke-width="0.5" fill="green"/>
<circle cx="117" cy="54" r="10" stroke="black" stroke-width="0.5" fill="green"/>
<circle cx="41" cy="63" r="10" stroke="black" stroke-width="0.5" fill="green"/>
<circle cx="162" cy="63" r="10" stroke="black" stroke-width="0.5" fill="green"/>
<circle cx="182" cy="63" r="10" stroke="black" stroke-width="0.5" fill="green"/>
<circle cx="134" cy="65" r="10" stroke="black" stroke-width="0.5" fill="green"/>
<circle cx="62" cy="66" r="10" stroke="black" stroke-width="0.5" fill="green"/>
<circle cx="17" cy="67" r="10" stroke="black" stroke-width="0.5" fill="green"/>
<circle cx="95" cy="67" r="10" stroke="black" stroke-width="0.5" fill="green"/>
<circle cx="114" cy="74" r="10" stroke="black" stroke-width="0.5" fill="green"/>
<circle cx="78" cy="78" r="10" stroke="black" stroke-width="0.5" fill="green"/>
<circle cx="149" cy="79" r="10" stroke="black" stroke-width="0.5" fill="green"/>
<circle cx="32" cy="81" r="10" stroke="black" stroke-width="0.5" fill="green"/>
<circle cx="171" cy="81" r="10" stroke="black" stroke-width="0.5" fill="green"/>
<circle cx="52" cy="84" r="10" stroke="black" stroke-width="0.5" fill="green"/>
<circle cx="130" cy="86" r="10" stroke="black" stroke-width="0.5" fill="green"/>
<circle cx="11" cy="87" r="10" stroke="black" stroke-width="0.5" fill="green"/>
<circle cx="96" cy="87" r="10" stroke="black" stroke-width="0.5" fill="green"/>
<circle cx="189" cy="90" r="10" stroke="black" stroke-width="0.5" fill="green"/>
<circle cx="68" cy="96" r="10" stroke="black" stroke-width="0.5" fill="green"/>
<circle cx="158" cy="97" r="10" stroke="black" stroke-width="0.5" fill="green"/>
<circle cx="113" cy="98" r="10" stroke="black" stroke-width="0.5" fill="green"/>
<circle cx="39" cy="100" r="10" stroke="black" stroke-width="0.5" fill="green"/>
<circle cx="139" cy="104" r="10" stroke="black" stroke-width="0.5" fill="green"/>
<circle cx="86" cy="105" r="10" stroke="black" stroke-width="0.5" fill="green"/>
<circle cx="18" cy="106" r="10" stroke="black" stroke-width="0.5" fill="green"/>
<circle cx="176" cy="106" r="10" stroke="black" stroke-width="0.5" fill="green"/>
<circle cx="55" cy="112" r="10" stroke="black" stroke-width="0.5" fill="green"/>
<circle cx="103" cy="116" r="10" stroke="black" stroke-width="0.5" fill="green"/>
<circle cx="123" cy="116" r="10" stroke="black" stroke-width="0.5" fill="green"/>
<circle cx="155" cy="117" r="10" stroke="black" stroke-width="0.5" fill="green"/>
<circle cx="33" cy="120" r="10" stroke="black" stroke-width="0.5" fill="green"/>
<circle cx="73" cy="121" r="10" stroke="black" stroke-width="0.5" fill="green"/>
<circle cx="187" cy="123" r="10" stroke="black" stroke-width="0.5" fill="green"/>
<circle cx="15" cy="129" r="10" stroke="black" stroke-width="0.5" fill="green"/>
<circle cx="139" cy="129" r="10" stroke="black" stroke-width="0.5" fill="green"/>
<circle cx="49" cy="132" r="10" stroke="black" stroke-width="0.5" fill="green"/>
<circle cx="90" cy="132" r="10" stroke="black" stroke-width="0.5" fill="green"/>
<circle cx="169" cy="132" r="10" stroke="black" stroke-width="0.5" fill="green"/>
<circle cx="112" cy="134" r="10" stroke="black" stroke-width="0.5" fill="green"/>
<circle cx="31" cy="141" r="10" stroke="black" stroke-width="0.5" fill="green"/>
<circle cx="67" cy="141" r="10" stroke="black" stroke-width="0.5" fill="green"/>
<circle cx="153" cy="144" r="10" stroke="black" stroke-width="0.5" fill="green"/>
<circle cx="128" cy="146" r="10" stroke="black" stroke-width="0.5" fill="green"/>
<circle cx="99" cy="150" r="10" stroke="black" stroke-width="0.5" fill="green"/>
<circle cx="48" cy="152" r="10" stroke="black" stroke-width="0.5" fill="green"/>
<circle cx="172" cy="152" r="10" stroke="black" stroke-width="0.5" fill="green"/>
<circle cx="79" cy="157" r="10" stroke="black" stroke-width="0.5" fill="green"/>
<circle cx="142" cy="161" r="10" stroke="black" stroke-width="0.5" fill="green"/>
<circle cx="115" cy="162" r="10" stroke="black" stroke-width="0.5" fill="green"/>
<circle cx="60" cy="168" r="10" stroke="black" stroke-width="0.5" fill="green"/>
<circle cx="95" cy="170" r="10" stroke="black" stroke-width="0.5" fill="green"/>
<circle cx="129" cy="177" r="10" stroke="black" stroke-width="0.5" fill="green"/>
<circle cx="77" cy="179" r="10" stroke="black" stroke-width="0.5" fill="green"/>
<circle cx="110" cy="184" r="10" stroke="black" stroke-width="0.5" fill="green"/>

</svg>