 <svg version=" 1.1 " baseProfile=" full "
width="100%" height="100%" 
 xmlns="http://www.w3.org/2000/svg">

<polygon points="100,0 106.279,0.197327 112.533,0.788529 118.738,1.77127 124.869,3.14168 130.902,4.89434 136.812,7.02234 142.578,9.51728 148.175,12.3693 153.583,15.5672 158.778,19.0983 163.742,22.9486 168.455,27.1031 172.897,31.5452 177.051,36.2575 180.902,41.2214 184.433,46.4172 187.631,51.8246 190.483,57.422 192.978,63.1875 195.106,69.0982 196.858,75.1309 198.229,81.2618 199.211,87.4666 199.803,93.7208 200,99.9999 199.803,106.279 199.211,112.533 198.229,118.738 196.858,124.869 195.106,130.902 192.978,136.812 190.483,142.578 187.631,148.175 184.433,153.583 180.902,158.778 177.051,163.742 172.897,168.455 168.455,172.897 163.743,177.051 158.779,180.902 153.583,184.433 148.176,187.631 142.578,190.483 136.813,192.978 130.902,195.106 124.869,196.858 118.738,198.229 112.534,199.211 106.279,199.803 100,200 93.7212,199.803 87.467,199.212 81.2621,198.229 75.1313,196.858 69.0986,195.106 63.1878,192.978 57.4223,190.483 51.8249,187.631 46.4176,184.433 41.2217,180.902 36.2579,177.052 31.5455,172.897 27.1034,168.455 22.9489,163.743 19.0985,158.779 15.5674,153.583 12.3695,148.176 9.51745,142.578 7.02249,136.813 4.89446,130.902 3.14178,124.869 1.77135,118.739 0.788578,112.534 0.197352,106.279 7.92184e-10,100 0.197302,93.7214 0.788479,87.4671 1.7712,81.2623 3.14158,75.1314 4.89422,69.0987 7.02219,63.1879 9.51711,57.4225 12.3691,51.825 15.567,46.4177 19.098,41.2218 22.9484,36.258 27.1028,31.5456 31.5449,27.1035 36.2572,22.949 41.2211,19.0986 46.4169,15.5675 51.8242,12.3696 57.4216,9.5175 63.1871,7.02254 69.0978,4.8945 75.1305,3.14181 81.2614,1.77137 87.4662,0.788595 93.7204,0.19736 " stroke="black" stroke-width="0.5" fill="grey"/>
<polygon points="250,0 0,433.013 500,433.013 " stroke="black" stroke-width="0.5" fill="pink"/>

</svg>