 <svg version=" 1.1 " baseProfile=" full "
width="100%" height="100%" 
 xmlns="http://www.w3.org/2000/svg">

<polygon points="250,0 0,433.013 500,433.013 " stroke="black" stroke-width="0.5" fill="red"/>
<polygon points="5.19615,424.013 22.1962,424.013 22.1962,433.013 5.19615,433.013 " stroke="black" stroke-width="0.5" fill="green"/>
<polygon points="22.1962,424.013 39.1962,424.013 39.1962,433.013 22.1962,433.013 " stroke="black" stroke-width="0.5" fill="green"/>
<polygon points="39.1962,424.013 56.1962,424.013 56.1962,433.013 39.1962,433.013 " stroke="black" stroke-width="0.5" fill="green"/>
<polygon points="56.1962,424.013 73.1962,424.013 73.1962,433.013 56.1962,433.013 " stroke="black" stroke-width="0.5" fill="green"/>
<polygon points="73.1962,424.013 90.1962,424.013 90.1962,433.013 73.1962,433.013 " stroke="black" stroke-width="0.5" fill="green"/>
<polygon points="90.1962,424.013 107.196,424.013 107.196,433.013 90.1962,433.013 " stroke="black" stroke-width="0.5" fill="green"/>
<polygon points="107.196,424.013 124.196,424.013 124.196,433.013 107.196,433.013 " stroke="black" stroke-width="0.5" fill="green"/>
<polygon points="124.196,424.013 141.196,424.013 141.196,433.013 124.196,433.013 " stroke="black" stroke-width="0.5" fill="green"/>
<polygon points="141.196,424.013 158.196,424.013 158.196,433.013 141.196,433.013 " stroke="black" stroke-width="0.5" fill="green"/>
<polygon points="158.196,424.013 175.196,424.013 175.196,433.013 158.196,433.013 " stroke="black" stroke-width="0.5" fill="green"/>
<polygon points="175.196,424.013 192.196,424.013 192.196,433.013 175.196,433.013 " stroke="black" stroke-width="0.5" fill="green"/>
<polygon points="192.196,424.013 209.196,424.013 209.196,433.013 192.196,433.013 " stroke="black" stroke-width="0.5" fill="green"/>
<polygon points="209.196,424.013 226.196,424.013 226.196,433.013 209.196,433.013 " stroke="black" stroke-width="0.5" fill="green"/>
<polygon points="226.196,424.013 243.196,424.013 243.196,433.013 226.196,433.013 " stroke="black" stroke-width="0.5" fill="green"/>
<polygon points="243.196,424.013 260.196,424.013 260.196,433.013 243.196,433.013 " stroke="black" stroke-width="0.5" fill="green"/>
<polygon points="260.196,424.013 277.196,424.013 277.196,433.013 260.196,433.013 " stroke="black" stroke-width="0.5" fill="green"/>
<polygon points="277.196,424.013 294.196,424.013 294.196,433.013 277.196,433.013 " stroke="black" stroke-width="0.5" fill="green"/>
<polygon points="294.196,424.013 311.196,424.013 311.196,433.013 294.196,433.013 " stroke="black" stroke-width="0.5" fill="green"/>
<polygon points="311.196,424.013 328.196,424.013 328.196,433.013 311.196,433.013 " stroke="black" stroke-width="0.5" fill="green"/>
<polygon points="328.196,424.013 345.196,424.013 345.196,433.013 328.196,433.013 " stroke="black" stroke-width="0.5" fill="green"/>
<polygon points="345.196,424.013 362.196,424.013 362.196,433.013 345.196,433.013 " stroke="black" stroke-width="0.5" fill="green"/>
<polygon points="362.196,424.013 379.196,424.013 379.196,433.013 362.196,433.013 " stroke="black" stroke-width="0.5" fill="green"/>
<polygon points="379.196,424.013 396.196,424.013 396.196,433.013 379.196,433.013 " stroke="black" stroke-width="0.5" fill="green"/>
<polygon points="396.196,424.013 413.196,424.013 413.196,433.013 396.196,433.013 " stroke="black" stroke-width="0.5" fill="green"/>
<polygon points="413.196,424.013 430.196,424.013 430.196,433.013 413.196,433.013 " stroke="black" stroke-width="0.5" fill="green"/>
<polygon points="430.196,424.013 447.196,424.013 447.196,433.013 430.196,433.013 " stroke="black" stroke-width="0.5" fill="green"/>
<polygon points="447.196,424.013 464.196,424.013 464.196,433.013 447.196,433.013 " stroke="black" stroke-width="0.5" fill="green"/>
<polygon points="464.196,424.013 481.196,424.013 481.196,433.013 464.196,433.013 " stroke="black" stroke-width="0.5" fill="green"/>
<polygon points="10.3923,415.013 27.3923,415.013 27.3923,424.013 10.3923,424.013 " stroke="black" stroke-width="0.5" fill="green"/>
<polygon points="27.3923,415.013 44.3923,415.013 44.3923,424.013 27.3923,424.013 " stroke="black" stroke-width="0.5" fill="green"/>
<polygon points="44.3923,415.013 61.3923,415.013 61.3923,424.013 44.3923,424.013 " stroke="black" stroke-width="0.5" fill="green"/>
<polygon points="61.3923,415.013 78.3923,415.013 78.3923,424.013 61.3923,424.013 " stroke="black" stroke-width="0.5" fill="green"/>
<polygon points="78.3923,415.013 95.3923,415.013 95.3923,424.013 78.3923,424.013 " stroke="black" stroke-width="0.5" fill="green"/>
<polygon points="95.3923,415.013 112.392,415.013 112.392,424.013 95.3923,424.013 " stroke="black" stroke-width="0.5" fill="green"/>
<polygon points="112.392,415.013 129.392,415.013 129.392,424.013 112.392,424.013 " stroke="black" stroke-width="0.5" fill="green"/>
<polygon points="129.392,415.013 146.392,415.013 146.392,424.013 129.392,424.013 " stroke="black" stroke-width="0.5" fill="green"/>
<polygon points="146.392,415.013 163.392,415.013 163.392,424.013 146.392,424.013 " stroke="black" stroke-width="0.5" fill="green"/>
<polygon points="163.392,415.013 180.392,415.013 180.392,424.013 163.392,424.013 " stroke="black" stroke-width="0.5" fill="green"/>
<polygon points="180.392,415.013 197.392,415.013 197.392,424.013 180.392,424.013 " stroke="black" stroke-width="0.5" fill="green"/>
<polygon points="197.392,415.013 214.392,415.013 214.392,424.013 197.392,424.013 " stroke="black" stroke-width="0.5" fill="green"/>
<polygon points="214.392,415.013 231.392,415.013 231.392,424.013 214.392,424.013 " stroke="black" stroke-width="0.5" fill="green"/>
<polygon points="231.392,415.013 248.392,415.013 248.392,424.013 231.392,424.013 " stroke="black" stroke-width="0.5" fill="green"/>
<polygon points="248.392,415.013 265.392,415.013 265.392,424.013 248.392,424.013 " stroke="black" stroke-width="0.5" fill="green"/>
<polygon points="265.392,415.013 282.392,415.013 282.392,424.013 265.392,424.013 " stroke="black" stroke-width="0.5" fill="green"/>
<polygon points="282.392,415.013 299.392,415.013 299.392,424.013 282.392,424.013 " stroke="black" stroke-width="0.5" fill="green"/>
<polygon points="299.392,415.013 316.392,415.013 316.392,424.013 299.392,424.013 " stroke="black" stroke-width="0.5" fill="green"/>
<polygon points="316.392,415.013 333.392,415.013 333.392,424.013 316.392,424.013 " stroke="black" stroke-width="0.5" fill="green"/>
<polygon points="333.392,415.013 350.392,415.013 350.392,424.013 333.392,424.013 " stroke="black" stroke-width="0.5" fill="green"/>
<polygon points="350.392,415.013 367.392,415.013 367.392,424.013 350.392,424.013 " stroke="black" stroke-width="0.5" fill="green"/>
<polygon points="367.392,415.013 384.392,415.013 384.392,424.013 367.392,424.013 " stroke="black" stroke-width="0.5" fill="green"/>
<polygon points="384.392,415.013 401.392,415.013 401.392,424.013 384.392,424.013 " stroke="black" stroke-width="0.5" fill="green"/>
<polygon points="401.392,415.013 418.392,415.013 418.392,424.013 401.392,424.013 " stroke="black" stroke-width="0.5" fill="green"/>
<polygon points="418.392,415.013 435.392,415.013 435.392,424.013 418.392,424.013 " stroke="black" stroke-width="0.5" fill="green"/>
<polygon points="435.392,415.013 452.392,415.013 452.392,424.013 435.392,424.013 " stroke="black" stroke-width="0.5" fill="green"/>
<polygon points="452.392,415.013 469.392,415.013 469.392,424.013 452.392,424.013 " stroke="black" stroke-width="0.5" fill="green"/>
<polygon points="469.392,415.013 486.392,415.013 486.392,424.013 469.392,424.013 " stroke="black" stroke-width="0.5" fill="green"/>
<polygon points="15.5885,406.013 32.5885,406.013 32.5885,415.013 15.5885,415.013 " stroke="black" stroke-width="0.5" fill="green"/>
<polygon points="32.5885,406.013 49.5885,406.013 49.5885,415.013 32.5885,415.013 " stroke="black" stroke-width="0.5" fill="green"/>
<polygon points="49.5885,406.013 66.5885,406.013 66.5885,415.013 49.5885,415.013 " stroke="black" stroke-width="0.5" fill="green"/>
<polygon points="66.5885,406.013 83.5885,406.013 83.5885,415.013 66.5885,415.013 " stroke="black" stroke-width="0.5" fill="green"/>
<polygon points="83.5885,406.013 100.588,406.013 100.588,415.013 83.5885,415.013 " stroke="black" stroke-width="0.5" fill="green"/>
<polygon points="100.588,406.013 117.588,406.013 117.588,415.013 100.588,415.013 " stroke="black" stroke-width="0.5" fill="green"/>
<polygon points="117.588,406.013 134.588,406.013 134.588,415.013 117.588,415.013 " stroke="black" stroke-width="0.5" fill="green"/>
<polygon points="134.588,406.013 151.588,406.013 151.588,415.013 134.588,415.013 " stroke="black" stroke-width="0.5" fill="green"/>
<polygon points="151.588,406.013 168.588,406.013 168.588,415.013 151.588,415.013 " stroke="black" stroke-width="0.5" fill="green"/>
<polygon points="168.588,406.013 185.588,406.013 185.588,415.013 168.588,415.013 " stroke="black" stroke-width="0.5" fill="green"/>
<polygon points="185.588,406.013 202.588,406.013 202.588,415.013 185.588,415.013 " stroke="black" stroke-width="0.5" fill="green"/>
<polygon points="202.588,406.013 219.588,406.013 219.588,415.013 202.588,415.013 " stroke="black" stroke-width="0.5" fill="green"/>
<polygon points="219.588,406.013 236.588,406.013 236.588,415.013 219.588,415.013 " stroke="black" stroke-width="0.5" fill="green"/>
<polygon points="236.588,406.013 253.588,406.013 253.588,415.013 236.588,415.013 " stroke="black" stroke-width="0.5" fill="green"/>
<polygon points="253.588,406.013 270.588,406.013 270.588,415.013 253.588,415.013 " stroke="black" stroke-width="0.5" fill="green"/>
<polygon points="270.588,406.013 287.588,406.013 287.588,415.013 270.588,415.013 " stroke="black" stroke-width="0.5" fill="green"/>
<polygon points="287.588,406.013 304.588,406.013 304.588,415.013 287.588,415.013 " stroke="black" stroke-width="0.5" fill="green"/>
<polygon points="304.588,406.013 321.588,406.013 321.588,415.013 304.588,415.013 " stroke="black" stroke-width="0.5" fill="green"/>
<polygon points="321.588,406.013 338.588,406.013 338.588,415.013 321.588,415.013 " stroke="black" stroke-width="0.5" fill="green"/>
<polygon points="338.588,406.013 355.588,406.013 355.588,415.013 338.588,415.013 " stroke="black" stroke-width="0.5" fill="green"/>
<polygon points="355.588,406.013 372.588,406.013 372.588,415.013 355.588,415.013 " stroke="black" stroke-width="0.5" fill="green"/>
<polygon points="372.588,406.013 389.588,406.013 389.588,415.013 372.588,415.013 " stroke="black" stroke-width="0.5" fill="green"/>
<polygon points="389.588,406.013 406.588,406.013 406.588,415.013 389.588,415.013 " stroke="black" stroke-width="0.5" fill="green"/>
<polygon points="406.588,406.013 423.588,406.013 423.588,415.013 406.588,415.013 " stroke="black" stroke-width="0.5" fill="green"/>
<polygon points="423.588,406.013 440.588,406.013 440.588,415.013 423.588,415.013 " stroke="black" stroke-width="0.5" fill="green"/>
<polygon points="440.588,406.013 457.588,406.013 457.588,415.013 440.588,415.013 " stroke="black" stroke-width="0.5" fill="green"/>
<polygon points="457.588,406.013 474.588,406.013 474.588,415.013 457.588,415.013 " stroke="black" stroke-width="0.5" fill="green"/>
<polygon points="20.7846,397.013 37.7846,397.013 37.7846,406.013 20.7846,406.013 " stroke="black" stroke-width="0.5" fill="green"/>
<polygon points="37.7846,397.013 54.7846,397.013 54.7846,406.013 37.7846,406.013 " stroke="black" stroke-width="0.5" fill="green"/>
<polygon points="54.7846,397.013 71.7846,397.013 71.7846,406.013 54.7846,406.013 " stroke="black" stroke-width="0.5" fill="green"/>
<polygon points="71.7846,397.013 88.7846,397.013 88.7846,406.013 71.7846,406.013 " stroke="black" stroke-width="0.5" fill="green"/>
<polygon points="88.7846,397.013 105.785,397.013 105.785,406.013 88.7846,406.013 " stroke="black" stroke-width="0.5" fill="green"/>
<polygon points="105.785,397.013 122.785,397.013 122.785,406.013 105.785,406.013 " stroke="black" stroke-width="0.5" fill="green"/>
<polygon points="122.785,397.013 139.785,397.013 139.785,406.013 122.785,406.013 " stroke="black" stroke-width="0.5" fill="green"/>
<polygon points="139.785,397.013 156.785,397.013 156.785,406.013 139.785,406.013 " stroke="black" stroke-width="0.5" fill="green"/>
<polygon points="156.785,397.013 173.785,397.013 173.785,406.013 156.785,406.013 " stroke="black" stroke-width="0.5" fill="green"/>
<polygon points="173.785,397.013 190.785,397.013 190.785,406.013 173.785,406.013 " stroke="black" stroke-width="0.5" fill="green"/>
<polygon points="190.785,397.013 207.785,397.013 207.785,406.013 190.785,406.013 " stroke="black" stroke-width="0.5" fill="green"/>
<polygon points="207.785,397.013 224.785,397.013 224.785,406.013 207.785,406.013 " stroke="black" stroke-width="0.5" fill="green"/>
<polygon points="224.785,397.013 241.785,397.013 241.785,406.013 224.785,406.013 " stroke="black" stroke-width="0.5" fill="green"/>
<polygon points="241.785,397.013 258.785,397.013 258.785,406.013 241.785,406.013 " stroke="black" stroke-width="0.5" fill="green"/>
<polygon points="258.785,397.013 275.785,397.013 275.785,406.013 258.785,406.013 " stroke="black" stroke-width="0.5" fill="green"/>
<polygon points="275.785,397.013 292.785,397.013 292.785,406.013 275.785,406.013 " stroke="black" stroke-width="0.5" fill="green"/>
<polygon points="292.785,397.013 309.785,397.013 309.785,406.013 292.785,406.013 " stroke="black" stroke-width="0.5" fill="green"/>
<polygon points="309.785,397.013 326.785,397.013 326.785,406.013 309.785,406.013 " stroke="black" stroke-width="0.5" fill="green"/>
<polygon points="326.785,397.013 343.785,397.013 343.785,406.013 326.785,406.013 " stroke="black" stroke-width="0.5" fill="green"/>
<polygon points="343.785,397.013 360.785,397.013 360.785,406.013 343.785,406.013 " stroke="black" stroke-width="0.5" fill="green"/>
<polygon points="360.785,397.013 377.785,397.013 377.785,406.013 360.785,406.013 " stroke="black" stroke-width="0.5" fill="green"/>
<polygon points="377.785,397.013 394.785,397.013 394.785,406.013 377.785,406.013 " stroke="black" stroke-width="0.5" fill="green"/>
<polygon points="394.785,397.013 411.785,397.013 411.785,406.013 394.785,406.013 " stroke="black" stroke-width="0.5" fill="green"/>
<polygon points="411.785,397.013 428.785,397.013 428.785,406.013 411.785,406.013 " stroke="black" stroke-width="0.5" fill="green"/>
<polygon points="428.785,397.013 445.785,397.013 445.785,406.013 428.785,406.013 " stroke="black" stroke-width="0.5" fill="green"/>
<polygon points="445.785,397.013 462.785,397.013 462.785,406.013 445.785,406.013 " stroke="black" stroke-width="0.5" fill="green"/>
<polygon points="25.9808,388.013 42.9808,388.013 42.9808,397.013 25.9808,397.013 " stroke="black" stroke-width="0.5" fill="green"/>
<polygon points="42.9808,388.013 59.9808,388.013 59.9808,397.013 42.9808,397.013 " stroke="black" stroke-width="0.5" fill="green"/>
<polygon points="59.9808,388.013 76.9808,388.013 76.9808,397.013 59.9808,397.013 " stroke="black" stroke-width="0.5" fill="green"/>
<polygon points="76.9808,388.013 93.9808,388.013 93.9808,397.013 76.9808,397.013 " stroke="black" stroke-width="0.5" fill="green"/>
<polygon points="93.9808,388.013 110.981,388.013 110.981,397.013 93.9808,397.013 " stroke="black" stroke-width="0.5" fill="green"/>
<polygon points="110.981,388.013 127.981,388.013 127.981,397.013 110.981,397.013 " stroke="black" stroke-width="0.5" fill="green"/>
<polygon points="127.981,388.013 144.981,388.013 144.981,397.013 127.981,397.013 " stroke="black" stroke-width="0.5" fill="green"/>
<polygon points="144.981,388.013 161.981,388.013 161.981,397.013 144.981,397.013 " stroke="black" stroke-width="0.5" fill="green"/>
<polygon points="161.981,388.013 178.981,388.013 178.981,397.013 161.981,397.013 " stroke="black" stroke-width="0.5" fill="green"/>
<polygon points="178.981,388.013 195.981,388.013 195.981,397.013 178.981,397.013 " stroke="black" stroke-width="0.5" fill="green"/>
<polygon points="195.981,388.013 212.981,388.013 212.981,397.013 195.981,397.013 " stroke="black" stroke-width="0.5" fill="green"/>
<polygon points="212.981,388.013 229.981,388.013 229.981,397.013 212.981,397.013 " stroke="black" stroke-width="0.5" fill="green"/>
<polygon points="229.981,388.013 246.981,388.013 246.981,397.013 229.981,397.013 " stroke="black" stroke-width="0.5" fill="green"/>
<polygon points="246.981,388.013 263.981,388.013 263.981,397.013 246.981,397.013 " stroke="black" stroke-width="0.5" fill="green"/>
<polygon points="263.981,388.013 280.981,388.013 280.981,397.013 263.981,397.013 " stroke="black" stroke-width="0.5" fill="green"/>
<polygon points="280.981,388.013 297.981,388.013 297.981,397.013 280.981,397.013 " stroke="black" stroke-width="0.5" fill="green"/>
<polygon points="297.981,388.013 314.981,388.013 314.981,397.013 297.981,397.013 " stroke="black" stroke-width="0.5" fill="green"/>
<polygon points="314.981,388.013 331.981,388.013 331.981,397.013 314.981,397.013 " stroke="black" stroke-width="0.5" fill="green"/>
<polygon points="331.981,388.013 348.981,388.013 348.981,397.013 331.981,397.013 " stroke="black" stroke-width="0.5" fill="green"/>
<polygon points="348.981,388.013 365.981,388.013 365.981,397.013 348.981,397.013 " stroke="black" stroke-width="0.5" fill="green"/>
<polygon points="365.981,388.013 382.981,388.013 382.981,397.013 365.981,397.013 " stroke="black" stroke-width="0.5" fill="green"/>
<polygon points="382.981,388.013 399.981,388.013 399.981,397.013 382.981,397.013 " stroke="black" stroke-width="0.5" fill="green"/>
<polygon points="399.981,388.013 416.981,388.013 416.981,397.013 399.981,397.013 " stroke="black" stroke-width="0.5" fill="green"/>
<polygon points="416.981,388.013 433.981,388.013 433.981,397.013 416.981,397.013 " stroke="black" stroke-width="0.5" fill="green"/>
<polygon points="433.981,388.013 450.981,388.013 450.981,397.013 433.981,397.013 " stroke="black" stroke-width="0.5" fill="green"/>
<polygon points="450.981,388.013 467.981,388.013 467.981,397.013 450.981,397.013 " stroke="black" stroke-width="0.5" fill="green"/>
<polygon points="31.1769,379.013 48.1769,379.013 48.1769,388.013 31.1769,388.013 " stroke="black" stroke-width="0.5" fill="green"/>
<polygon points="48.1769,379.013 65.1769,379.013 65.1769,388.013 48.1769,388.013 " stroke="black" stroke-width="0.5" fill="green"/>
<polygon points="65.1769,379.013 82.1769,379.013 82.1769,388.013 65.1769,388.013 " stroke="black" stroke-width="0.5" fill="green"/>
<polygon points="82.1769,379.013 99.1769,379.013 99.1769,388.013 82.1769,388.013 " stroke="black" stroke-width="0.5" fill="green"/>
<polygon points="99.1769,379.013 116.177,379.013 116.177,388.013 99.1769,388.013 " stroke="black" stroke-width="0.5" fill="green"/>
<polygon points="116.177,379.013 133.177,379.013 133.177,388.013 116.177,388.013 " stroke="black" stroke-width="0.5" fill="green"/>
<polygon points="133.177,379.013 150.177,379.013 150.177,388.013 133.177,388.013 " stroke="black" stroke-width="0.5" fill="green"/>
<polygon points="150.177,379.013 167.177,379.013 167.177,388.013 150.177,388.013 " stroke="black" stroke-width="0.5" fill="green"/>
<polygon points="167.177,379.013 184.177,379.013 184.177,388.013 167.177,388.013 " stroke="black" stroke-width="0.5" fill="green"/>
<polygon points="184.177,379.013 201.177,379.013 201.177,388.013 184.177,388.013 " stroke="black" stroke-width="0.5" fill="green"/>
<polygon points="201.177,379.013 218.177,379.013 218.177,388.013 201.177,388.013 " stroke="black" stroke-width="0.5" fill="green"/>
<polygon points="218.177,379.013 235.177,379.013 235.177,388.013 218.177,388.013 " stroke="black" stroke-width="0.5" fill="green"/>
<polygon points="235.177,379.013 252.177,379.013 252.177,388.013 235.177,388.013 " stroke="black" stroke-width="0.5" fill="green"/>
<polygon points="252.177,379.013 269.177,379.013 269.177,388.013 252.177,388.013 " stroke="black" stroke-width="0.5" fill="green"/>
<polygon points="269.177,379.013 286.177,379.013 286.177,388.013 269.177,388.013 " stroke="black" stroke-width="0.5" fill="green"/>
<polygon points="286.177,379.013 303.177,379.013 303.177,388.013 286.177,388.013 " stroke="black" stroke-width="0.5" fill="green"/>
<polygon points="303.177,379.013 320.177,379.013 320.177,388.013 303.177,388.013 " stroke="black" stroke-width="0.5" fill="green"/>
<polygon points="320.177,379.013 337.177,379.013 337.177,388.013 320.177,388.013 " stroke="black" stroke-width="0.5" fill="green"/>
<polygon points="337.177,379.013 354.177,379.013 354.177,388.013 337.177,388.013 " stroke="black" stroke-width="0.5" fill="green"/>
<polygon points="354.177,379.013 371.177,379.013 371.177,388.013 354.177,388.013 " stroke="black" stroke-width="0.5" fill="green"/>
<polygon points="371.177,379.013 388.177,379.013 388.177,388.013 371.177,388.013 " stroke="black" stroke-width="0.5" fill="green"/>
<polygon points="388.177,379.013 405.177,379.013 405.177,388.013 388.177,388.013 " stroke="black" stroke-width="0.5" fill="green"/>
<polygon points="405.177,379.013 422.177,379.013 422.177,388.013 405.177,388.013 " stroke="black" stroke-width="0.5" fill="green"/>
<polygon points="422.177,379.013 439.177,379.013 439.177,388.013 422.177,388.013 " stroke="black" stroke-width="0.5" fill="green"/>
<polygon points="439.177,379.013 456.177,379.013 456.177,388.013 439.177,388.013 " stroke="black" stroke-width="0.5" fill="green"/>
<polygon points="36.3731,370.013 53.3731,370.013 53.3731,379.013 36.3731,379.013 " stroke="black" stroke-width="0.5" fill="green"/>
<polygon points="53.3731,370.013 70.3731,370.013 70.3731,379.013 53.3731,379.013 " stroke="black" stroke-width="0.5" fill="green"/>
<polygon points="70.3731,370.013 87.3731,370.013 87.3731,379.013 70.3731,379.013 " stroke="black" stroke-width="0.5" fill="green"/>
<polygon points="87.3731,370.013 104.373,370.013 104.373,379.013 87.3731,379.013 " stroke="black" stroke-width="0.5" fill="green"/>
<polygon points="104.373,370.013 121.373,370.013 121.373,379.013 104.373,379.013 " stroke="black" stroke-width="0.5" fill="green"/>
<polygon points="121.373,370.013 138.373,370.013 138.373,379.013 121.373,379.013 " stroke="black" stroke-width="0.5" fill="green"/>
<polygon points="138.373,370.013 155.373,370.013 155.373,379.013 138.373,379.013 " stroke="black" stroke-width="0.5" fill="green"/>
<polygon points="155.373,370.013 172.373,370.013 172.373,379.013 155.373,379.013 " stroke="black" stroke-width="0.5" fill="green"/>
<polygon points="172.373,370.013 189.373,370.013 189.373,379.013 172.373,379.013 " stroke="black" stroke-width="0.5" fill="green"/>
<polygon points="189.373,370.013 206.373,370.013 206.373,379.013 189.373,379.013 " stroke="black" stroke-width="0.5" fill="green"/>
<polygon points="206.373,370.013 223.373,370.013 223.373,379.013 206.373,379.013 " stroke="black" stroke-width="0.5" fill="green"/>
<polygon points="223.373,370.013 240.373,370.013 240.373,379.013 223.373,379.013 " stroke="black" stroke-width="0.5" fill="green"/>
<polygon points="240.373,370.013 257.373,370.013 257.373,379.013 240.373,379.013 " stroke="black" stroke-width="0.5" fill="green"/>
<polygon points="257.373,370.013 274.373,370.013 274.373,379.013 257.373,379.013 " stroke="black" stroke-width="0.5" fill="green"/>
<polygon points="274.373,370.013 291.373,370.013 291.373,379.013 274.373,379.013 " stroke="black" stroke-width="0.5" fill="green"/>
<polygon points="291.373,370.013 308.373,370.013 308.373,379.013 291.373,379.013 " stroke="black" stroke-width="0.5" fill="green"/>
<polygon points="308.373,370.013 325.373,370.013 325.373,379.013 308.373,379.013 " stroke="black" stroke-width="0.5" fill="green"/>
<polygon points="325.373,370.013 342.373,370.013 342.373,379.013 325.373,379.013 " stroke="black" stroke-width="0.5" fill="green"/>
<polygon points="342.373,370.013 359.373,370.013 359.373,379.013 342.373,379.013 " stroke="black" stroke-width="0.5" fill="green"/>
<polygon points="359.373,370.013 376.373,370.013 376.373,379.013 359.373,379.013 " stroke="black" stroke-width="0.5" fill="green"/>
<polygon points="376.373,370.013 393.373,370.013 393.373,379.013 376.373,379.013 " stroke="black" stroke-width="0.5" fill="green"/>
<polygon points="393.373,370.013 410.373,370.013 410.373,379.013 393.373,379.013 " stroke="black" stroke-width="0.5" fill="green"/>
<polygon points="410.373,370.013 427.373,370.013 427.373,379.013 410.373,379.013 " stroke="black" stroke-width="0.5" fill="green"/>
<polygon points="427.373,370.013 444.373,370.013 444.373,379.013 427.373,379.013 " stroke="black" stroke-width="0.5" fill="green"/>
<polygon points="444.373,370.013 461.373,370.013 461.373,379.013 444.373,379.013 " stroke="black" stroke-width="0.5" fill="green"/>
<polygon points="41.5692,361.013 58.5692,361.013 58.5692,370.013 41.5692,370.013 " stroke="black" stroke-width="0.5" fill="green"/>
<polygon points="58.5692,361.013 75.5692,361.013 75.5692,370.013 58.5692,370.013 " stroke="black" stroke-width="0.5" fill="green"/>
<polygon points="75.5692,361.013 92.5692,361.013 92.5692,370.013 75.5692,370.013 " stroke="black" stroke-width="0.5" fill="green"/>
<polygon points="92.5692,361.013 109.569,361.013 109.569,370.013 92.5692,370.013 " stroke="black" stroke-width="0.5" fill="green"/>
<polygon points="109.569,361.013 126.569,361.013 126.569,370.013 109.569,370.013 " stroke="black" stroke-width="0.5" fill="green"/>
<polygon points="126.569,361.013 143.569,361.013 143.569,370.013 126.569,370.013 " stroke="black" stroke-width="0.5" fill="green"/>
<polygon points="143.569,361.013 160.569,361.013 160.569,370.013 143.569,370.013 " stroke="black" stroke-width="0.5" fill="green"/>
<polygon points="160.569,361.013 177.569,361.013 177.569,370.013 160.569,370.013 " stroke="black" stroke-width="0.5" fill="green"/>
<polygon points="177.569,361.013 194.569,361.013 194.569,370.013 177.569,370.013 " stroke="black" stroke-width="0.5" fill="green"/>
<polygon points="194.569,361.013 211.569,361.013 211.569,370.013 194.569,370.013 " stroke="black" stroke-width="0.5" fill="green"/>
<polygon points="211.569,361.013 228.569,361.013 228.569,370.013 211.569,370.013 " stroke="black" stroke-width="0.5" fill="green"/>
<polygon points="228.569,361.013 245.569,361.013 245.569,370.013 228.569,370.013 " stroke="black" stroke-width="0.5" fill="green"/>
<polygon points="245.569,361.013 262.569,361.013 262.569,370.013 245.569,370.013 " stroke="black" stroke-width="0.5" fill="green"/>
<polygon points="262.569,361.013 279.569,361.013 279.569,370.013 262.569,370.013 " stroke="black" stroke-width="0.5" fill="green"/>
<polygon points="279.569,361.013 296.569,361.013 296.569,370.013 279.569,370.013 " stroke="black" stroke-width="0.5" fill="green"/>
<polygon points="296.569,361.013 313.569,361.013 313.569,370.013 296.569,370.013 " stroke="black" stroke-width="0.5" fill="green"/>
<polygon points="313.569,361.013 330.569,361.013 330.569,370.013 313.569,370.013 " stroke="black" stroke-width="0.5" fill="green"/>
<polygon points="330.569,361.013 347.569,361.013 347.569,370.013 330.569,370.013 " stroke="black" stroke-width="0.5" fill="green"/>
<polygon points="347.569,361.013 364.569,361.013 364.569,370.013 347.569,370.013 " stroke="black" stroke-width="0.5" fill="green"/>
<polygon points="364.569,361.013 381.569,361.013 381.569,370.013 364.569,370.013 " stroke="black" stroke-width="0.5" fill="green"/>
<polygon points="381.569,361.013 398.569,361.013 398.569,370.013 381.569,370.013 " stroke="black" stroke-width="0.5" fill="green"/>
<polygon points="398.569,361.013 415.569,361.013 415.569,370.013 398.569,370.013 " stroke="black" stroke-width="0.5" fill="green"/>
<polygon points="415.569,361.013 432.569,361.013 432.569,370.013 415.569,370.013 " stroke="black" stroke-width="0.5" fill="green"/>
<polygon points="432.569,361.013 449.569,361.013 449.569,370.013 432.569,370.013 " stroke="black" stroke-width="0.5" fill="green"/>
<polygon points="46.7654,352.013 63.7654,352.013 63.7654,361.013 46.7654,361.013 " stroke="black" stroke-width="0.5" fill="green"/>
<polygon points="63.7654,352.013 80.7654,352.013 80.7654,361.013 63.7654,361.013 " stroke="black" stroke-width="0.5" fill="green"/>
<polygon points="80.7654,352.013 97.7654,352.013 97.7654,361.013 80.7654,361.013 " stroke="black" stroke-width="0.5" fill="green"/>
<polygon points="97.7654,352.013 114.765,352.013 114.765,361.013 97.7654,361.013 " stroke="black" stroke-width="0.5" fill="green"/>
<polygon points="114.765,352.013 131.765,352.013 131.765,361.013 114.765,361.013 " stroke="black" stroke-width="0.5" fill="green"/>
<polygon points="131.765,352.013 148.765,352.013 148.765,361.013 131.765,361.013 " stroke="black" stroke-width="0.5" fill="green"/>
<polygon points="148.765,352.013 165.765,352.013 165.765,361.013 148.765,361.013 " stroke="black" stroke-width="0.5" fill="green"/>
<polygon points="165.765,352.013 182.765,352.013 182.765,361.013 165.765,361.013 " stroke="black" stroke-width="0.5" fill="green"/>
<polygon points="182.765,352.013 199.765,352.013 199.765,361.013 182.765,361.013 " stroke="black" stroke-width="0.5" fill="green"/>
<polygon points="199.765,352.013 216.765,352.013 216.765,361.013 199.765,361.013 " stroke="black" stroke-width="0.5" fill="green"/>
<polygon points="216.765,352.013 233.765,352.013 233.765,361.013 216.765,361.013 " stroke="black" stroke-width="0.5" fill="green"/>
<polygon points="233.765,352.013 250.765,352.013 250.765,361.013 233.765,361.013 " stroke="black" stroke-width="0.5" fill="green"/>
<polygon points="250.765,352.013 267.765,352.013 267.765,361.013 250.765,361.013 " stroke="black" stroke-width="0.5" fill="green"/>
<polygon points="267.765,352.013 284.765,352.013 284.765,361.013 267.765,361.013 " stroke="black" stroke-width="0.5" fill="green"/>
<polygon points="284.765,352.013 301.765,352.013 301.765,361.013 284.765,361.013 " stroke="black" stroke-width="0.5" fill="green"/>
<polygon points="301.765,352.013 318.765,352.013 318.765,361.013 301.765,361.013 " stroke="black" stroke-width="0.5" fill="green"/>
<polygon points="318.765,352.013 335.765,352.013 335.765,361.013 318.765,361.013 " stroke="black" stroke-width="0.5" fill="green"/>
<polygon points="335.765,352.013 352.765,352.013 352.765,361.013 335.765,361.013 " stroke="black" stroke-width="0.5" fill="green"/>
<polygon points="352.765,352.013 369.765,352.013 369.765,361.013 352.765,361.013 " stroke="black" stroke-width="0.5" fill="green"/>
<polygon points="369.765,352.013 386.765,352.013 386.765,361.013 369.765,361.013 " stroke="black" stroke-width="0.5" fill="green"/>
<polygon points="386.765,352.013 403.765,352.013 403.765,361.013 386.765,361.013 " stroke="black" stroke-width="0.5" fill="green"/>
<polygon points="403.765,352.013 420.765,352.013 420.765,361.013 403.765,361.013 " stroke="black" stroke-width="0.5" fill="green"/>
<polygon points="420.765,352.013 437.765,352.013 437.765,361.013 420.765,361.013 " stroke="black" stroke-width="0.5" fill="green"/>
<polygon points="51.9615,343.013 68.9615,343.013 68.9615,352.013 51.9615,352.013 " stroke="black" stroke-width="0.5" fill="green"/>
<polygon points="68.9615,343.013 85.9615,343.013 85.9615,352.013 68.9615,352.013 " stroke="black" stroke-width="0.5" fill="green"/>
<polygon points="85.9615,343.013 102.962,343.013 102.962,352.013 85.9615,352.013 " stroke="black" stroke-width="0.5" fill="green"/>
<polygon points="102.962,343.013 119.962,343.013 119.962,352.013 102.962,352.013 " stroke="black" stroke-width="0.5" fill="green"/>
<polygon points="119.962,343.013 136.962,343.013 136.962,352.013 119.962,352.013 " stroke="black" stroke-width="0.5" fill="green"/>
<polygon points="136.962,343.013 153.962,343.013 153.962,352.013 136.962,352.013 " stroke="black" stroke-width="0.5" fill="green"/>
<polygon points="153.962,343.013 170.962,343.013 170.962,352.013 153.962,352.013 " stroke="black" stroke-width="0.5" fill="green"/>
<polygon points="170.962,343.013 187.962,343.013 187.962,352.013 170.962,352.013 " stroke="black" stroke-width="0.5" fill="green"/>
<polygon points="187.962,343.013 204.962,343.013 204.962,352.013 187.962,352.013 " stroke="black" stroke-width="0.5" fill="green"/>
<polygon points="204.962,343.013 221.962,343.013 221.962,352.013 204.962,352.013 " stroke="black" stroke-width="0.5" fill="green"/>
<polygon points="221.962,343.013 238.962,343.013 238.962,352.013 221.962,352.013 " stroke="black" stroke-width="0.5" fill="green"/>
<polygon points="238.962,343.013 255.962,343.013 255.962,352.013 238.962,352.013 " stroke="black" stroke-width="0.5" fill="green"/>
<polygon points="255.962,343.013 272.962,343.013 272.962,352.013 255.962,352.013 " stroke="black" stroke-width="0.5" fill="green"/>
<polygon points="272.962,343.013 289.962,343.013 289.962,352.013 272.962,352.013 " stroke="black" stroke-width="0.5" fill="green"/>
<polygon points="289.962,343.013 306.962,343.013 306.962,352.013 289.962,352.013 " stroke="black" stroke-width="0.5" fill="green"/>
<polygon points="306.962,343.013 323.962,343.013 323.962,352.013 306.962,352.013 " stroke="black" stroke-width="0.5" fill="green"/>
<polygon points="323.962,343.013 340.962,343.013 340.962,352.013 323.962,352.013 " stroke="black" stroke-width="0.5" fill="green"/>
<polygon points="340.962,343.013 357.962,343.013 357.962,352.013 340.962,352.013 " stroke="black" stroke-width="0.5" fill="green"/>
<polygon points="357.962,343.013 374.962,343.013 374.962,352.013 357.962,352.013 " stroke="black" stroke-width="0.5" fill="green"/>
<polygon points="374.962,343.013 391.962,343.013 391.962,352.013 374.962,352.013 " stroke="black" stroke-width="0.5" fill="green"/>
<polygon points="391.962,343.013 408.962,343.013 408.962,352.013 391.962,352.013 " stroke="black" stroke-width="0.5" fill="green"/>
<polygon points="408.962,343.013 425.962,343.013 425.962,352.013 408.962,352.013 " stroke="black" stroke-width="0.5" fill="green"/>
<polygon points="425.962,343.013 442.962,343.013 442.962,352.013 425.962,352.013 " stroke="black" stroke-width="0.5" fill="green"/>
<polygon points="57.1577,334.013 74.1577,334.013 74.1577,343.013 57.1577,343.013 " stroke="black" stroke-width="0.5" fill="green"/>
<polygon points="74.1577,334.013 91.1577,334.013 91.1577,343.013 74.1577,343.013 " stroke="black" stroke-width="0.5" fill="green"/>
<polygon points="91.1577,334.013 108.158,334.013 108.158,343.013 91.1577,343.013 " stroke="black" stroke-width="0.5" fill="green"/>
<polygon points="108.158,334.013 125.158,334.013 125.158,343.013 108.158,343.013 " stroke="black" stroke-width="0.5" fill="green"/>
<polygon points="125.158,334.013 142.158,334.013 142.158,343.013 125.158,343.013 " stroke="black" stroke-width="0.5" fill="green"/>
<polygon points="142.158,334.013 159.158,334.013 159.158,343.013 142.158,343.013 " stroke="black" stroke-width="0.5" fill="green"/>
<polygon points="159.158,334.013 176.158,334.013 176.158,343.013 159.158,343.013 " stroke="black" stroke-width="0.5" fill="green"/>
<polygon points="176.158,334.013 193.158,334.013 193.158,343.013 176.158,343.013 " stroke="black" stroke-width="0.5" fill="green"/>
<polygon points="193.158,334.013 210.158,334.013 210.158,343.013 193.158,343.013 " stroke="black" stroke-width="0.5" fill="green"/>
<polygon points="210.158,334.013 227.158,334.013 227.158,343.013 210.158,343.013 " stroke="black" stroke-width="0.5" fill="green"/>
<polygon points="227.158,334.013 244.158,334.013 244.158,343.013 227.158,343.013 " stroke="black" stroke-width="0.5" fill="green"/>
<polygon points="244.158,334.013 261.158,334.013 261.158,343.013 244.158,343.013 " stroke="black" stroke-width="0.5" fill="green"/>
<polygon points="261.158,334.013 278.158,334.013 278.158,343.013 261.158,343.013 " stroke="black" stroke-width="0.5" fill="green"/>
<polygon points="278.158,334.013 295.158,334.013 295.158,343.013 278.158,343.013 " stroke="black" stroke-width="0.5" fill="green"/>
<polygon points="295.158,334.013 312.158,334.013 312.158,343.013 295.158,343.013 " stroke="black" stroke-width="0.5" fill="green"/>
<polygon points="312.158,334.013 329.158,334.013 329.158,343.013 312.158,343.013 " stroke="black" stroke-width="0.5" fill="green"/>
<polygon points="329.158,334.013 346.158,334.013 346.158,343.013 329.158,343.013 " stroke="black" stroke-width="0.5" fill="green"/>
<polygon points="346.158,334.013 363.158,334.013 363.158,343.013 346.158,343.013 " stroke="black" stroke-width="0.5" fill="green"/>
<polygon points="363.158,334.013 380.158,334.013 380.158,343.013 363.158,343.013 " stroke="black" stroke-width="0.5" fill="green"/>
<polygon points="380.158,334.013 397.158,334.013 397.158,343.013 380.158,343.013 " stroke="black" stroke-width="0.5" fill="green"/>
<polygon points="397.158,334.013 414.158,334.013 414.158,343.013 397.158,343.013 " stroke="black" stroke-width="0.5" fill="green"/>
<polygon points="414.158,334.013 431.158,334.013 431.158,343.013 414.158,343.013 " stroke="black" stroke-width="0.5" fill="green"/>
<polygon points="62.3538,325.013 79.3538,325.013 79.3538,334.013 62.3538,334.013 " stroke="black" stroke-width="0.5" fill="green"/>
<polygon points="79.3538,325.013 96.3538,325.013 96.3538,334.013 79.3538,334.013 " stroke="black" stroke-width="0.5" fill="green"/>
<polygon points="96.3538,325.013 113.354,325.013 113.354,334.013 96.3538,334.013 " stroke="black" stroke-width="0.5" fill="green"/>
<polygon points="113.354,325.013 130.354,325.013 130.354,334.013 113.354,334.013 " stroke="black" stroke-width="0.5" fill="green"/>
<polygon points="130.354,325.013 147.354,325.013 147.354,334.013 130.354,334.013 " stroke="black" stroke-width="0.5" fill="green"/>
<polygon points="147.354,325.013 164.354,325.013 164.354,334.013 147.354,334.013 " stroke="black" stroke-width="0.5" fill="green"/>
<polygon points="164.354,325.013 181.354,325.013 181.354,334.013 164.354,334.013 " stroke="black" stroke-width="0.5" fill="green"/>
<polygon points="181.354,325.013 198.354,325.013 198.354,334.013 181.354,334.013 " stroke="black" stroke-width="0.5" fill="green"/>
<polygon points="198.354,325.013 215.354,325.013 215.354,334.013 198.354,334.013 " stroke="black" stroke-width="0.5" fill="green"/>
<polygon points="215.354,325.013 232.354,325.013 232.354,334.013 215.354,334.013 " stroke="black" stroke-width="0.5" fill="green"/>
<polygon points="232.354,325.013 249.354,325.013 249.354,334.013 232.354,334.013 " stroke="black" stroke-width="0.5" fill="green"/>
<polygon points="249.354,325.013 266.354,325.013 266.354,334.013 249.354,334.013 " stroke="black" stroke-width="0.5" fill="green"/>
<polygon points="266.354,325.013 283.354,325.013 283.354,334.013 266.354,334.013 " stroke="black" stroke-width="0.5" fill="green"/>
<polygon points="283.354,325.013 300.354,325.013 300.354,334.013 283.354,334.013 " stroke="black" stroke-width="0.5" fill="green"/>
<polygon points="300.354,325.013 317.354,325.013 317.354,334.013 300.354,334.013 " stroke="black" stroke-width="0.5" fill="green"/>
<polygon points="317.354,325.013 334.354,325.013 334.354,334.013 317.354,334.013 " stroke="black" stroke-width="0.5" fill="green"/>
<polygon points="334.354,325.013 351.354,325.013 351.354,334.013 334.354,334.013 " stroke="black" stroke-width="0.5" fill="green"/>
<polygon points="351.354,325.013 368.354,325.013 368.354,334.013 351.354,334.013 " stroke="black" stroke-width="0.5" fill="green"/>
<polygon points="368.354,325.013 385.354,325.013 385.354,334.013 368.354,334.013 " stroke="black" stroke-width="0.5" fill="green"/>
<polygon points="385.354,325.013 402.354,325.013 402.354,334.013 385.354,334.013 " stroke="black" stroke-width="0.5" fill="green"/>
<polygon points="402.354,325.013 419.354,325.013 419.354,334.013 402.354,334.013 " stroke="black" stroke-width="0.5" fill="green"/>
<polygon points="419.354,325.013 436.354,325.013 436.354,334.013 419.354,334.013 " stroke="black" stroke-width="0.5" fill="green"/>
<polygon points="67.55,316.013 84.55,316.013 84.55,325.013 67.55,325.013 " stroke="black" stroke-width="0.5" fill="green"/>
<polygon points="84.55,316.013 101.55,316.013 101.55,325.013 84.55,325.013 " stroke="black" stroke-width="0.5" fill="green"/>
<polygon points="101.55,316.013 118.55,316.013 118.55,325.013 101.55,325.013 " stroke="black" stroke-width="0.5" fill="green"/>
<polygon points="118.55,316.013 135.55,316.013 135.55,325.013 118.55,325.013 " stroke="black" stroke-width="0.5" fill="green"/>
<polygon points="135.55,316.013 152.55,316.013 152.55,325.013 135.55,325.013 " stroke="black" stroke-width="0.5" fill="green"/>
<polygon points="152.55,316.013 169.55,316.013 169.55,325.013 152.55,325.013 " stroke="black" stroke-width="0.5" fill="green"/>
<polygon points="169.55,316.013 186.55,316.013 186.55,325.013 169.55,325.013 " stroke="black" stroke-width="0.5" fill="green"/>
<polygon points="186.55,316.013 203.55,316.013 203.55,325.013 186.55,325.013 " stroke="black" stroke-width="0.5" fill="green"/>
<polygon points="203.55,316.013 220.55,316.013 220.55,325.013 203.55,325.013 " stroke="black" stroke-width="0.5" fill="green"/>
<polygon points="220.55,316.013 237.55,316.013 237.55,325.013 220.55,325.013 " stroke="black" stroke-width="0.5" fill="green"/>
<polygon points="237.55,316.013 254.55,316.013 254.55,325.013 237.55,325.013 " stroke="black" stroke-width="0.5" fill="green"/>
<polygon points="254.55,316.013 271.55,316.013 271.55,325.013 254.55,325.013 " stroke="black" stroke-width="0.5" fill="green"/>
<polygon points="271.55,316.013 288.55,316.013 288.55,325.013 271.55,325.013 " stroke="black" stroke-width="0.5" fill="green"/>
<polygon points="288.55,316.013 305.55,316.013 305.55,325.013 288.55,325.013 " stroke="black" stroke-width="0.5" fill="green"/>
<polygon points="305.55,316.013 322.55,316.013 322.55,325.013 305.55,325.013 " stroke="black" stroke-width="0.5" fill="green"/>
<polygon points="322.55,316.013 339.55,316.013 339.55,325.013 322.55,325.013 " stroke="black" stroke-width="0.5" fill="green"/>
<polygon points="339.55,316.013 356.55,316.013 356.55,325.013 339.55,325.013 " stroke="black" stroke-width="0.5" fill="green"/>
<polygon points="356.55,316.013 373.55,316.013 373.55,325.013 356.55,325.013 " stroke="black" stroke-width="0.5" fill="green"/>
<polygon points="373.55,316.013 390.55,316.013 390.55,325.013 373.55,325.013 " stroke="black" stroke-width="0.5" fill="green"/>
<polygon points="390.55,316.013 407.55,316.013 407.55,325.013 390.55,325.013 " stroke="black" stroke-width="0.5" fill="green"/>
<polygon points="407.55,316.013 424.55,316.013 424.55,325.013 407.55,325.013 " stroke="black" stroke-width="0.5" fill="green"/>
<polygon points="72.7461,307.013 89.7461,307.013 89.7461,316.013 72.7461,316.013 " stroke="black" stroke-width="0.5" fill="green"/>
<polygon points="89.7461,307.013 106.746,307.013 106.746,316.013 89.7461,316.013 " stroke="black" stroke-width="0.5" fill="green"/>
<polygon points="106.746,307.013 123.746,307.013 123.746,316.013 106.746,316.013 " stroke="black" stroke-width="0.5" fill="green"/>
<polygon points="123.746,307.013 140.746,307.013 140.746,316.013 123.746,316.013 " stroke="black" stroke-width="0.5" fill="green"/>
<polygon points="140.746,307.013 157.746,307.013 157.746,316.013 140.746,316.013 " stroke="black" stroke-width="0.5" fill="green"/>
<polygon points="157.746,307.013 174.746,307.013 174.746,316.013 157.746,316.013 " stroke="black" stroke-width="0.5" fill="green"/>
<polygon points="174.746,307.013 191.746,307.013 191.746,316.013 174.746,316.013 " stroke="black" stroke-width="0.5" fill="green"/>
<polygon points="191.746,307.013 208.746,307.013 208.746,316.013 191.746,316.013 " stroke="black" stroke-width="0.5" fill="green"/>
<polygon points="208.746,307.013 225.746,307.013 225.746,316.013 208.746,316.013 " stroke="black" stroke-width="0.5" fill="green"/>
<polygon points="225.746,307.013 242.746,307.013 242.746,316.013 225.746,316.013 " stroke="black" stroke-width="0.5" fill="green"/>
<polygon points="242.746,307.013 259.746,307.013 259.746,316.013 242.746,316.013 " stroke="black" stroke-width="0.5" fill="green"/>
<polygon points="259.746,307.013 276.746,307.013 276.746,316.013 259.746,316.013 " stroke="black" stroke-width="0.5" fill="green"/>
<polygon points="276.746,307.013 293.746,307.013 293.746,316.013 276.746,316.013 " stroke="black" stroke-width="0.5" fill="green"/>
<polygon points="293.746,307.013 310.746,307.013 310.746,316.013 293.746,316.013 " stroke="black" stroke-width="0.5" fill="green"/>
<polygon points="310.746,307.013 327.746,307.013 327.746,316.013 310.746,316.013 " stroke="black" stroke-width="0.5" fill="green"/>
<polygon points="327.746,307.013 344.746,307.013 344.746,316.013 327.746,316.013 " stroke="black" stroke-width="0.5" fill="green"/>
<polygon points="344.746,307.013 361.746,307.013 361.746,316.013 344.746,316.013 " stroke="black" stroke-width="0.5" fill="green"/>
<polygon points="361.746,307.013 378.746,307.013 378.746,316.013 361.746,316.013 " stroke="black" stroke-width="0.5" fill="green"/>
<polygon points="378.746,307.013 395.746,307.013 395.746,316.013 378.746,316.013 " stroke="black" stroke-width="0.5" fill="green"/>
<polygon points="395.746,307.013 412.746,307.013 412.746,316.013 395.746,316.013 " stroke="black" stroke-width="0.5" fill="green"/>
<polygon points="77.9423,298.013 94.9423,298.013 94.9423,307.013 77.9423,307.013 " stroke="black" stroke-width="0.5" fill="green"/>
<polygon points="94.9423,298.013 111.942,298.013 111.942,307.013 94.9423,307.013 " stroke="black" stroke-width="0.5" fill="green"/>
<polygon points="111.942,298.013 128.942,298.013 128.942,307.013 111.942,307.013 " stroke="black" stroke-width="0.5" fill="green"/>
<polygon points="128.942,298.013 145.942,298.013 145.942,307.013 128.942,307.013 " stroke="black" stroke-width="0.5" fill="green"/>
<polygon points="145.942,298.013 162.942,298.013 162.942,307.013 145.942,307.013 " stroke="black" stroke-width="0.5" fill="green"/>
<polygon points="162.942,298.013 179.942,298.013 179.942,307.013 162.942,307.013 " stroke="black" stroke-width="0.5" fill="green"/>
<polygon points="179.942,298.013 196.942,298.013 196.942,307.013 179.942,307.013 " stroke="black" stroke-width="0.5" fill="green"/>
<polygon points="196.942,298.013 213.942,298.013 213.942,307.013 196.942,307.013 " stroke="black" stroke-width="0.5" fill="green"/>
<polygon points="213.942,298.013 230.942,298.013 230.942,307.013 213.942,307.013 " stroke="black" stroke-width="0.5" fill="green"/>
<polygon points="230.942,298.013 247.942,298.013 247.942,307.013 230.942,307.013 " stroke="black" stroke-width="0.5" fill="green"/>
<polygon points="247.942,298.013 264.942,298.013 264.942,307.013 247.942,307.013 " stroke="black" stroke-width="0.5" fill="green"/>
<polygon points="264.942,298.013 281.942,298.013 281.942,307.013 264.942,307.013 " stroke="black" stroke-width="0.5" fill="green"/>
<polygon points="281.942,298.013 298.942,298.013 298.942,307.013 281.942,307.013 " stroke="black" stroke-width="0.5" fill="green"/>
<polygon points="298.942,298.013 315.942,298.013 315.942,307.013 298.942,307.013 " stroke="black" stroke-width="0.5" fill="green"/>
<polygon points="315.942,298.013 332.942,298.013 332.942,307.013 315.942,307.013 " stroke="black" stroke-width="0.5" fill="green"/>
<polygon points="332.942,298.013 349.942,298.013 349.942,307.013 332.942,307.013 " stroke="black" stroke-width="0.5" fill="green"/>
<polygon points="349.942,298.013 366.942,298.013 366.942,307.013 349.942,307.013 " stroke="black" stroke-width="0.5" fill="green"/>
<polygon points="366.942,298.013 383.942,298.013 383.942,307.013 366.942,307.013 " stroke="black" stroke-width="0.5" fill="green"/>
<polygon points="383.942,298.013 400.942,298.013 400.942,307.013 383.942,307.013 " stroke="black" stroke-width="0.5" fill="green"/>
<polygon points="400.942,298.013 417.942,298.013 417.942,307.013 400.942,307.013 " stroke="black" stroke-width="0.5" fill="green"/>
<polygon points="83.1384,289.013 100.138,289.013 100.138,298.013 83.1384,298.013 " stroke="black" stroke-width="0.5" fill="green"/>
<polygon points="100.138,289.013 117.138,289.013 117.138,298.013 100.138,298.013 " stroke="black" stroke-width="0.5" fill="green"/>
<polygon points="117.138,289.013 134.138,289.013 134.138,298.013 117.138,298.013 " stroke="black" stroke-width="0.5" fill="green"/>
<polygon points="134.138,289.013 151.138,289.013 151.138,298.013 134.138,298.013 " stroke="black" stroke-width="0.5" fill="green"/>
<polygon points="151.138,289.013 168.138,289.013 168.138,298.013 151.138,298.013 " stroke="black" stroke-width="0.5" fill="green"/>
<polygon points="168.138,289.013 185.138,289.013 185.138,298.013 168.138,298.013 " stroke="black" stroke-width="0.5" fill="green"/>
<polygon points="185.138,289.013 202.138,289.013 202.138,298.013 185.138,298.013 " stroke="black" stroke-width="0.5" fill="green"/>
<polygon points="202.138,289.013 219.138,289.013 219.138,298.013 202.138,298.013 " stroke="black" stroke-width="0.5" fill="green"/>
<polygon points="219.138,289.013 236.138,289.013 236.138,298.013 219.138,298.013 " stroke="black" stroke-width="0.5" fill="green"/>
<polygon points="236.138,289.013 253.138,289.013 253.138,298.013 236.138,298.013 " stroke="black" stroke-width="0.5" fill="green"/>
<polygon points="253.138,289.013 270.138,289.013 270.138,298.013 253.138,298.013 " stroke="black" stroke-width="0.5" fill="green"/>
<polygon points="270.138,289.013 287.138,289.013 287.138,298.013 270.138,298.013 " stroke="black" stroke-width="0.5" fill="green"/>
<polygon points="287.138,289.013 304.138,289.013 304.138,298.013 287.138,298.013 " stroke="black" stroke-width="0.5" fill="green"/>
<polygon points="304.138,289.013 321.138,289.013 321.138,298.013 304.138,298.013 " stroke="black" stroke-width="0.5" fill="green"/>
<polygon points="321.138,289.013 338.138,289.013 338.138,298.013 321.138,298.013 " stroke="black" stroke-width="0.5" fill="green"/>
<polygon points="338.138,289.013 355.138,289.013 355.138,298.013 338.138,298.013 " stroke="black" stroke-width="0.5" fill="green"/>
<polygon points="355.138,289.013 372.138,289.013 372.138,298.013 355.138,298.013 " stroke="black" stroke-width="0.5" fill="green"/>
<polygon points="372.138,289.013 389.138,289.013 389.138,298.013 372.138,298.013 " stroke="black" stroke-width="0.5" fill="green"/>
<polygon points="389.138,289.013 406.138,289.013 406.138,298.013 389.138,298.013 " stroke="black" stroke-width="0.5" fill="green"/>
<polygon points="88.3346,280.013 105.335,280.013 105.335,289.013 88.3346,289.013 " stroke="black" stroke-width="0.5" fill="green"/>
<polygon points="105.335,280.013 122.335,280.013 122.335,289.013 105.335,289.013 " stroke="black" stroke-width="0.5" fill="green"/>
<polygon points="122.335,280.013 139.335,280.013 139.335,289.013 122.335,289.013 " stroke="black" stroke-width="0.5" fill="green"/>
<polygon points="139.335,280.013 156.335,280.013 156.335,289.013 139.335,289.013 " stroke="black" stroke-width="0.5" fill="green"/>
<polygon points="156.335,280.013 173.335,280.013 173.335,289.013 156.335,289.013 " stroke="black" stroke-width="0.5" fill="green"/>
<polygon points="173.335,280.013 190.335,280.013 190.335,289.013 173.335,289.013 " stroke="black" stroke-width="0.5" fill="green"/>
<polygon points="190.335,280.013 207.335,280.013 207.335,289.013 190.335,289.013 " stroke="black" stroke-width="0.5" fill="green"/>
<polygon points="207.335,280.013 224.335,280.013 224.335,289.013 207.335,289.013 " stroke="black" stroke-width="0.5" fill="green"/>
<polygon points="224.335,280.013 241.335,280.013 241.335,289.013 224.335,289.013 " stroke="black" stroke-width="0.5" fill="green"/>
<polygon points="241.335,280.013 258.335,280.013 258.335,289.013 241.335,289.013 " stroke="black" stroke-width="0.5" fill="green"/>
<polygon points="258.335,280.013 275.335,280.013 275.335,289.013 258.335,289.013 " stroke="black" stroke-width="0.5" fill="green"/>
<polygon points="275.335,280.013 292.335,280.013 292.335,289.013 275.335,289.013 " stroke="black" stroke-width="0.5" fill="green"/>
<polygon points="292.335,280.013 309.335,280.013 309.335,289.013 292.335,289.013 " stroke="black" stroke-width="0.5" fill="green"/>
<polygon points="309.335,280.013 326.335,280.013 326.335,289.013 309.335,289.013 " stroke="black" stroke-width="0.5" fill="green"/>
<polygon points="326.335,280.013 343.335,280.013 343.335,289.013 326.335,289.013 " stroke="black" stroke-width="0.5" fill="green"/>
<polygon points="343.335,280.013 360.335,280.013 360.335,289.013 343.335,289.013 " stroke="black" stroke-width="0.5" fill="green"/>
<polygon points="360.335,280.013 377.335,280.013 377.335,289.013 360.335,289.013 " stroke="black" stroke-width="0.5" fill="green"/>
<polygon points="377.335,280.013 394.335,280.013 394.335,289.013 377.335,289.013 " stroke="black" stroke-width="0.5" fill="green"/>
<polygon points="394.335,280.013 411.335,280.013 411.335,289.013 394.335,289.013 " stroke="black" stroke-width="0.5" fill="green"/>
<polygon points="93.5307,271.013 110.531,271.013 110.531,280.013 93.5307,280.013 " stroke="black" stroke-width="0.5" fill="green"/>
<polygon points="110.531,271.013 127.531,271.013 127.531,280.013 110.531,280.013 " stroke="black" stroke-width="0.5" fill="green"/>
<polygon points="127.531,271.013 144.531,271.013 144.531,280.013 127.531,280.013 " stroke="black" stroke-width="0.5" fill="green"/>
<polygon points="144.531,271.013 161.531,271.013 161.531,280.013 144.531,280.013 " stroke="black" stroke-width="0.5" fill="green"/>
<polygon points="161.531,271.013 178.531,271.013 178.531,280.013 161.531,280.013 " stroke="black" stroke-width="0.5" fill="green"/>
<polygon points="178.531,271.013 195.531,271.013 195.531,280.013 178.531,280.013 " stroke="black" stroke-width="0.5" fill="green"/>
<polygon points="195.531,271.013 212.531,271.013 212.531,280.013 195.531,280.013 " stroke="black" stroke-width="0.5" fill="green"/>
<polygon points="212.531,271.013 229.531,271.013 229.531,280.013 212.531,280.013 " stroke="black" stroke-width="0.5" fill="green"/>
<polygon points="229.531,271.013 246.531,271.013 246.531,280.013 229.531,280.013 " stroke="black" stroke-width="0.5" fill="green"/>
<polygon points="246.531,271.013 263.531,271.013 263.531,280.013 246.531,280.013 " stroke="black" stroke-width="0.5" fill="green"/>
<polygon points="263.531,271.013 280.531,271.013 280.531,280.013 263.531,280.013 " stroke="black" stroke-width="0.5" fill="green"/>
<polygon points="280.531,271.013 297.531,271.013 297.531,280.013 280.531,280.013 " stroke="black" stroke-width="0.5" fill="green"/>
<polygon points="297.531,271.013 314.531,271.013 314.531,280.013 297.531,280.013 " stroke="black" stroke-width="0.5" fill="green"/>
<polygon points="314.531,271.013 331.531,271.013 331.531,280.013 314.531,280.013 " stroke="black" stroke-width="0.5" fill="green"/>
<polygon points="331.531,271.013 348.531,271.013 348.531,280.013 331.531,280.013 " stroke="black" stroke-width="0.5" fill="green"/>
<polygon points="348.531,271.013 365.531,271.013 365.531,280.013 348.531,280.013 " stroke="black" stroke-width="0.5" fill="green"/>
<polygon points="365.531,271.013 382.531,271.013 382.531,280.013 365.531,280.013 " stroke="black" stroke-width="0.5" fill="green"/>
<polygon points="382.531,271.013 399.531,271.013 399.531,280.013 382.531,280.013 " stroke="black" stroke-width="0.5" fill="green"/>
<polygon points="98.7269,262.013 115.727,262.013 115.727,271.013 98.7269,271.013 " stroke="black" stroke-width="0.5" fill="green"/>
<polygon points="115.727,262.013 132.727,262.013 132.727,271.013 115.727,271.013 " stroke="black" stroke-width="0.5" fill="green"/>
<polygon points="132.727,262.013 149.727,262.013 149.727,271.013 132.727,271.013 " stroke="black" stroke-width="0.5" fill="green"/>
<polygon points="149.727,262.013 166.727,262.013 166.727,271.013 149.727,271.013 " stroke="black" stroke-width="0.5" fill="green"/>
<polygon points="166.727,262.013 183.727,262.013 183.727,271.013 166.727,271.013 " stroke="black" stroke-width="0.5" fill="green"/>
<polygon points="183.727,262.013 200.727,262.013 200.727,271.013 183.727,271.013 " stroke="black" stroke-width="0.5" fill="green"/>
<polygon points="200.727,262.013 217.727,262.013 217.727,271.013 200.727,271.013 " stroke="black" stroke-width="0.5" fill="green"/>
<polygon points="217.727,262.013 234.727,262.013 234.727,271.013 217.727,271.013 " stroke="black" stroke-width="0.5" fill="green"/>
<polygon points="234.727,262.013 251.727,262.013 251.727,271.013 234.727,271.013 " stroke="black" stroke-width="0.5" fill="green"/>
<polygon points="251.727,262.013 268.727,262.013 268.727,271.013 251.727,271.013 " stroke="black" stroke-width="0.5" fill="green"/>
<polygon points="268.727,262.013 285.727,262.013 285.727,271.013 268.727,271.013 " stroke="black" stroke-width="0.5" fill="green"/>
<polygon points="285.727,262.013 302.727,262.013 302.727,271.013 285.727,271.013 " stroke="black" stroke-width="0.5" fill="green"/>
<polygon points="302.727,262.013 319.727,262.013 319.727,271.013 302.727,271.013 " stroke="black" stroke-width="0.5" fill="green"/>
<polygon points="319.727,262.013 336.727,262.013 336.727,271.013 319.727,271.013 " stroke="black" stroke-width="0.5" fill="green"/>
<polygon points="336.727,262.013 353.727,262.013 353.727,271.013 336.727,271.013 " stroke="black" stroke-width="0.5" fill="green"/>
<polygon points="353.727,262.013 370.727,262.013 370.727,271.013 353.727,271.013 " stroke="black" stroke-width="0.5" fill="green"/>
<polygon points="370.727,262.013 387.727,262.013 387.727,271.013 370.727,271.013 " stroke="black" stroke-width="0.5" fill="green"/>
<polygon points="103.923,253.013 120.923,253.013 120.923,262.013 103.923,262.013 " stroke="black" stroke-width="0.5" fill="green"/>
<polygon points="120.923,253.013 137.923,253.013 137.923,262.013 120.923,262.013 " stroke="black" stroke-width="0.5" fill="green"/>
<polygon points="137.923,253.013 154.923,253.013 154.923,262.013 137.923,262.013 " stroke="black" stroke-width="0.5" fill="green"/>
<polygon points="154.923,253.013 171.923,253.013 171.923,262.013 154.923,262.013 " stroke="black" stroke-width="0.5" fill="green"/>
<polygon points="171.923,253.013 188.923,253.013 188.923,262.013 171.923,262.013 " stroke="black" stroke-width="0.5" fill="green"/>
<polygon points="188.923,253.013 205.923,253.013 205.923,262.013 188.923,262.013 " stroke="black" stroke-width="0.5" fill="green"/>
<polygon points="205.923,253.013 222.923,253.013 222.923,262.013 205.923,262.013 " stroke="black" stroke-width="0.5" fill="green"/>
<polygon points="222.923,253.013 239.923,253.013 239.923,262.013 222.923,262.013 " stroke="black" stroke-width="0.5" fill="green"/>
<polygon points="239.923,253.013 256.923,253.013 256.923,262.013 239.923,262.013 " stroke="black" stroke-width="0.5" fill="green"/>
<polygon points="256.923,253.013 273.923,253.013 273.923,262.013 256.923,262.013 " stroke="black" stroke-width="0.5" fill="green"/>
<polygon points="273.923,253.013 290.923,253.013 290.923,262.013 273.923,262.013 " stroke="black" stroke-width="0.5" fill="green"/>
<polygon points="290.923,253.013 307.923,253.013 307.923,262.013 290.923,262.013 " stroke="black" stroke-width="0.5" fill="green"/>
<polygon points="307.923,253.013 324.923,253.013 324.923,262.013 307.923,262.013 " stroke="black" stroke-width="0.5" fill="green"/>
<polygon points="324.923,253.013 341.923,253.013 341.923,262.013 324.923,262.013 " stroke="black" stroke-width="0.5" fill="green"/>
<polygon points="341.923,253.013 358.923,253.013 358.923,262.013 341.923,262.013 " stroke="black" stroke-width="0.5" fill="green"/>
<polygon points="358.923,253.013 375.923,253.013 375.923,262.013 358.923,262.013 " stroke="black" stroke-width="0.5" fill="green"/>
<polygon points="375.923,253.013 392.923,253.013 392.923,262.013 375.923,262.013 " stroke="black" stroke-width="0.5" fill="green"/>
<polygon points="109.119,244.013 126.119,244.013 126.119,253.013 109.119,253.013 " stroke="black" stroke-width="0.5" fill="green"/>
<polygon points="126.119,244.013 143.119,244.013 143.119,253.013 126.119,253.013 " stroke="black" stroke-width="0.5" fill="green"/>
<polygon points="143.119,244.013 160.119,244.013 160.119,253.013 143.119,253.013 " stroke="black" stroke-width="0.5" fill="green"/>
<polygon points="160.119,244.013 177.119,244.013 177.119,253.013 160.119,253.013 " stroke="black" stroke-width="0.5" fill="green"/>
<polygon points="177.119,244.013 194.119,244.013 194.119,253.013 177.119,253.013 " stroke="black" stroke-width="0.5" fill="green"/>
<polygon points="194.119,244.013 211.119,244.013 211.119,253.013 194.119,253.013 " stroke="black" stroke-width="0.5" fill="green"/>
<polygon points="211.119,244.013 228.119,244.013 228.119,253.013 211.119,253.013 " stroke="black" stroke-width="0.5" fill="green"/>
<polygon points="228.119,244.013 245.119,244.013 245.119,253.013 228.119,253.013 " stroke="black" stroke-width="0.5" fill="green"/>
<polygon points="245.119,244.013 262.119,244.013 262.119,253.013 245.119,253.013 " stroke="black" stroke-width="0.5" fill="green"/>
<polygon points="262.119,244.013 279.119,244.013 279.119,253.013 262.119,253.013 " stroke="black" stroke-width="0.5" fill="green"/>
<polygon points="279.119,244.013 296.119,244.013 296.119,253.013 279.119,253.013 " stroke="black" stroke-width="0.5" fill="green"/>
<polygon points="296.119,244.013 313.119,244.013 313.119,253.013 296.119,253.013 " stroke="black" stroke-width="0.5" fill="green"/>
<polygon points="313.119,244.013 330.119,244.013 330.119,253.013 313.119,253.013 " stroke="black" stroke-width="0.5" fill="green"/>
<polygon points="330.119,244.013 347.119,244.013 347.119,253.013 330.119,253.013 " stroke="black" stroke-width="0.5" fill="green"/>
<polygon points="347.119,244.013 364.119,244.013 364.119,253.013 347.119,253.013 " stroke="black" stroke-width="0.5" fill="green"/>
<polygon points="364.119,244.013 381.119,244.013 381.119,253.013 364.119,253.013 " stroke="black" stroke-width="0.5" fill="green"/>
<polygon points="114.315,235.013 131.315,235.013 131.315,244.013 114.315,244.013 " stroke="black" stroke-width="0.5" fill="green"/>
<polygon points="131.315,235.013 148.315,235.013 148.315,244.013 131.315,244.013 " stroke="black" stroke-width="0.5" fill="green"/>
<polygon points="148.315,235.013 165.315,235.013 165.315,244.013 148.315,244.013 " stroke="black" stroke-width="0.5" fill="green"/>
<polygon points="165.315,235.013 182.315,235.013 182.315,244.013 165.315,244.013 " stroke="black" stroke-width="0.5" fill="green"/>
<polygon points="182.315,235.013 199.315,235.013 199.315,244.013 182.315,244.013 " stroke="black" stroke-width="0.5" fill="green"/>
<polygon points="199.315,235.013 216.315,235.013 216.315,244.013 199.315,244.013 " stroke="black" stroke-width="0.5" fill="green"/>
<polygon points="216.315,235.013 233.315,235.013 233.315,244.013 216.315,244.013 " stroke="black" stroke-width="0.5" fill="green"/>
<polygon points="233.315,235.013 250.315,235.013 250.315,244.013 233.315,244.013 " stroke="black" stroke-width="0.5" fill="green"/>
<polygon points="250.315,235.013 267.315,235.013 267.315,244.013 250.315,244.013 " stroke="black" stroke-width="0.5" fill="green"/>
<polygon points="267.315,235.013 284.315,235.013 284.315,244.013 267.315,244.013 " stroke="black" stroke-width="0.5" fill="green"/>
<polygon points="284.315,235.013 301.315,235.013 301.315,244.013 284.315,244.013 " stroke="black" stroke-width="0.5" fill="green"/>
<polygon points="301.315,235.013 318.315,235.013 318.315,244.013 301.315,244.013 " stroke="black" stroke-width="0.5" fill="green"/>
<polygon points="318.315,235.013 335.315,235.013 335.315,244.013 318.315,244.013 " stroke="black" stroke-width="0.5" fill="green"/>
<polygon points="335.315,235.013 352.315,235.013 352.315,244.013 335.315,244.013 " stroke="black" stroke-width="0.5" fill="green"/>
<polygon points="352.315,235.013 369.315,235.013 369.315,244.013 352.315,244.013 " stroke="black" stroke-width="0.5" fill="green"/>
<polygon points="119.512,226.013 136.512,226.013 136.512,235.013 119.512,235.013 " stroke="black" stroke-width="0.5" fill="green"/>
<polygon points="136.512,226.013 153.512,226.013 153.512,235.013 136.512,235.013 " stroke="black" stroke-width="0.5" fill="green"/>
<polygon points="153.512,226.013 170.512,226.013 170.512,235.013 153.512,235.013 " stroke="black" stroke-width="0.5" fill="green"/>
<polygon points="170.512,226.013 187.512,226.013 187.512,235.013 170.512,235.013 " stroke="black" stroke-width="0.5" fill="green"/>
<polygon points="187.512,226.013 204.512,226.013 204.512,235.013 187.512,235.013 " stroke="black" stroke-width="0.5" fill="green"/>
<polygon points="204.512,226.013 221.512,226.013 221.512,235.013 204.512,235.013 " stroke="black" stroke-width="0.5" fill="green"/>
<polygon points="221.512,226.013 238.512,226.013 238.512,235.013 221.512,235.013 " stroke="black" stroke-width="0.5" fill="green"/>
<polygon points="238.512,226.013 255.512,226.013 255.512,235.013 238.512,235.013 " stroke="black" stroke-width="0.5" fill="green"/>
<polygon points="255.512,226.013 272.512,226.013 272.512,235.013 255.512,235.013 " stroke="black" stroke-width="0.5" fill="green"/>
<polygon points="272.512,226.013 289.512,226.013 289.512,235.013 272.512,235.013 " stroke="black" stroke-width="0.5" fill="green"/>
<polygon points="289.512,226.013 306.512,226.013 306.512,235.013 289.512,235.013 " stroke="black" stroke-width="0.5" fill="green"/>
<polygon points="306.512,226.013 323.512,226.013 323.512,235.013 306.512,235.013 " stroke="black" stroke-width="0.5" fill="green"/>
<polygon points="323.512,226.013 340.512,226.013 340.512,235.013 323.512,235.013 " stroke="black" stroke-width="0.5" fill="green"/>
<polygon points="340.512,226.013 357.512,226.013 357.512,235.013 340.512,235.013 " stroke="black" stroke-width="0.5" fill="green"/>
<polygon points="357.512,226.013 374.512,226.013 374.512,235.013 357.512,235.013 " stroke="black" stroke-width="0.5" fill="green"/>
<polygon points="124.708,217.013 141.708,217.013 141.708,226.013 124.708,226.013 " stroke="black" stroke-width="0.5" fill="green"/>
<polygon points="141.708,217.013 158.708,217.013 158.708,226.013 141.708,226.013 " stroke="black" stroke-width="0.5" fill="green"/>
<polygon points="158.708,217.013 175.708,217.013 175.708,226.013 158.708,226.013 " stroke="black" stroke-width="0.5" fill="green"/>
<polygon points="175.708,217.013 192.708,217.013 192.708,226.013 175.708,226.013 " stroke="black" stroke-width="0.5" fill="green"/>
<polygon points="192.708,217.013 209.708,217.013 209.708,226.013 192.708,226.013 " stroke="black" stroke-width="0.5" fill="green"/>
<polygon points="209.708,217.013 226.708,217.013 226.708,226.013 209.708,226.013 " stroke="black" stroke-width="0.5" fill="green"/>
<polygon points="226.708,217.013 243.708,217.013 243.708,226.013 226.708,226.013 " stroke="black" stroke-width="0.5" fill="green"/>
<polygon points="243.708,217.013 260.708,217.013 260.708,226.013 243.708,226.013 " stroke="black" stroke-width="0.5" fill="green"/>
<polygon points="260.708,217.013 277.708,217.013 277.708,226.013 260.708,226.013 " stroke="black" stroke-width="0.5" fill="green"/>
<polygon points="277.708,217.013 294.708,217.013 294.708,226.013 277.708,226.013 " stroke="black" stroke-width="0.5" fill="green"/>
<polygon points="294.708,217.013 311.708,217.013 311.708,226.013 294.708,226.013 " stroke="black" stroke-width="0.5" fill="green"/>
<polygon points="311.708,217.013 328.708,217.013 328.708,226.013 311.708,226.013 " stroke="black" stroke-width="0.5" fill="green"/>
<polygon points="328.708,217.013 345.708,217.013 345.708,226.013 328.708,226.013 " stroke="black" stroke-width="0.5" fill="green"/>
<polygon points="345.708,217.013 362.708,217.013 362.708,226.013 345.708,226.013 " stroke="black" stroke-width="0.5" fill="green"/>
<polygon points="129.904,208.013 146.904,208.013 146.904,217.013 129.904,217.013 " stroke="black" stroke-width="0.5" fill="green"/>
<polygon points="146.904,208.013 163.904,208.013 163.904,217.013 146.904,217.013 " stroke="black" stroke-width="0.5" fill="green"/>
<polygon points="163.904,208.013 180.904,208.013 180.904,217.013 163.904,217.013 " stroke="black" stroke-width="0.5" fill="green"/>
<polygon points="180.904,208.013 197.904,208.013 197.904,217.013 180.904,217.013 " stroke="black" stroke-width="0.5" fill="green"/>
<polygon points="197.904,208.013 214.904,208.013 214.904,217.013 197.904,217.013 " stroke="black" stroke-width="0.5" fill="green"/>
<polygon points="214.904,208.013 231.904,208.013 231.904,217.013 214.904,217.013 " stroke="black" stroke-width="0.5" fill="green"/>
<polygon points="231.904,208.013 248.904,208.013 248.904,217.013 231.904,217.013 " stroke="black" stroke-width="0.5" fill="green"/>
<polygon points="248.904,208.013 265.904,208.013 265.904,217.013 248.904,217.013 " stroke="black" stroke-width="0.5" fill="green"/>
<polygon points="265.904,208.013 282.904,208.013 282.904,217.013 265.904,217.013 " stroke="black" stroke-width="0.5" fill="green"/>
<polygon points="282.904,208.013 299.904,208.013 299.904,217.013 282.904,217.013 " stroke="black" stroke-width="0.5" fill="green"/>
<polygon points="299.904,208.013 316.904,208.013 316.904,217.013 299.904,217.013 " stroke="black" stroke-width="0.5" fill="green"/>
<polygon points="316.904,208.013 333.904,208.013 333.904,217.013 316.904,217.013 " stroke="black" stroke-width="0.5" fill="green"/>
<polygon points="333.904,208.013 350.904,208.013 350.904,217.013 333.904,217.013 " stroke="black" stroke-width="0.5" fill="green"/>
<polygon points="350.904,208.013 367.904,208.013 367.904,217.013 350.904,217.013 " stroke="black" stroke-width="0.5" fill="green"/>
<polygon points="135.1,199.013 152.1,199.013 152.1,208.013 135.1,208.013 " stroke="black" stroke-width="0.5" fill="green"/>
<polygon points="152.1,199.013 169.1,199.013 169.1,208.013 152.1,208.013 " stroke="black" stroke-width="0.5" fill="green"/>
<polygon points="169.1,199.013 186.1,199.013 186.1,208.013 169.1,208.013 " stroke="black" stroke-width="0.5" fill="green"/>
<polygon points="186.1,199.013 203.1,199.013 203.1,208.013 186.1,208.013 " stroke="black" stroke-width="0.5" fill="green"/>
<polygon points="203.1,199.013 220.1,199.013 220.1,208.013 203.1,208.013 " stroke="black" stroke-width="0.5" fill="green"/>
<polygon points="220.1,199.013 237.1,199.013 237.1,208.013 220.1,208.013 " stroke="black" stroke-width="0.5" fill="green"/>
<polygon points="237.1,199.013 254.1,199.013 254.1,208.013 237.1,208.013 " stroke="black" stroke-width="0.5" fill="green"/>
<polygon points="254.1,199.013 271.1,199.013 271.1,208.013 254.1,208.013 " stroke="black" stroke-width="0.5" fill="green"/>
<polygon points="271.1,199.013 288.1,199.013 288.1,208.013 271.1,208.013 " stroke="black" stroke-width="0.5" fill="green"/>
<polygon points="288.1,199.013 305.1,199.013 305.1,208.013 288.1,208.013 " stroke="black" stroke-width="0.5" fill="green"/>
<polygon points="305.1,199.013 322.1,199.013 322.1,208.013 305.1,208.013 " stroke="black" stroke-width="0.5" fill="green"/>
<polygon points="322.1,199.013 339.1,199.013 339.1,208.013 322.1,208.013 " stroke="black" stroke-width="0.5" fill="green"/>
<polygon points="339.1,199.013 356.1,199.013 356.1,208.013 339.1,208.013 " stroke="black" stroke-width="0.5" fill="green"/>
<polygon points="140.296,190.013 157.296,190.013 157.296,199.013 140.296,199.013 " stroke="black" stroke-width="0.5" fill="green"/>
<polygon points="157.296,190.013 174.296,190.013 174.296,199.013 157.296,199.013 " stroke="black" stroke-width="0.5" fill="green"/>
<polygon points="174.296,190.013 191.296,190.013 191.296,199.013 174.296,199.013 " stroke="black" stroke-width="0.5" fill="green"/>
<polygon points="191.296,190.013 208.296,190.013 208.296,199.013 191.296,199.013 " stroke="black" stroke-width="0.5" fill="green"/>
<polygon points="208.296,190.013 225.296,190.013 225.296,199.013 208.296,199.013 " stroke="black" stroke-width="0.5" fill="green"/>
<polygon points="225.296,190.013 242.296,190.013 242.296,199.013 225.296,199.013 " stroke="black" stroke-width="0.5" fill="green"/>
<polygon points="242.296,190.013 259.296,190.013 259.296,199.013 242.296,199.013 " stroke="black" stroke-width="0.5" fill="green"/>
<polygon points="259.296,190.013 276.296,190.013 276.296,199.013 259.296,199.013 " stroke="black" stroke-width="0.5" fill="green"/>
<polygon points="276.296,190.013 293.296,190.013 293.296,199.013 276.296,199.013 " stroke="black" stroke-width="0.5" fill="green"/>
<polygon points="293.296,190.013 310.296,190.013 310.296,199.013 293.296,199.013 " stroke="black" stroke-width="0.5" fill="green"/>
<polygon points="310.296,190.013 327.296,190.013 327.296,199.013 310.296,199.013 " stroke="black" stroke-width="0.5" fill="green"/>
<polygon points="327.296,190.013 344.296,190.013 344.296,199.013 327.296,199.013 " stroke="black" stroke-width="0.5" fill="green"/>
<polygon points="145.492,181.013 162.492,181.013 162.492,190.013 145.492,190.013 " stroke="black" stroke-width="0.5" fill="green"/>
<polygon points="162.492,181.013 179.492,181.013 179.492,190.013 162.492,190.013 " stroke="black" stroke-width="0.5" fill="green"/>
<polygon points="179.492,181.013 196.492,181.013 196.492,190.013 179.492,190.013 " stroke="black" stroke-width="0.5" fill="green"/>
<polygon points="196.492,181.013 213.492,181.013 213.492,190.013 196.492,190.013 " stroke="black" stroke-width="0.5" fill="green"/>
<polygon points="213.492,181.013 230.492,181.013 230.492,190.013 213.492,190.013 " stroke="black" stroke-width="0.5" fill="green"/>
<polygon points="230.492,181.013 247.492,181.013 247.492,190.013 230.492,190.013 " stroke="black" stroke-width="0.5" fill="green"/>
<polygon points="247.492,181.013 264.492,181.013 264.492,190.013 247.492,190.013 " stroke="black" stroke-width="0.5" fill="green"/>
<polygon points="264.492,181.013 281.492,181.013 281.492,190.013 264.492,190.013 " stroke="black" stroke-width="0.5" fill="green"/>
<polygon points="281.492,181.013 298.492,181.013 298.492,190.013 281.492,190.013 " stroke="black" stroke-width="0.5" fill="green"/>
<polygon points="298.492,181.013 315.492,181.013 315.492,190.013 298.492,190.013 " stroke="black" stroke-width="0.5" fill="green"/>
<polygon points="315.492,181.013 332.492,181.013 332.492,190.013 315.492,190.013 " stroke="black" stroke-width="0.5" fill="green"/>
<polygon points="332.492,181.013 349.492,181.013 349.492,190.013 332.492,190.013 " stroke="black" stroke-width="0.5" fill="green"/>
<polygon points="150.688,172.013 167.688,172.013 167.688,181.013 150.688,181.013 " stroke="black" stroke-width="0.5" fill="green"/>
<polygon points="167.688,172.013 184.688,172.013 184.688,181.013 167.688,181.013 " stroke="black" stroke-width="0.5" fill="green"/>
<polygon points="184.688,172.013 201.688,172.013 201.688,181.013 184.688,181.013 " stroke="black" stroke-width="0.5" fill="green"/>
<polygon points="201.688,172.013 218.688,172.013 218.688,181.013 201.688,181.013 " stroke="black" stroke-width="0.5" fill="green"/>
<polygon points="218.688,172.013 235.688,172.013 235.688,181.013 218.688,181.013 " stroke="black" stroke-width="0.5" fill="green"/>
<polygon points="235.688,172.013 252.688,172.013 252.688,181.013 235.688,181.013 " stroke="black" stroke-width="0.5" fill="green"/>
<polygon points="252.688,172.013 269.688,172.013 269.688,181.013 252.688,181.013 " stroke="black" stroke-width="0.5" fill="green"/>
<polygon points="269.688,172.013 286.688,172.013 286.688,181.013 269.688,181.013 " stroke="black" stroke-width="0.5" fill="green"/>
<polygon points="286.688,172.013 303.688,172.013 303.688,181.013 286.688,181.013 " stroke="black" stroke-width="0.5" fill="green"/>
<polygon points="303.688,172.013 320.688,172.013 320.688,181.013 303.688,181.013 " stroke="black" stroke-width="0.5" fill="green"/>
<polygon points="320.688,172.013 337.688,172.013 337.688,181.013 320.688,181.013 " stroke="black" stroke-width="0.5" fill="green"/>
<polygon points="155.885,163.013 172.885,163.013 172.885,172.013 155.885,172.013 " stroke="black" stroke-width="0.5" fill="green"/>
<polygon points="172.885,163.013 189.885,163.013 189.885,172.013 172.885,172.013 " stroke="black" stroke-width="0.5" fill="green"/>
<polygon points="189.885,163.013 206.885,163.013 206.885,172.013 189.885,172.013 " stroke="black" stroke-width="0.5" fill="green"/>
<polygon points="206.885,163.013 223.885,163.013 223.885,172.013 206.885,172.013 " stroke="black" stroke-width="0.5" fill="green"/>
<polygon points="223.885,163.013 240.885,163.013 240.885,172.013 223.885,172.013 " stroke="black" stroke-width="0.5" fill="green"/>
<polygon points="240.885,163.013 257.885,163.013 257.885,172.013 240.885,172.013 " stroke="black" stroke-width="0.5" fill="green"/>
<polygon points="257.885,163.013 274.885,163.013 274.885,172.013 257.885,172.013 " stroke="black" stroke-width="0.5" fill="green"/>
<polygon points="274.885,163.013 291.885,163.013 291.885,172.013 274.885,172.013 " stroke="black" stroke-width="0.5" fill="green"/>
<polygon points="291.885,163.013 308.885,163.013 308.885,172.013 291.885,172.013 " stroke="black" stroke-width="0.5" fill="green"/>
<polygon points="308.885,163.013 325.885,163.013 325.885,172.013 308.885,172.013 " stroke="black" stroke-width="0.5" fill="green"/>
<polygon points="325.885,163.013 342.885,163.013 342.885,172.013 325.885,172.013 " stroke="black" stroke-width="0.5" fill="green"/>
<polygon points="161.081,154.013 178.081,154.013 178.081,163.013 161.081,163.013 " stroke="black" stroke-width="0.5" fill="green"/>
<polygon points="178.081,154.013 195.081,154.013 195.081,163.013 178.081,163.013 " stroke="black" stroke-width="0.5" fill="green"/>
<polygon points="195.081,154.013 212.081,154.013 212.081,163.013 195.081,163.013 " stroke="black" stroke-width="0.5" fill="green"/>
<polygon points="212.081,154.013 229.081,154.013 229.081,163.013 212.081,163.013 " stroke="black" stroke-width="0.5" fill="green"/>
<polygon points="229.081,154.013 246.081,154.013 246.081,163.013 229.081,163.013 " stroke="black" stroke-width="0.5" fill="green"/>
<polygon points="246.081,154.013 263.081,154.013 263.081,163.013 246.081,163.013 " stroke="black" stroke-width="0.5" fill="green"/>
<polygon points="263.081,154.013 280.081,154.013 280.081,163.013 263.081,163.013 " stroke="black" stroke-width="0.5" fill="green"/>
<polygon points="280.081,154.013 297.081,154.013 297.081,163.013 280.081,163.013 " stroke="black" stroke-width="0.5" fill="green"/>
<polygon points="297.081,154.013 314.081,154.013 314.081,163.013 297.081,163.013 " stroke="black" stroke-width="0.5" fill="green"/>
<polygon points="314.081,154.013 331.081,154.013 331.081,163.013 314.081,163.013 " stroke="black" stroke-width="0.5" fill="green"/>
<polygon points="166.277,145.013 183.277,145.013 183.277,154.013 166.277,154.013 " stroke="black" stroke-width="0.5" fill="green"/>
<polygon points="183.277,145.013 200.277,145.013 200.277,154.013 183.277,154.013 " stroke="black" stroke-width="0.5" fill="green"/>
<polygon points="200.277,145.013 217.277,145.013 217.277,154.013 200.277,154.013 " stroke="black" stroke-width="0.5" fill="green"/>
<polygon points="217.277,145.013 234.277,145.013 234.277,154.013 217.277,154.013 " stroke="black" stroke-width="0.5" fill="green"/>
<polygon points="234.277,145.013 251.277,145.013 251.277,154.013 234.277,154.013 " stroke="black" stroke-width="0.5" fill="green"/>
<polygon points="251.277,145.013 268.277,145.013 268.277,154.013 251.277,154.013 " stroke="black" stroke-width="0.5" fill="green"/>
<polygon points="268.277,145.013 285.277,145.013 285.277,154.013 268.277,154.013 " stroke="black" stroke-width="0.5" fill="green"/>
<polygon points="285.277,145.013 302.277,145.013 302.277,154.013 285.277,154.013 " stroke="black" stroke-width="0.5" fill="green"/>
<polygon points="302.277,145.013 319.277,145.013 319.277,154.013 302.277,154.013 " stroke="black" stroke-width="0.5" fill="green"/>
<polygon points="171.473,136.013 188.473,136.013 188.473,145.013 171.473,145.013 " stroke="black" stroke-width="0.5" fill="green"/>
<polygon points="188.473,136.013 205.473,136.013 205.473,145.013 188.473,145.013 " stroke="black" stroke-width="0.5" fill="green"/>
<polygon points="205.473,136.013 222.473,136.013 222.473,145.013 205.473,145.013 " stroke="black" stroke-width="0.5" fill="green"/>
<polygon points="222.473,136.013 239.473,136.013 239.473,145.013 222.473,145.013 " stroke="black" stroke-width="0.5" fill="green"/>
<polygon points="239.473,136.013 256.473,136.013 256.473,145.013 239.473,145.013 " stroke="black" stroke-width="0.5" fill="green"/>
<polygon points="256.473,136.013 273.473,136.013 273.473,145.013 256.473,145.013 " stroke="black" stroke-width="0.5" fill="green"/>
<polygon points="273.473,136.013 290.473,136.013 290.473,145.013 273.473,145.013 " stroke="black" stroke-width="0.5" fill="green"/>
<polygon points="290.473,136.013 307.473,136.013 307.473,145.013 290.473,145.013 " stroke="black" stroke-width="0.5" fill="green"/>
<polygon points="307.473,136.013 324.473,136.013 324.473,145.013 307.473,145.013 " stroke="black" stroke-width="0.5" fill="green"/>
<polygon points="176.669,127.013 193.669,127.013 193.669,136.013 176.669,136.013 " stroke="black" stroke-width="0.5" fill="green"/>
<polygon points="193.669,127.013 210.669,127.013 210.669,136.013 193.669,136.013 " stroke="black" stroke-width="0.5" fill="green"/>
<polygon points="210.669,127.013 227.669,127.013 227.669,136.013 210.669,136.013 " stroke="black" stroke-width="0.5" fill="green"/>
<polygon points="227.669,127.013 244.669,127.013 244.669,136.013 227.669,136.013 " stroke="black" stroke-width="0.5" fill="green"/>
<polygon points="244.669,127.013 261.669,127.013 261.669,136.013 244.669,136.013 " stroke="black" stroke-width="0.5" fill="green"/>
<polygon points="261.669,127.013 278.669,127.013 278.669,136.013 261.669,136.013 " stroke="black" stroke-width="0.5" fill="green"/>
<polygon points="278.669,127.013 295.669,127.013 295.669,136.013 278.669,136.013 " stroke="black" stroke-width="0.5" fill="green"/>
<polygon points="295.669,127.013 312.669,127.013 312.669,136.013 295.669,136.013 " stroke="black" stroke-width="0.5" fill="green"/>
<polygon points="181.865,118.013 198.865,118.013 198.865,127.013 181.865,127.013 " stroke="black" stroke-width="0.5" fill="green"/>
<polygon points="198.865,118.013 215.865,118.013 215.865,127.013 198.865,127.013 " stroke="black" stroke-width="0.5" fill="green"/>
<polygon points="215.865,118.013 232.865,118.013 232.865,127.013 215.865,127.013 " stroke="black" stroke-width="0.5" fill="green"/>
<polygon points="232.865,118.013 249.865,118.013 249.865,127.013 232.865,127.013 " stroke="black" stroke-width="0.5" fill="green"/>
<polygon points="249.865,118.013 266.865,118.013 266.865,127.013 249.865,127.013 " stroke="black" stroke-width="0.5" fill="green"/>
<polygon points="266.865,118.013 283.865,118.013 283.865,127.013 266.865,127.013 " stroke="black" stroke-width="0.5" fill="green"/>
<polygon points="283.865,118.013 300.865,118.013 300.865,127.013 283.865,127.013 " stroke="black" stroke-width="0.5" fill="green"/>
<polygon points="300.865,118.013 317.865,118.013 317.865,127.013 300.865,127.013 " stroke="black" stroke-width="0.5" fill="green"/>
<polygon points="187.061,109.013 204.061,109.013 204.061,118.013 187.061,118.013 " stroke="black" stroke-width="0.5" fill="green"/>
<polygon points="204.061,109.013 221.061,109.013 221.061,118.013 204.061,118.013 " stroke="black" stroke-width="0.5" fill="green"/>
<polygon points="221.061,109.013 238.061,109.013 238.061,118.013 221.061,118.013 " stroke="black" stroke-width="0.5" fill="green"/>
<polygon points="238.061,109.013 255.061,109.013 255.061,118.013 238.061,118.013 " stroke="black" stroke-width="0.5" fill="green"/>
<polygon points="255.061,109.013 272.061,109.013 272.061,118.013 255.061,118.013 " stroke="black" stroke-width="0.5" fill="green"/>
<polygon points="272.061,109.013 289.061,109.013 289.061,118.013 272.061,118.013 " stroke="black" stroke-width="0.5" fill="green"/>
<polygon points="289.061,109.013 306.061,109.013 306.061,118.013 289.061,118.013 " stroke="black" stroke-width="0.5" fill="green"/>
<polygon points="192.258,100.013 209.258,100.013 209.258,109.013 192.258,109.013 " stroke="black" stroke-width="0.5" fill="green"/>
<polygon points="209.258,100.013 226.258,100.013 226.258,109.013 209.258,109.013 " stroke="black" stroke-width="0.5" fill="green"/>
<polygon points="226.258,100.013 243.258,100.013 243.258,109.013 226.258,109.013 " stroke="black" stroke-width="0.5" fill="green"/>
<polygon points="243.258,100.013 260.258,100.013 260.258,109.013 243.258,109.013 " stroke="black" stroke-width="0.5" fill="green"/>
<polygon points="260.258,100.013 277.258,100.013 277.258,109.013 260.258,109.013 " stroke="black" stroke-width="0.5" fill="green"/>
<polygon points="277.258,100.013 294.258,100.013 294.258,109.013 277.258,109.013 " stroke="black" stroke-width="0.5" fill="green"/>
<polygon points="197.454,91.0127 214.454,91.0127 214.454,100.013 197.454,100.013 " stroke="black" stroke-width="0.5" fill="green"/>
<polygon points="214.454,91.0127 231.454,91.0127 231.454,100.013 214.454,100.013 " stroke="black" stroke-width="0.5" fill="green"/>
<polygon points="231.454,91.0127 248.454,91.0127 248.454,100.013 231.454,100.013 " stroke="black" stroke-width="0.5" fill="green"/>
<polygon points="248.454,91.0127 265.454,91.0127 265.454,100.013 248.454,100.013 " stroke="black" stroke-width="0.5" fill="green"/>
<polygon points="265.454,91.0127 282.454,91.0127 282.454,100.013 265.454,100.013 " stroke="black" stroke-width="0.5" fill="green"/>
<polygon points="282.454,91.0127 299.454,91.0127 299.454,100.013 282.454,100.013 " stroke="black" stroke-width="0.5" fill="green"/>
<polygon points="202.65,82.0127 219.65,82.0127 219.65,91.0127 202.65,91.0127 " stroke="black" stroke-width="0.5" fill="green"/>
<polygon points="219.65,82.0127 236.65,82.0127 236.65,91.0127 219.65,91.0127 " stroke="black" stroke-width="0.5" fill="green"/>
<polygon points="236.65,82.0127 253.65,82.0127 253.65,91.0127 236.65,91.0127 " stroke="black" stroke-width="0.5" fill="green"/>
<polygon points="253.65,82.0127 270.65,82.0127 270.65,91.0127 253.65,91.0127 " stroke="black" stroke-width="0.5" fill="green"/>
<polygon points="270.65,82.0127 287.65,82.0127 287.65,91.0127 270.65,91.0127 " stroke="black" stroke-width="0.5" fill="green"/>
<polygon points="207.846,73.0127 224.846,73.0127 224.846,82.0127 207.846,82.0127 " stroke="black" stroke-width="0.5" fill="green"/>
<polygon points="224.846,73.0127 241.846,73.0127 241.846,82.0127 224.846,82.0127 " stroke="black" stroke-width="0.5" fill="green"/>
<polygon points="241.846,73.0127 258.846,73.0127 258.846,82.0127 241.846,82.0127 " stroke="black" stroke-width="0.5" fill="green"/>
<polygon points="258.846,73.0127 275.846,73.0127 275.846,82.0127 258.846,82.0127 " stroke="black" stroke-width="0.5" fill="green"/>
<polygon points="213.042,64.0127 230.042,64.0127 230.042,73.0127 213.042,73.0127 " stroke="black" stroke-width="0.5" fill="green"/>
<polygon points="230.042,64.0127 247.042,64.0127 247.042,73.0127 230.042,73.0127 " stroke="black" stroke-width="0.5" fill="green"/>
<polygon points="247.042,64.0127 264.042,64.0127 264.042,73.0127 247.042,73.0127 " stroke="black" stroke-width="0.5" fill="green"/>
<polygon points="264.042,64.0127 281.042,64.0127 281.042,73.0127 264.042,73.0127 " stroke="black" stroke-width="0.5" fill="green"/>
<polygon points="218.238,55.0127 235.238,55.0127 235.238,64.0127 218.238,64.0127 " stroke="black" stroke-width="0.5" fill="green"/>
<polygon points="235.238,55.0127 252.238,55.0127 252.238,64.0127 235.238,64.0127 " stroke="black" stroke-width="0.5" fill="green"/>
<polygon points="252.238,55.0127 269.238,55.0127 269.238,64.0127 252.238,64.0127 " stroke="black" stroke-width="0.5" fill="green"/>
<polygon points="223.435,46.0127 240.435,46.0127 240.435,55.0127 223.435,55.0127 " stroke="black" stroke-width="0.5" fill="green"/>
<polygon points="240.435,46.0127 257.435,46.0127 257.435,55.0127 240.435,55.0127 " stroke="black" stroke-width="0.5" fill="green"/>
<polygon points="257.435,46.0127 274.435,46.0127 274.435,55.0127 257.435,55.0127 " stroke="black" stroke-width="0.5" fill="green"/>
<polygon points="228.631,37.0127 245.631,37.0127 245.631,46.0127 228.631,46.0127 " stroke="black" stroke-width="0.5" fill="green"/>
<polygon points="245.631,37.0127 262.631,37.0127 262.631,46.0127 245.631,46.0127 " stroke="black" stroke-width="0.5" fill="green"/>
<polygon points="233.827,28.0127 250.827,28.0127 250.827,37.0127 233.827,37.0127 " stroke="black" stroke-width="0.5" fill="green"/>
<polygon points="239.023,19.0127 256.023,19.0127 256.023,28.0127 239.023,28.0127 " stroke="black" stroke-width="0.5" fill="green"/>

</svg>