 <svg version=" 1.1 " baseProfile=" full "
width="100%" height="100%" 
 xmlns="http://www.w3.org/2000/svg">

<polygon points="100,0 103.141,0.0493439 106.279,0.197327 109.411,0.443803 112.533,0.788529 115.643,1.23116 118.738,1.77127 121.814,2.40832 124.869,3.14168 127.899,3.97062 130.902,4.89434 133.874,5.91191 136.812,7.02234 139.715,8.22452 142.578,9.51728 145.399,10.8993 148.175,12.3693 150.904,13.9258 153.583,15.5672 156.208,17.2919 158.778,19.0983 161.291,20.9845 163.742,22.9486 166.131,24.9889 168.455,27.1031 170.711,29.2893 172.897,31.5452 175.011,33.8688 177.051,36.2575 179.015,38.7092 180.902,41.2214 182.708,43.7916 184.433,46.4172 186.074,49.0958 187.631,51.8246 189.101,54.6009 190.483,57.422 191.775,60.2851 192.978,63.1875 194.088,66.1261 195.106,69.0982 196.029,72.1008 196.858,75.1309 197.592,78.1856 198.229,81.2618 198.769,84.3564 199.211,87.4666 199.556,90.589 199.803,93.7208 199.951,96.8588 200,99.9999 199.951,103.141 199.803,106.279 199.556,109.411 199.211,112.533 198.769,115.643 198.229,118.738 197.592,121.814 196.858,124.869 196.029,127.899 195.106,130.902 194.088,133.874 192.978,136.812 191.776,139.715 190.483,142.578 189.101,145.399 187.631,148.175 186.074,150.904 184.433,153.583 182.708,156.208 180.902,158.778 179.016,161.291 177.051,163.742 175.011,166.131 172.897,168.455 170.711,170.711 168.455,172.897 166.131,175.011 163.743,177.051 161.291,179.015 158.779,180.902 156.209,182.708 153.583,184.433 150.904,186.074 148.176,187.631 145.399,189.101 142.578,190.483 139.715,191.775 136.813,192.978 133.874,194.088 130.902,195.106 127.899,196.029 124.869,196.858 121.815,197.592 118.738,198.229 115.644,198.769 112.534,199.211 109.411,199.556 106.279,199.803 103.141,199.951 100,200 96.8592,199.951 93.7212,199.803 90.5894,199.556 87.467,199.212 84.3568,198.769 81.2621,198.229 78.186,197.592 75.1313,196.858 72.1012,196.029 69.0986,195.106 66.1265,194.088 63.1878,192.978 60.2855,191.776 57.4223,190.483 54.6012,189.101 51.8249,187.631 49.0961,186.074 46.4176,184.433 43.7919,182.708 41.2217,180.902 38.7095,179.016 36.2579,177.052 33.8691,175.011 31.5455,172.897 29.2896,170.711 27.1034,168.455 24.9891,166.131 22.9489,163.743 20.9847,161.291 19.0985,158.779 17.2921,156.209 15.5674,153.583 13.926,150.904 12.3695,148.176 10.8995,145.399 9.51745,142.578 8.22468,139.715 7.02249,136.813 5.91205,133.874 4.89446,130.902 3.97074,127.899 3.14178,124.869 2.40841,121.815 1.77135,118.739 1.23123,115.644 0.788578,112.534 0.44384,109.411 0.197352,106.279 0.0493564,103.141 7.92184e-10,100 0.0493314,96.8593 0.197302,93.7214 0.443765,90.5896 0.788479,87.4671 1.2311,84.357 1.7712,81.2623 2.40823,78.1861 3.14158,75.1314 3.97051,72.1013 4.89422,69.0987 5.91178,66.1266 7.02219,63.1879 8.22437,60.2856 9.51711,57.4225 10.8991,54.6013 12.3691,51.825 13.9256,49.0962 15.567,46.4177 17.2917,43.792 19.098,41.2218 20.9842,38.7097 22.9484,36.258 24.9886,33.8692 27.1028,31.5456 29.289,29.2897 31.5449,27.1035 33.8685,24.9892 36.2572,22.949 38.7089,20.9848 41.2211,19.0986 43.7913,17.2922 46.4169,15.5675 49.0954,13.926 51.8242,12.3696 54.6005,10.8996 57.4216,9.5175 60.2848,8.22473 63.1871,7.02254 66.1257,5.91209 69.0978,4.8945 72.1004,3.97077 75.1305,3.14181 78.1852,2.40844 81.2614,1.77137 84.356,1.23125 87.4662,0.788595 90.5886,0.443853 93.7204,0.19736 96.8584,0.0493606 " stroke="black" stroke-width="0.5" fill="red"/>
<polygon points="86,1 95,1 95,18 86,18 " stroke="black" stroke-width="0.5" fill="green"/>
<polygon points="95,1 104,1 104,18 95,18 " stroke="black" stroke-width="0.5" fill="green"/>
<polygon points="104,1 113,1 113,18 104,18 " stroke="black" stroke-width="0.5" fill="green"/>
<polygon points="43,18 52,18 52,35 43,35 " stroke="black" stroke-width="0.5" fill="green"/>
<polygon points="52,18 61,18 61,35 52,35 " stroke="black" stroke-width="0.5" fill="green"/>
<polygon points="61,18 70,18 70,35 61,35 " stroke="black" stroke-width="0.5" fill="green"/>
<polygon points="70,18 79,18 79,35 70,35 " stroke="black" stroke-width="0.5" fill="green"/>
<polygon points="79,18 88,18 88,35 79,35 " stroke="black" stroke-width="0.5" fill="green"/>
<polygon points="88,18 97,18 97,35 88,35 " stroke="black" stroke-width="0.5" fill="green"/>
<polygon points="97,18 106,18 106,35 97,35 " stroke="black" stroke-width="0.5" fill="green"/>
<polygon points="106,18 115,18 115,35 106,35 " stroke="black" stroke-width="0.5" fill="green"/>
<polygon points="115,18 124,18 124,35 115,35 " stroke="black" stroke-width="0.5" fill="green"/>
<polygon points="124,18 133,18 133,35 124,35 " stroke="black" stroke-width="0.5" fill="green"/>
<polygon points="133,18 142,18 142,35 133,35 " stroke="black" stroke-width="0.5" fill="green"/>
<polygon points="142,18 151,18 151,35 142,35 " stroke="black" stroke-width="0.5" fill="green"/>
<polygon points="25,35 34,35 34,52 25,52 " stroke="black" stroke-width="0.5" fill="green"/>
<polygon points="34,35 43,35 43,52 34,52 " stroke="black" stroke-width="0.5" fill="green"/>
<polygon points="43,35 52,35 52,52 43,52 " stroke="black" stroke-width="0.5" fill="green"/>
<polygon points="52,35 61,35 61,52 52,52 " stroke="black" stroke-width="0.5" fill="green"/>
<polygon points="61,35 70,35 70,52 61,52 " stroke="black" stroke-width="0.5" fill="green"/>
<polygon points="70,35 79,35 79,52 70,52 " stroke="black" stroke-width="0.5" fill="green"/>
<polygon points="79,35 88,35 88,52 79,52 " stroke="black" stroke-width="0.5" fill="green"/>
<polygon points="88,35 97,35 97,52 88,52 " stroke="black" stroke-width="0.5" fill="green"/>
<polygon points="97,35 106,35 106,52 97,52 " stroke="black" stroke-width="0.5" fill="green"/>
<polygon points="106,35 115,35 115,52 106,52 " stroke="black" stroke-width="0.5" fill="green"/>
<polygon points="115,35 124,35 124,52 115,52 " stroke="black" stroke-width="0.5" fill="green"/>
<polygon points="124,35 133,35 133,52 124,52 " stroke="black" stroke-width="0.5" fill="green"/>
<polygon points="133,35 142,35 142,52 133,52 " stroke="black" stroke-width="0.5" fill="green"/>
<polygon points="142,35 151,35 151,52 142,52 " stroke="black" stroke-width="0.5" fill="green"/>
<polygon points="151,35 160,35 160,52 151,52 " stroke="black" stroke-width="0.5" fill="green"/>
<polygon points="160,35 169,35 169,52 160,52 " stroke="black" stroke-width="0.5" fill="green"/>
<polygon points="13,52 22,52 22,69 13,69 " stroke="black" stroke-width="0.5" fill="green"/>
<polygon points="22,52 31,52 31,69 22,69 " stroke="black" stroke-width="0.5" fill="green"/>
<polygon points="31,52 40,52 40,69 31,69 " stroke="black" stroke-width="0.5" fill="green"/>
<polygon points="40,52 49,52 49,69 40,69 " stroke="black" stroke-width="0.5" fill="green"/>
<polygon points="49,52 58,52 58,69 49,69 " stroke="black" stroke-width="0.5" fill="green"/>
<polygon points="58,52 67,52 67,69 58,69 " stroke="black" stroke-width="0.5" fill="green"/>
<polygon points="67,52 76,52 76,69 67,69 " stroke="black" stroke-width="0.5" fill="green"/>
<polygon points="76,52 85,52 85,69 76,69 " stroke="black" stroke-width="0.5" fill="green"/>
<polygon points="85,52 94,52 94,69 85,69 " stroke="black" stroke-width="0.5" fill="green"/>
<polygon points="94,52 103,52 103,69 94,69 " stroke="black" stroke-width="0.5" fill="green"/>
<polygon points="103,52 112,52 112,69 103,69 " stroke="black" stroke-width="0.5" fill="green"/>
<polygon points="112,52 121,52 121,69 112,69 " stroke="black" stroke-width="0.5" fill="green"/>
<polygon points="121,52 130,52 130,69 121,69 " stroke="black" stroke-width="0.5" fill="green"/>
<polygon points="130,52 139,52 139,69 130,69 " stroke="black" stroke-width="0.5" fill="green"/>
<polygon points="139,52 148,52 148,69 139,69 " stroke="black" stroke-width="0.5" fill="green"/>
<polygon points="148,52 157,52 157,69 148,69 " stroke="black" stroke-width="0.5" fill="green"/>
<polygon points="157,52 166,52 166,69 157,69 " stroke="black" stroke-width="0.5" fill="green"/>
<polygon points="166,52 175,52 175,69 166,69 " stroke="black" stroke-width="0.5" fill="green"/>
<polygon points="175,52 184,52 184,69 175,69 " stroke="black" stroke-width="0.5" fill="green"/>
<polygon points="5,69 14,69 14,86 5,86 " stroke="black" stroke-width="0.5" fill="green"/>
<polygon points="14,69 23,69 23,86 14,86 " stroke="black" stroke-width="0.5" fill="green"/>
<polygon points="23,69 32,69 32,86 23,86 " stroke="black" stroke-width="0.5" fill="green"/>
<polygon points="32,69 41,69 41,86 32,86 " stroke="black" stroke-width="0.5" fill="green"/>
<polygon points="41,69 50,69 50,86 41,86 " stroke="black" stroke-width="0.5" fill="green"/>
<polygon points="50,69 59,69 59,86 50,86 " stroke="black" stroke-width="0.5" fill="green"/>
<polygon points="59,69 68,69 68,86 59,86 " stroke="black" stroke-width="0.5" fill="green"/>
<polygon points="68,69 77,69 77,86 68,86 " stroke="black" stroke-width="0.5" fill="green"/>
<polygon points="77,69 86,69 86,86 77,86 " stroke="black" stroke-width="0.5" fill="green"/>
<polygon points="86,69 95,69 95,86 86,86 " stroke="black" stroke-width="0.5" fill="green"/>
<polygon points="95,69 104,69 104,86 95,86 " stroke="black" stroke-width="0.5" fill="green"/>
<polygon points="104,69 113,69 113,86 104,86 " stroke="black" stroke-width="0.5" fill="green"/>
<polygon points="113,69 122,69 122,86 113,86 " stroke="black" stroke-width="0.5" fill="green"/>
<polygon points="122,69 131,69 131,86 122,86 " stroke="black" stroke-width="0.5" fill="green"/>
<polygon points="131,69 140,69 140,86 131,86 " stroke="black" stroke-width="0.5" fill="green"/>
<polygon points="140,69 149,69 149,86 140,86 " stroke="black" stroke-width="0.5" fill="green"/>
<polygon points="149,69 158,69 158,86 149,86 " stroke="black" stroke-width="0.5" fill="green"/>
<polygon points="158,69 167,69 167,86 158,86 " stroke="black" stroke-width="0.5" fill="green"/>
<polygon points="167,69 176,69 176,86 167,86 " stroke="black" stroke-width="0.5" fill="green"/>
<polygon points="176,69 185,69 185,86 176,86 " stroke="black" stroke-width="0.5" fill="green"/>
<polygon points="185,69 194,69 194,86 185,86 " stroke="black" stroke-width="0.5" fill="green"/>
<polygon points="1,86 10,86 10,103 1,103 " stroke="black" stroke-width="0.5" fill="green"/>
<polygon points="10,86 19,86 19,103 10,103 " stroke="black" stroke-width="0.5" fill="green"/>
<polygon points="19,86 28,86 28,103 19,103 " stroke="black" stroke-width="0.5" fill="green"/>
<polygon points="28,86 37,86 37,103 28,103 " stroke="black" stroke-width="0.5" fill="green"/>
<polygon points="37,86 46,86 46,103 37,103 " stroke="black" stroke-width="0.5" fill="green"/>
<polygon points="46,86 55,86 55,103 46,103 " stroke="black" stroke-width="0.5" fill="green"/>
<polygon points="55,86 64,86 64,103 55,103 " stroke="black" stroke-width="0.5" fill="green"/>
<polygon points="64,86 73,86 73,103 64,103 " stroke="black" stroke-width="0.5" fill="green"/>
<polygon points="73,86 82,86 82,103 73,103 " stroke="black" stroke-width="0.5" fill="green"/>
<polygon points="82,86 91,86 91,103 82,103 " stroke="black" stroke-width="0.5" fill="green"/>
<polygon points="91,86 100,86 100,103 91,103 " stroke="black" stroke-width="0.5" fill="green"/>
<polygon points="100,86 109,86 109,103 100,103 " stroke="black" stroke-width="0.5" fill="green"/>
<polygon points="109,86 118,86 118,103 109,103 " stroke="black" stroke-width="0.5" fill="green"/>
<polygon points="118,86 127,86 127,103 118,103 " stroke="black" stroke-width="0.5" fill="green"/>
<polygon points="127,86 136,86 136,103 127,103 " stroke="black" stroke-width="0.5" fill="green"/>
<polygon points="136,86 145,86 145,103 136,103 " stroke="black" stroke-width="0.5" fill="green"/>
<polygon points="145,86 154,86 154,103 145,103 " stroke="black" stroke-width="0.5" fill="green"/>
<polygon points="154,86 163,86 163,103 154,103 " stroke="black" stroke-width="0.5" fill="green"/>
<polygon points="163,86 172,86 172,103 163,103 " stroke="black" stroke-width="0.5" fill="green"/>
<polygon points="172,86 181,86 181,103 172,103 " stroke="black" stroke-width="0.5" fill="green"/>
<polygon points="181,86 190,86 190,103 181,103 " stroke="black" stroke-width="0.5" fill="green"/>
<polygon points="190,86 199,86 199,103 190,103 " stroke="black" stroke-width="0.5" fill="green"/>
<polygon points="3,103 12,103 12,120 3,120 " stroke="black" stroke-width="0.5" fill="green"/>
<polygon points="12,103 21,103 21,120 12,120 " stroke="black" stroke-width="0.5" fill="green"/>
<polygon points="21,103 30,103 30,120 21,120 " stroke="black" stroke-width="0.5" fill="green"/>
<polygon points="30,103 39,103 39,120 30,120 " stroke="black" stroke-width="0.5" fill="green"/>
<polygon points="39,103 48,103 48,120 39,120 " stroke="black" stroke-width="0.5" fill="green"/>
<polygon points="48,103 57,103 57,120 48,120 " stroke="black" stroke-width="0.5" fill="green"/>
<polygon points="57,103 66,103 66,120 57,120 " stroke="black" stroke-width="0.5" fill="green"/>
<polygon points="66,103 75,103 75,120 66,120 " stroke="black" stroke-width="0.5" fill="green"/>
<polygon points="75,103 84,103 84,120 75,120 " stroke="black" stroke-width="0.5" fill="green"/>
<polygon points="84,103 93,103 93,120 84,120 " stroke="black" stroke-width="0.5" fill="green"/>
<polygon points="93,103 102,103 102,120 93,120 " stroke="black" stroke-width="0.5" fill="green"/>
<polygon points="102,103 111,103 111,120 102,120 " stroke="black" stroke-width="0.5" fill="green"/>
<polygon points="111,103 120,103 120,120 111,120 " stroke="black" stroke-width="0.5" fill="green"/>
<polygon points="120,103 129,103 129,120 120,120 " stroke="black" stroke-width="0.5" fill="green"/>
<polygon points="129,103 138,103 138,120 129,120 " stroke="black" stroke-width="0.5" fill="green"/>
<polygon points="138,103 147,103 147,120 138,120 " stroke="black" stroke-width="0.5" fill="green"/>
<polygon points="147,103 156,103 156,120 147,120 " stroke="black" stroke-width="0.5" fill="green"/>
<polygon points="156,103 165,103 165,120 156,120 " stroke="black" stroke-width="0.5" fill="green"/>
<polygon points="165,103 174,103 174,120 165,120 " stroke="black" stroke-width="0.5" fill="green"/>
<polygon points="174,103 183,103 183,120 174,120 " stroke="black" stroke-width="0.5" fill="green"/>
<polygon points="183,103 192,103 192,120 183,120 " stroke="black" stroke-width="0.5" fill="green"/>
<polygon points="8,120 17,120 17,137 8,137 " stroke="black" stroke-width="0.5" fill="green"/>
<polygon points="17,120 26,120 26,137 17,137 " stroke="black" stroke-width="0.5" fill="green"/>
<polygon points="26,120 35,120 35,137 26,137 " stroke="black" stroke-width="0.5" fill="green"/>
<polygon points="35,120 44,120 44,137 35,137 " stroke="black" stroke-width="0.5" fill="green"/>
<polygon points="44,120 53,120 53,137 44,137 " stroke="black" stroke-width="0.5" fill="green"/>
<polygon points="53,120 62,120 62,137 53,137 " stroke="black" stroke-width="0.5" fill="green"/>
<polygon points="62,120 71,120 71,137 62,137 " stroke="black" stroke-width="0.5" fill="green"/>
<polygon points="71,120 80,120 80,137 71,137 " stroke="black" stroke-width="0.5" fill="green"/>
<polygon points="80,120 89,120 89,137 80,137 " stroke="black" stroke-width="0.5" fill="green"/>
<polygon points="89,120 98,120 98,137 89,137 " stroke="black" stroke-width="0.5" fill="green"/>
<polygon points="98,120 107,120 107,137 98,137 " stroke="black" stroke-width="0.5" fill="green"/>
<polygon points="107,120 116,120 116,137 107,137 " stroke="black" stroke-width="0.5" fill="green"/>
<polygon points="116,120 125,120 125,137 116,137 " stroke="black" stroke-width="0.5" fill="green"/>
<polygon points="125,120 134,120 134,137 125,137 " stroke="black" stroke-width="0.5" fill="green"/>
<polygon points="134,120 143,120 143,137 134,137 " stroke="black" stroke-width="0.5" fill="green"/>
<polygon points="143,120 152,120 152,137 143,137 " stroke="black" stroke-width="0.5" fill="green"/>
<polygon points="152,120 161,120 161,137 152,137 " stroke="black" stroke-width="0.5" fill="green"/>
<polygon points="161,120 170,120 170,137 161,137 " stroke="black" stroke-width="0.5" fill="green"/>
<polygon points="170,120 179,120 179,137 170,137 " stroke="black" stroke-width="0.5" fill="green"/>
<polygon points="179,120 188,120 188,137 179,137 " stroke="black" stroke-width="0.5" fill="green"/>
<polygon points="16,137 25,137 25,154 16,154 " stroke="black" stroke-width="0.5" fill="green"/>
<polygon points="25,137 34,137 34,154 25,154 " stroke="black" stroke-width="0.5" fill="green"/>
<polygon points="34,137 43,137 43,154 34,154 " stroke="black" stroke-width="0.5" fill="green"/>
<polygon points="43,137 52,137 52,154 43,154 " stroke="black" stroke-width="0.5" fill="green"/>
<polygon points="52,137 61,137 61,154 52,154 " stroke="black" stroke-width="0.5" fill="green"/>
<polygon points="61,137 70,137 70,154 61,154 " stroke="black" stroke-width="0.5" fill="green"/>
<polygon points="70,137 79,137 79,154 70,154 " stroke="black" stroke-width="0.5" fill="green"/>
<polygon points="79,137 88,137 88,154 79,154 " stroke="black" stroke-width="0.5" fill="green"/>
<polygon points="88,137 97,137 97,154 88,154 " stroke="black" stroke-width="0.5" fill="green"/>
<polygon points="97,137 106,137 106,154 97,154 " stroke="black" stroke-width="0.5" fill="green"/>
<polygon points="106,137 115,137 115,154 106,154 " stroke="black" stroke-width="0.5" fill="green"/>
<polygon points="115,137 124,137 124,154 115,154 " stroke="black" stroke-width="0.5" fill="green"/>
<polygon points="124,137 133,137 133,154 124,154 " stroke="black" stroke-width="0.5" fill="green"/>
<polygon points="133,137 142,137 142,154 133,154 " stroke="black" stroke-width="0.5" fill="green"/>
<polygon points="142,137 151,137 151,154 142,154 " stroke="black" stroke-width="0.5" fill="green"/>
<polygon points="151,137 160,137 160,154 151,154 " stroke="black" stroke-width="0.5" fill="green"/>
<polygon points="160,137 169,137 169,154 160,154 " stroke="black" stroke-width="0.5" fill="green"/>
<polygon points="169,137 178,137 178,154 169,154 " stroke="black" stroke-width="0.5" fill="green"/>
<polygon points="30,154 39,154 39,171 30,171 " stroke="black" stroke-width="0.5" fill="green"/>
<polygon points="39,154 48,154 48,171 39,171 " stroke="black" stroke-width="0.5" fill="green"/>
<polygon points="48,154 57,154 57,171 48,171 " stroke="black" stroke-width="0.5" fill="green"/>
<polygon points="57,154 66,154 66,171 57,171 " stroke="black" stroke-width="0.5" fill="green"/>
<polygon points="66,154 75,154 75,171 66,171 " stroke="black" stroke-width="0.5" fill="green"/>
<polygon points="75,154 84,154 84,171 75,171 " stroke="black" stroke-width="0.5" fill="green"/>
<polygon points="84,154 93,154 93,171 84,171 " stroke="black" stroke-width="0.5" fill="green"/>
<polygon points="93,154 102,154 102,171 93,171 " stroke="black" stroke-width="0.5" fill="green"/>
<polygon points="102,154 111,154 111,171 102,171 " stroke="black" stroke-width="0.5" fill="green"/>
<polygon points="111,154 120,154 120,171 111,171 " stroke="black" stroke-width="0.5" fill="green"/>
<polygon points="120,154 129,154 129,171 120,171 " stroke="black" stroke-width="0.5" fill="green"/>
<polygon points="129,154 138,154 138,171 129,171 " stroke="black" stroke-width="0.5" fill="green"/>
<polygon points="138,154 147,154 147,171 138,171 " stroke="black" stroke-width="0.5" fill="green"/>
<polygon points="147,154 156,154 156,171 147,171 " stroke="black" stroke-width="0.5" fill="green"/>
<polygon points="156,154 165,154 165,171 156,171 " stroke="black" stroke-width="0.5" fill="green"/>
<polygon points="53,171 62,171 62,188 53,188 " stroke="black" stroke-width="0.5" fill="green"/>
<polygon points="62,171 71,171 71,188 62,188 " stroke="black" stroke-width="0.5" fill="green"/>
<polygon points="71,171 80,171 80,188 71,188 " stroke="black" stroke-width="0.5" fill="green"/>
<polygon points="80,171 89,171 89,188 80,188 " stroke="black" stroke-width="0.5" fill="green"/>
<polygon points="89,171 98,171 98,188 89,188 " stroke="black" stroke-width="0.5" fill="green"/>
<polygon points="98,171 107,171 107,188 98,188 " stroke="black" stroke-width="0.5" fill="green"/>
<polygon points="107,171 116,171 116,188 107,188 " stroke="black" stroke-width="0.5" fill="green"/>
<polygon points="116,171 125,171 125,188 116,188 " stroke="black" stroke-width="0.5" fill="green"/>
<polygon points="125,171 134,171 134,188 125,188 " stroke="black" stroke-width="0.5" fill="green"/>
<polygon points="134,171 143,171 143,188 134,188 " stroke="black" stroke-width="0.5" fill="green"/>

</svg>