 <svg version=" 1.1 " baseProfile=" full "
width="100%" height="100%" 
 xmlns="http://www.w3.org/2000/svg">

<polygon points="100,0 103.141,0.0493439 106.279,0.197327 109.411,0.443803 112.533,0.788529 115.643,1.23116 118.738,1.77127 121.814,2.40832 124.869,3.14168 127.899,3.97062 130.902,4.89434 133.874,5.91191 136.812,7.02234 139.715,8.22452 142.578,9.51728 145.399,10.8993 148.175,12.3693 150.904,13.9258 153.583,15.5672 156.208,17.2919 158.778,19.0983 161.291,20.9845 163.742,22.9486 166.131,24.9889 168.455,27.1031 170.711,29.2893 172.897,31.5452 175.011,33.8688 177.051,36.2575 179.015,38.7092 180.902,41.2214 182.708,43.7916 184.433,46.4172 186.074,49.0958 187.631,51.8246 189.101,54.6009 190.483,57.422 191.775,60.2851 192.978,63.1875 194.088,66.1261 195.106,69.0982 196.029,72.1008 196.858,75.1309 197.592,78.1856 198.229,81.2618 198.769,84.3564 199.211,87.4666 199.556,90.589 199.803,93.7208 199.951,96.8588 200,99.9999 199.951,103.141 199.803,106.279 199.556,109.411 199.211,112.533 198.769,115.643 198.229,118.738 197.592,121.814 196.858,124.869 196.029,127.899 195.106,130.902 194.088,133.874 192.978,136.812 191.776,139.715 190.483,142.578 189.101,145.399 187.631,148.175 186.074,150.904 184.433,153.583 182.708,156.208 180.902,158.778 179.016,161.291 177.051,163.742 175.011,166.131 172.897,168.455 170.711,170.711 168.455,172.897 166.131,175.011 163.743,177.051 161.291,179.015 158.779,180.902 156.209,182.708 153.583,184.433 150.904,186.074 148.176,187.631 145.399,189.101 142.578,190.483 139.715,191.775 136.813,192.978 133.874,194.088 130.902,195.106 127.899,196.029 124.869,196.858 121.815,197.592 118.738,198.229 115.644,198.769 112.534,199.211 109.411,199.556 106.279,199.803 103.141,199.951 100,200 96.8592,199.951 93.7212,199.803 90.5894,199.556 87.467,199.212 84.3568,198.769 81.2621,198.229 78.186,197.592 75.1313,196.858 72.1012,196.029 69.0986,195.106 66.1265,194.088 63.1878,192.978 60.2855,191.776 57.4223,190.483 54.6012,189.101 51.8249,187.631 49.0961,186.074 46.4176,184.433 43.7919,182.708 41.2217,180.902 38.7095,179.016 36.2579,177.052 33.8691,175.011 31.5455,172.897 29.2896,170.711 27.1034,168.455 24.9891,166.131 22.9489,163.743 20.9847,161.291 19.0985,158.779 17.2921,156.209 15.5674,153.583 13.926,150.904 12.3695,148.176 10.8995,145.399 9.51745,142.578 8.22468,139.715 7.02249,136.813 5.91205,133.874 4.89446,130.902 3.97074,127.899 3.14178,124.869 2.40841,121.815 1.77135,118.739 1.23123,115.644 0.788578,112.534 0.44384,109.411 0.197352,106.279 0.0493564,103.141 7.92184e-10,100 0.0493314,96.8593 0.197302,93.7214 0.443765,90.5896 0.788479,87.4671 1.2311,84.357 1.7712,81.2623 2.40823,78.1861 3.14158,75.1314 3.97051,72.1013 4.89422,69.0987 5.91178,66.1266 7.02219,63.1879 8.22437,60.2856 9.51711,57.4225 10.8991,54.6013 12.3691,51.825 13.9256,49.0962 15.567,46.4177 17.2917,43.792 19.098,41.2218 20.9842,38.7097 22.9484,36.258 24.9886,33.8692 27.1028,31.5456 29.289,29.2897 31.5449,27.1035 33.8685,24.9892 36.2572,22.949 38.7089,20.9848 41.2211,19.0986 43.7913,17.2922 46.4169,15.5675 49.0954,13.926 51.8242,12.3696 54.6005,10.8996 57.4216,9.5175 60.2848,8.22473 63.1871,7.02254 66.1257,5.91209 69.0978,4.8945 72.1004,3.97077 75.1305,3.14181 78.1852,2.40844 81.2614,1.77137 84.356,1.23125 87.4662,0.788595 90.5886,0.443853 93.7204,0.19736 96.8584,0.0493606 " stroke="black" stroke-width="0.5" fill="red"/>
<polygon points="100,0 92,13.8564 108,13.8564 " stroke="black" stroke-width="0.5" fill="green"/>
<polygon points="51,13 67,13 59,26.8564 " stroke="black" stroke-width="0.5" fill="green"/>
<polygon points="67,13 59,26.8564 75,26.8564 " stroke="black" stroke-width="0.5" fill="green"/>
<polygon points="67,13 83,13 75,26.8564 " stroke="black" stroke-width="0.5" fill="green"/>
<polygon points="83,13 75,26.8564 91,26.8564 " stroke="black" stroke-width="0.5" fill="green"/>
<polygon points="83,13 99,13 91,26.8564 " stroke="black" stroke-width="0.5" fill="green"/>
<polygon points="99,13 91,26.8564 107,26.8564 " stroke="black" stroke-width="0.5" fill="green"/>
<polygon points="99,13 115,13 107,26.8564 " stroke="black" stroke-width="0.5" fill="green"/>
<polygon points="115,13 107,26.8564 123,26.8564 " stroke="black" stroke-width="0.5" fill="green"/>
<polygon points="115,13 131,13 123,26.8564 " stroke="black" stroke-width="0.5" fill="green"/>
<polygon points="131,13 123,26.8564 139,26.8564 " stroke="black" stroke-width="0.5" fill="green"/>
<polygon points="131,13 147,13 139,26.8564 " stroke="black" stroke-width="0.5" fill="green"/>
<polygon points="147,13 139,26.8564 155,26.8564 " stroke="black" stroke-width="0.5" fill="green"/>
<polygon points="33,26 25,39.8564 41,39.8564 " stroke="black" stroke-width="0.5" fill="green"/>
<polygon points="33,26 49,26 41,39.8564 " stroke="black" stroke-width="0.5" fill="green"/>
<polygon points="49,26 41,39.8564 57,39.8564 " stroke="black" stroke-width="0.5" fill="green"/>
<polygon points="49,26 65,26 57,39.8564 " stroke="black" stroke-width="0.5" fill="green"/>
<polygon points="65,26 57,39.8564 73,39.8564 " stroke="black" stroke-width="0.5" fill="green"/>
<polygon points="65,26 81,26 73,39.8564 " stroke="black" stroke-width="0.5" fill="green"/>
<polygon points="81,26 73,39.8564 89,39.8564 " stroke="black" stroke-width="0.5" fill="green"/>
<polygon points="81,26 97,26 89,39.8564 " stroke="black" stroke-width="0.5" fill="green"/>
<polygon points="97,26 89,39.8564 105,39.8564 " stroke="black" stroke-width="0.5" fill="green"/>
<polygon points="97,26 113,26 105,39.8564 " stroke="black" stroke-width="0.5" fill="green"/>
<polygon points="113,26 105,39.8564 121,39.8564 " stroke="black" stroke-width="0.5" fill="green"/>
<polygon points="113,26 129,26 121,39.8564 " stroke="black" stroke-width="0.5" fill="green"/>
<polygon points="129,26 121,39.8564 137,39.8564 " stroke="black" stroke-width="0.5" fill="green"/>
<polygon points="129,26 145,26 137,39.8564 " stroke="black" stroke-width="0.5" fill="green"/>
<polygon points="145,26 137,39.8564 153,39.8564 " stroke="black" stroke-width="0.5" fill="green"/>
<polygon points="145,26 161,26 153,39.8564 " stroke="black" stroke-width="0.5" fill="green"/>
<polygon points="161,26 153,39.8564 169,39.8564 " stroke="black" stroke-width="0.5" fill="green"/>
<polygon points="21,39 37,39 29,52.8564 " stroke="black" stroke-width="0.5" fill="green"/>
<polygon points="37,39 29,52.8564 45,52.8564 " stroke="black" stroke-width="0.5" fill="green"/>
<polygon points="37,39 53,39 45,52.8564 " stroke="black" stroke-width="0.5" fill="green"/>
<polygon points="53,39 45,52.8564 61,52.8564 " stroke="black" stroke-width="0.5" fill="green"/>
<polygon points="53,39 69,39 61,52.8564 " stroke="black" stroke-width="0.5" fill="green"/>
<polygon points="69,39 61,52.8564 77,52.8564 " stroke="black" stroke-width="0.5" fill="green"/>
<polygon points="69,39 85,39 77,52.8564 " stroke="black" stroke-width="0.5" fill="green"/>
<polygon points="85,39 77,52.8564 93,52.8564 " stroke="black" stroke-width="0.5" fill="green"/>
<polygon points="85,39 101,39 93,52.8564 " stroke="black" stroke-width="0.5" fill="green"/>
<polygon points="101,39 93,52.8564 109,52.8564 " stroke="black" stroke-width="0.5" fill="green"/>
<polygon points="101,39 117,39 109,52.8564 " stroke="black" stroke-width="0.5" fill="green"/>
<polygon points="117,39 109,52.8564 125,52.8564 " stroke="black" stroke-width="0.5" fill="green"/>
<polygon points="117,39 133,39 125,52.8564 " stroke="black" stroke-width="0.5" fill="green"/>
<polygon points="133,39 125,52.8564 141,52.8564 " stroke="black" stroke-width="0.5" fill="green"/>
<polygon points="133,39 149,39 141,52.8564 " stroke="black" stroke-width="0.5" fill="green"/>
<polygon points="149,39 141,52.8564 157,52.8564 " stroke="black" stroke-width="0.5" fill="green"/>
<polygon points="149,39 165,39 157,52.8564 " stroke="black" stroke-width="0.5" fill="green"/>
<polygon points="165,39 157,52.8564 173,52.8564 " stroke="black" stroke-width="0.5" fill="green"/>
<polygon points="15,52 7,65.8564 23,65.8564 " stroke="black" stroke-width="0.5" fill="green"/>
<polygon points="15,52 31,52 23,65.8564 " stroke="black" stroke-width="0.5" fill="green"/>
<polygon points="31,52 23,65.8564 39,65.8564 " stroke="black" stroke-width="0.5" fill="green"/>
<polygon points="31,52 47,52 39,65.8564 " stroke="black" stroke-width="0.5" fill="green"/>
<polygon points="47,52 39,65.8564 55,65.8564 " stroke="black" stroke-width="0.5" fill="green"/>
<polygon points="47,52 63,52 55,65.8564 " stroke="black" stroke-width="0.5" fill="green"/>
<polygon points="63,52 55,65.8564 71,65.8564 " stroke="black" stroke-width="0.5" fill="green"/>
<polygon points="63,52 79,52 71,65.8564 " stroke="black" stroke-width="0.5" fill="green"/>
<polygon points="79,52 71,65.8564 87,65.8564 " stroke="black" stroke-width="0.5" fill="green"/>
<polygon points="79,52 95,52 87,65.8564 " stroke="black" stroke-width="0.5" fill="green"/>
<polygon points="95,52 87,65.8564 103,65.8564 " stroke="black" stroke-width="0.5" fill="green"/>
<polygon points="95,52 111,52 103,65.8564 " stroke="black" stroke-width="0.5" fill="green"/>
<polygon points="111,52 103,65.8564 119,65.8564 " stroke="black" stroke-width="0.5" fill="green"/>
<polygon points="111,52 127,52 119,65.8564 " stroke="black" stroke-width="0.5" fill="green"/>
<polygon points="127,52 119,65.8564 135,65.8564 " stroke="black" stroke-width="0.5" fill="green"/>
<polygon points="127,52 143,52 135,65.8564 " stroke="black" stroke-width="0.5" fill="green"/>
<polygon points="143,52 135,65.8564 151,65.8564 " stroke="black" stroke-width="0.5" fill="green"/>
<polygon points="143,52 159,52 151,65.8564 " stroke="black" stroke-width="0.5" fill="green"/>
<polygon points="159,52 151,65.8564 167,65.8564 " stroke="black" stroke-width="0.5" fill="green"/>
<polygon points="159,52 175,52 167,65.8564 " stroke="black" stroke-width="0.5" fill="green"/>
<polygon points="175,52 167,65.8564 183,65.8564 " stroke="black" stroke-width="0.5" fill="green"/>
<polygon points="7,65 23,65 15,78.8564 " stroke="black" stroke-width="0.5" fill="green"/>
<polygon points="23,65 15,78.8564 31,78.8564 " stroke="black" stroke-width="0.5" fill="green"/>
<polygon points="23,65 39,65 31,78.8564 " stroke="black" stroke-width="0.5" fill="green"/>
<polygon points="39,65 31,78.8564 47,78.8564 " stroke="black" stroke-width="0.5" fill="green"/>
<polygon points="39,65 55,65 47,78.8564 " stroke="black" stroke-width="0.5" fill="green"/>
<polygon points="55,65 47,78.8564 63,78.8564 " stroke="black" stroke-width="0.5" fill="green"/>
<polygon points="55,65 71,65 63,78.8564 " stroke="black" stroke-width="0.5" fill="green"/>
<polygon points="71,65 63,78.8564 79,78.8564 " stroke="black" stroke-width="0.5" fill="green"/>
<polygon points="71,65 87,65 79,78.8564 " stroke="black" stroke-width="0.5" fill="green"/>
<polygon points="87,65 79,78.8564 95,78.8564 " stroke="black" stroke-width="0.5" fill="green"/>
<polygon points="87,65 103,65 95,78.8564 " stroke="black" stroke-width="0.5" fill="green"/>
<polygon points="103,65 95,78.8564 111,78.8564 " stroke="black" stroke-width="0.5" fill="green"/>
<polygon points="103,65 119,65 111,78.8564 " stroke="black" stroke-width="0.5" fill="green"/>
<polygon points="119,65 111,78.8564 127,78.8564 " stroke="black" stroke-width="0.5" fill="green"/>
<polygon points="119,65 135,65 127,78.8564 " stroke="black" stroke-width="0.5" fill="green"/>
<polygon points="135,65 127,78.8564 143,78.8564 " stroke="black" stroke-width="0.5" fill="green"/>
<polygon points="135,65 151,65 143,78.8564 " stroke="black" stroke-width="0.5" fill="green"/>
<polygon points="151,65 143,78.8564 159,78.8564 " stroke="black" stroke-width="0.5" fill="green"/>
<polygon points="151,65 167,65 159,78.8564 " stroke="black" stroke-width="0.5" fill="green"/>
<polygon points="167,65 159,78.8564 175,78.8564 " stroke="black" stroke-width="0.5" fill="green"/>
<polygon points="167,65 183,65 175,78.8564 " stroke="black" stroke-width="0.5" fill="green"/>
<polygon points="183,65 175,78.8564 191,78.8564 " stroke="black" stroke-width="0.5" fill="green"/>
<polygon points="9,78 1,91.8564 17,91.8564 " stroke="black" stroke-width="0.5" fill="green"/>
<polygon points="9,78 25,78 17,91.8564 " stroke="black" stroke-width="0.5" fill="green"/>
<polygon points="25,78 17,91.8564 33,91.8564 " stroke="black" stroke-width="0.5" fill="green"/>
<polygon points="25,78 41,78 33,91.8564 " stroke="black" stroke-width="0.5" fill="green"/>
<polygon points="41,78 33,91.8564 49,91.8564 " stroke="black" stroke-width="0.5" fill="green"/>
<polygon points="41,78 57,78 49,91.8564 " stroke="black" stroke-width="0.5" fill="green"/>
<polygon points="57,78 49,91.8564 65,91.8564 " stroke="black" stroke-width="0.5" fill="green"/>
<polygon points="57,78 73,78 65,91.8564 " stroke="black" stroke-width="0.5" fill="green"/>
<polygon points="73,78 65,91.8564 81,91.8564 " stroke="black" stroke-width="0.5" fill="green"/>
<polygon points="73,78 89,78 81,91.8564 " stroke="black" stroke-width="0.5" fill="green"/>
<polygon points="89,78 81,91.8564 97,91.8564 " stroke="black" stroke-width="0.5" fill="green"/>
<polygon points="89,78 105,78 97,91.8564 " stroke="black" stroke-width="0.5" fill="green"/>
<polygon points="105,78 97,91.8564 113,91.8564 " stroke="black" stroke-width="0.5" fill="green"/>
<polygon points="105,78 121,78 113,91.8564 " stroke="black" stroke-width="0.5" fill="green"/>
<polygon points="121,78 113,91.8564 129,91.8564 " stroke="black" stroke-width="0.5" fill="green"/>
<polygon points="121,78 137,78 129,91.8564 " stroke="black" stroke-width="0.5" fill="green"/>
<polygon points="137,78 129,91.8564 145,91.8564 " stroke="black" stroke-width="0.5" fill="green"/>
<polygon points="137,78 153,78 145,91.8564 " stroke="black" stroke-width="0.5" fill="green"/>
<polygon points="153,78 145,91.8564 161,91.8564 " stroke="black" stroke-width="0.5" fill="green"/>
<polygon points="153,78 169,78 161,91.8564 " stroke="black" stroke-width="0.5" fill="green"/>
<polygon points="169,78 161,91.8564 177,91.8564 " stroke="black" stroke-width="0.5" fill="green"/>
<polygon points="169,78 185,78 177,91.8564 " stroke="black" stroke-width="0.5" fill="green"/>
<polygon points="185,78 177,91.8564 193,91.8564 " stroke="black" stroke-width="0.5" fill="green"/>
<polygon points="1,91 17,91 9,104.856 " stroke="black" stroke-width="0.5" fill="green"/>
<polygon points="17,91 9,104.856 25,104.856 " stroke="black" stroke-width="0.5" fill="green"/>
<polygon points="17,91 33,91 25,104.856 " stroke="black" stroke-width="0.5" fill="green"/>
<polygon points="33,91 25,104.856 41,104.856 " stroke="black" stroke-width="0.5" fill="green"/>
<polygon points="33,91 49,91 41,104.856 " stroke="black" stroke-width="0.5" fill="green"/>
<polygon points="49,91 41,104.856 57,104.856 " stroke="black" stroke-width="0.5" fill="green"/>
<polygon points="49,91 65,91 57,104.856 " stroke="black" stroke-width="0.5" fill="green"/>
<polygon points="65,91 57,104.856 73,104.856 " stroke="black" stroke-width="0.5" fill="green"/>
<polygon points="65,91 81,91 73,104.856 " stroke="black" stroke-width="0.5" fill="green"/>
<polygon points="81,91 73,104.856 89,104.856 " stroke="black" stroke-width="0.5" fill="green"/>
<polygon points="81,91 97,91 89,104.856 " stroke="black" stroke-width="0.5" fill="green"/>
<polygon points="97,91 89,104.856 105,104.856 " stroke="black" stroke-width="0.5" fill="green"/>
<polygon points="97,91 113,91 105,104.856 " stroke="black" stroke-width="0.5" fill="green"/>
<polygon points="113,91 105,104.856 121,104.856 " stroke="black" stroke-width="0.5" fill="green"/>
<polygon points="113,91 129,91 121,104.856 " stroke="black" stroke-width="0.5" fill="green"/>
<polygon points="129,91 121,104.856 137,104.856 " stroke="black" stroke-width="0.5" fill="green"/>
<polygon points="129,91 145,91 137,104.856 " stroke="black" stroke-width="0.5" fill="green"/>
<polygon points="145,91 137,104.856 153,104.856 " stroke="black" stroke-width="0.5" fill="green"/>
<polygon points="145,91 161,91 153,104.856 " stroke="black" stroke-width="0.5" fill="green"/>
<polygon points="161,91 153,104.856 169,104.856 " stroke="black" stroke-width="0.5" fill="green"/>
<polygon points="161,91 177,91 169,104.856 " stroke="black" stroke-width="0.5" fill="green"/>
<polygon points="177,91 169,104.856 185,104.856 " stroke="black" stroke-width="0.5" fill="green"/>
<polygon points="177,91 193,91 185,104.856 " stroke="black" stroke-width="0.5" fill="green"/>
<polygon points="10,104 2,117.856 18,117.856 " stroke="black" stroke-width="0.5" fill="green"/>
<polygon points="10,104 26,104 18,117.856 " stroke="black" stroke-width="0.5" fill="green"/>
<polygon points="26,104 18,117.856 34,117.856 " stroke="black" stroke-width="0.5" fill="green"/>
<polygon points="26,104 42,104 34,117.856 " stroke="black" stroke-width="0.5" fill="green"/>
<polygon points="42,104 34,117.856 50,117.856 " stroke="black" stroke-width="0.5" fill="green"/>
<polygon points="42,104 58,104 50,117.856 " stroke="black" stroke-width="0.5" fill="green"/>
<polygon points="58,104 50,117.856 66,117.856 " stroke="black" stroke-width="0.5" fill="green"/>
<polygon points="58,104 74,104 66,117.856 " stroke="black" stroke-width="0.5" fill="green"/>
<polygon points="74,104 66,117.856 82,117.856 " stroke="black" stroke-width="0.5" fill="green"/>
<polygon points="74,104 90,104 82,117.856 " stroke="black" stroke-width="0.5" fill="green"/>
<polygon points="90,104 82,117.856 98,117.856 " stroke="black" stroke-width="0.5" fill="green"/>
<polygon points="90,104 106,104 98,117.856 " stroke="black" stroke-width="0.5" fill="green"/>
<polygon points="106,104 98,117.856 114,117.856 " stroke="black" stroke-width="0.5" fill="green"/>
<polygon points="106,104 122,104 114,117.856 " stroke="black" stroke-width="0.5" fill="green"/>
<polygon points="122,104 114,117.856 130,117.856 " stroke="black" stroke-width="0.5" fill="green"/>
<polygon points="122,104 138,104 130,117.856 " stroke="black" stroke-width="0.5" fill="green"/>
<polygon points="138,104 130,117.856 146,117.856 " stroke="black" stroke-width="0.5" fill="green"/>
<polygon points="138,104 154,104 146,117.856 " stroke="black" stroke-width="0.5" fill="green"/>
<polygon points="154,104 146,117.856 162,117.856 " stroke="black" stroke-width="0.5" fill="green"/>
<polygon points="154,104 170,104 162,117.856 " stroke="black" stroke-width="0.5" fill="green"/>
<polygon points="170,104 162,117.856 178,117.856 " stroke="black" stroke-width="0.5" fill="green"/>
<polygon points="170,104 186,104 178,117.856 " stroke="black" stroke-width="0.5" fill="green"/>
<polygon points="186,104 178,117.856 194,117.856 " stroke="black" stroke-width="0.5" fill="green"/>
<polygon points="2,117 18,117 10,130.856 " stroke="black" stroke-width="0.5" fill="green"/>
<polygon points="18,117 10,130.856 26,130.856 " stroke="black" stroke-width="0.5" fill="green"/>
<polygon points="18,117 34,117 26,130.856 " stroke="black" stroke-width="0.5" fill="green"/>
<polygon points="34,117 26,130.856 42,130.856 " stroke="black" stroke-width="0.5" fill="green"/>
<polygon points="34,117 50,117 42,130.856 " stroke="black" stroke-width="0.5" fill="green"/>
<polygon points="50,117 42,130.856 58,130.856 " stroke="black" stroke-width="0.5" fill="green"/>
<polygon points="50,117 66,117 58,130.856 " stroke="black" stroke-width="0.5" fill="green"/>
<polygon points="66,117 58,130.856 74,130.856 " stroke="black" stroke-width="0.5" fill="green"/>
<polygon points="66,117 82,117 74,130.856 " stroke="black" stroke-width="0.5" fill="green"/>
<polygon points="82,117 74,130.856 90,130.856 " stroke="black" stroke-width="0.5" fill="green"/>
<polygon points="82,117 98,117 90,130.856 " stroke="black" stroke-width="0.5" fill="green"/>
<polygon points="98,117 90,130.856 106,130.856 " stroke="black" stroke-width="0.5" fill="green"/>
<polygon points="98,117 114,117 106,130.856 " stroke="black" stroke-width="0.5" fill="green"/>
<polygon points="114,117 106,130.856 122,130.856 " stroke="black" stroke-width="0.5" fill="green"/>
<polygon points="114,117 130,117 122,130.856 " stroke="black" stroke-width="0.5" fill="green"/>
<polygon points="130,117 122,130.856 138,130.856 " stroke="black" stroke-width="0.5" fill="green"/>
<polygon points="130,117 146,117 138,130.856 " stroke="black" stroke-width="0.5" fill="green"/>
<polygon points="146,117 138,130.856 154,130.856 " stroke="black" stroke-width="0.5" fill="green"/>
<polygon points="146,117 162,117 154,130.856 " stroke="black" stroke-width="0.5" fill="green"/>
<polygon points="162,117 154,130.856 170,130.856 " stroke="black" stroke-width="0.5" fill="green"/>
<polygon points="162,117 178,117 170,130.856 " stroke="black" stroke-width="0.5" fill="green"/>
<polygon points="178,117 170,130.856 186,130.856 " stroke="black" stroke-width="0.5" fill="green"/>
<polygon points="178,117 194,117 186,130.856 " stroke="black" stroke-width="0.5" fill="green"/>
<polygon points="19,130 11,143.856 27,143.856 " stroke="black" stroke-width="0.5" fill="green"/>
<polygon points="19,130 35,130 27,143.856 " stroke="black" stroke-width="0.5" fill="green"/>
<polygon points="35,130 27,143.856 43,143.856 " stroke="black" stroke-width="0.5" fill="green"/>
<polygon points="35,130 51,130 43,143.856 " stroke="black" stroke-width="0.5" fill="green"/>
<polygon points="51,130 43,143.856 59,143.856 " stroke="black" stroke-width="0.5" fill="green"/>
<polygon points="51,130 67,130 59,143.856 " stroke="black" stroke-width="0.5" fill="green"/>
<polygon points="67,130 59,143.856 75,143.856 " stroke="black" stroke-width="0.5" fill="green"/>
<polygon points="67,130 83,130 75,143.856 " stroke="black" stroke-width="0.5" fill="green"/>
<polygon points="83,130 75,143.856 91,143.856 " stroke="black" stroke-width="0.5" fill="green"/>
<polygon points="83,130 99,130 91,143.856 " stroke="black" stroke-width="0.5" fill="green"/>
<polygon points="99,130 91,143.856 107,143.856 " stroke="black" stroke-width="0.5" fill="green"/>
<polygon points="99,130 115,130 107,143.856 " stroke="black" stroke-width="0.5" fill="green"/>
<polygon points="115,130 107,143.856 123,143.856 " stroke="black" stroke-width="0.5" fill="green"/>
<polygon points="115,130 131,130 123,143.856 " stroke="black" stroke-width="0.5" fill="green"/>
<polygon points="131,130 123,143.856 139,143.856 " stroke="black" stroke-width="0.5" fill="green"/>
<polygon points="131,130 147,130 139,143.856 " stroke="black" stroke-width="0.5" fill="green"/>
<polygon points="147,130 139,143.856 155,143.856 " stroke="black" stroke-width="0.5" fill="green"/>
<polygon points="147,130 163,130 155,143.856 " stroke="black" stroke-width="0.5" fill="green"/>
<polygon points="163,130 155,143.856 171,143.856 " stroke="black" stroke-width="0.5" fill="green"/>
<polygon points="163,130 179,130 171,143.856 " stroke="black" stroke-width="0.5" fill="green"/>
<polygon points="179,130 171,143.856 187,143.856 " stroke="black" stroke-width="0.5" fill="green"/>
<polygon points="179,130 195,130 187,143.856 " stroke="black" stroke-width="0.5" fill="green"/>
<polygon points="10,143 26,143 18,156.856 " stroke="black" stroke-width="0.5" fill="green"/>
<polygon points="26,143 18,156.856 34,156.856 " stroke="black" stroke-width="0.5" fill="green"/>
<polygon points="26,143 42,143 34,156.856 " stroke="black" stroke-width="0.5" fill="green"/>
<polygon points="42,143 34,156.856 50,156.856 " stroke="black" stroke-width="0.5" fill="green"/>
<polygon points="42,143 58,143 50,156.856 " stroke="black" stroke-width="0.5" fill="green"/>
<polygon points="58,143 50,156.856 66,156.856 " stroke="black" stroke-width="0.5" fill="green"/>
<polygon points="58,143 74,143 66,156.856 " stroke="black" stroke-width="0.5" fill="green"/>
<polygon points="74,143 66,156.856 82,156.856 " stroke="black" stroke-width="0.5" fill="green"/>
<polygon points="74,143 90,143 82,156.856 " stroke="black" stroke-width="0.5" fill="green"/>
<polygon points="90,143 82,156.856 98,156.856 " stroke="black" stroke-width="0.5" fill="green"/>
<polygon points="90,143 106,143 98,156.856 " stroke="black" stroke-width="0.5" fill="green"/>
<polygon points="106,143 98,156.856 114,156.856 " stroke="black" stroke-width="0.5" fill="green"/>
<polygon points="106,143 122,143 114,156.856 " stroke="black" stroke-width="0.5" fill="green"/>
<polygon points="122,143 114,156.856 130,156.856 " stroke="black" stroke-width="0.5" fill="green"/>
<polygon points="122,143 138,143 130,156.856 " stroke="black" stroke-width="0.5" fill="green"/>
<polygon points="138,143 130,156.856 146,156.856 " stroke="black" stroke-width="0.5" fill="green"/>
<polygon points="138,143 154,143 146,156.856 " stroke="black" stroke-width="0.5" fill="green"/>
<polygon points="154,143 146,156.856 162,156.856 " stroke="black" stroke-width="0.5" fill="green"/>
<polygon points="154,143 170,143 162,156.856 " stroke="black" stroke-width="0.5" fill="green"/>
<polygon points="170,143 162,156.856 178,156.856 " stroke="black" stroke-width="0.5" fill="green"/>
<polygon points="170,143 186,143 178,156.856 " stroke="black" stroke-width="0.5" fill="green"/>
<polygon points="37,156 29,169.856 45,169.856 " stroke="black" stroke-width="0.5" fill="green"/>
<polygon points="37,156 53,156 45,169.856 " stroke="black" stroke-width="0.5" fill="green"/>
<polygon points="53,156 45,169.856 61,169.856 " stroke="black" stroke-width="0.5" fill="green"/>
<polygon points="53,156 69,156 61,169.856 " stroke="black" stroke-width="0.5" fill="green"/>
<polygon points="69,156 61,169.856 77,169.856 " stroke="black" stroke-width="0.5" fill="green"/>
<polygon points="69,156 85,156 77,169.856 " stroke="black" stroke-width="0.5" fill="green"/>
<polygon points="85,156 77,169.856 93,169.856 " stroke="black" stroke-width="0.5" fill="green"/>
<polygon points="85,156 101,156 93,169.856 " stroke="black" stroke-width="0.5" fill="green"/>
<polygon points="101,156 93,169.856 109,169.856 " stroke="black" stroke-width="0.5" fill="green"/>
<polygon points="101,156 117,156 109,169.856 " stroke="black" stroke-width="0.5" fill="green"/>
<polygon points="117,156 109,169.856 125,169.856 " stroke="black" stroke-width="0.5" fill="green"/>
<polygon points="117,156 133,156 125,169.856 " stroke="black" stroke-width="0.5" fill="green"/>
<polygon points="133,156 125,169.856 141,169.856 " stroke="black" stroke-width="0.5" fill="green"/>
<polygon points="133,156 149,156 141,169.856 " stroke="black" stroke-width="0.5" fill="green"/>
<polygon points="149,156 141,169.856 157,169.856 " stroke="black" stroke-width="0.5" fill="green"/>
<polygon points="149,156 165,156 157,169.856 " stroke="black" stroke-width="0.5" fill="green"/>
<polygon points="37,169 53,169 45,182.856 " stroke="black" stroke-width="0.5" fill="green"/>
<polygon points="53,169 45,182.856 61,182.856 " stroke="black" stroke-width="0.5" fill="green"/>
<polygon points="53,169 69,169 61,182.856 " stroke="black" stroke-width="0.5" fill="green"/>
<polygon points="69,169 61,182.856 77,182.856 " stroke="black" stroke-width="0.5" fill="green"/>
<polygon points="69,169 85,169 77,182.856 " stroke="black" stroke-width="0.5" fill="green"/>
<polygon points="85,169 77,182.856 93,182.856 " stroke="black" stroke-width="0.5" fill="green"/>
<polygon points="85,169 101,169 93,182.856 " stroke="black" stroke-width="0.5" fill="green"/>
<polygon points="101,169 93,182.856 109,182.856 " stroke="black" stroke-width="0.5" fill="green"/>
<polygon points="101,169 117,169 109,182.856 " stroke="black" stroke-width="0.5" fill="green"/>
<polygon points="117,169 109,182.856 125,182.856 " stroke="black" stroke-width="0.5" fill="green"/>
<polygon points="117,169 133,169 125,182.856 " stroke="black" stroke-width="0.5" fill="green"/>
<polygon points="133,169 125,182.856 141,182.856 " stroke="black" stroke-width="0.5" fill="green"/>
<polygon points="133,169 149,169 141,182.856 " stroke="black" stroke-width="0.5" fill="green"/>
<polygon points="80,182 72,195.856 88,195.856 " stroke="black" stroke-width="0.5" fill="green"/>
<polygon points="80,182 96,182 88,195.856 " stroke="black" stroke-width="0.5" fill="green"/>
<polygon points="96,182 88,195.856 104,195.856 " stroke="black" stroke-width="0.5" fill="green"/>
<polygon points="96,182 112,182 104,195.856 " stroke="black" stroke-width="0.5" fill="green"/>
<polygon points="112,182 104,195.856 120,195.856 " stroke="black" stroke-width="0.5" fill="green"/>
<polygon points="112,182 128,182 120,195.856 " stroke="black" stroke-width="0.5" fill="green"/>

</svg>