 <svg version=" 1.1 " baseProfile=" full "
 xmlns="http://www.w3.org/2000/svg">

<polygon points="150,0 300,259.808 0,259.808" stroke="black" stroke-width="0.5" fill="red"/>

<rect x="5.19615" y="250.808" width="17" height="9" stroke="black" stroke-width="0.5" fill="green"/>

<rect x="22.1962" y="250.808" width="17" height="9" stroke="black" stroke-width="0.5" fill="green"/>

<rect x="39.1962" y="250.808" width="17" height="9" stroke="black" stroke-width="0.5" fill="green"/>

<rect x="56.1962" y="250.808" width="17" height="9" stroke="black" stroke-width="0.5" fill="green"/>

<rect x="73.1962" y="250.808" width="17" height="9" stroke="black" stroke-width="0.5" fill="green"/>

<rect x="90.1962" y="250.808" width="17" height="9" stroke="black" stroke-width="0.5" fill="green"/>

<rect x="107.196" y="250.808" width="17" height="9" stroke="black" stroke-width="0.5" fill="green"/>

<rect x="124.196" y="250.808" width="17" height="9" stroke="black" stroke-width="0.5" fill="green"/>

<rect x="141.196" y="250.808" width="17" height="9" stroke="black" stroke-width="0.5" fill="green"/>

<rect x="158.196" y="250.808" width="17" height="9" stroke="black" stroke-width="0.5" fill="green"/>

<rect x="175.196" y="250.808" width="17" height="9" stroke="black" stroke-width="0.5" fill="green"/>

<rect x="192.196" y="250.808" width="17" height="9" stroke="black" stroke-width="0.5" fill="green"/>

<rect x="209.196" y="250.808" width="17" height="9" stroke="black" stroke-width="0.5" fill="green"/>

<rect x="226.196" y="250.808" width="17" height="9" stroke="black" stroke-width="0.5" fill="green"/>

<rect x="243.196" y="250.808" width="17" height="9" stroke="black" stroke-width="0.5" fill="green"/>

<rect x="260.196" y="250.808" width="17" height="9" stroke="black" stroke-width="0.5" fill="green"/>

<rect x="10.3923" y="241.808" width="17" height="9" stroke="black" stroke-width="0.5" fill="green"/>

<rect x="27.3923" y="241.808" width="17" height="9" stroke="black" stroke-width="0.5" fill="green"/>

<rect x="44.3923" y="241.808" width="17" height="9" stroke="black" stroke-width="0.5" fill="green"/>

<rect x="61.3923" y="241.808" width="17" height="9" stroke="black" stroke-width="0.5" fill="green"/>

<rect x="78.3923" y="241.808" width="17" height="9" stroke="black" stroke-width="0.5" fill="green"/>

<rect x="95.3923" y="241.808" width="17" height="9" stroke="black" stroke-width="0.5" fill="green"/>

<rect x="112.392" y="241.808" width="17" height="9" stroke="black" stroke-width="0.5" fill="green"/>

<rect x="129.392" y="241.808" width="17" height="9" stroke="black" stroke-width="0.5" fill="green"/>

<rect x="146.392" y="241.808" width="17" height="9" stroke="black" stroke-width="0.5" fill="green"/>

<rect x="163.392" y="241.808" width="17" height="9" stroke="black" stroke-width="0.5" fill="green"/>

<rect x="180.392" y="241.808" width="17" height="9" stroke="black" stroke-width="0.5" fill="green"/>

<rect x="197.392" y="241.808" width="17" height="9" stroke="black" stroke-width="0.5" fill="green"/>

<rect x="214.392" y="241.808" width="17" height="9" stroke="black" stroke-width="0.5" fill="green"/>

<rect x="231.392" y="241.808" width="17" height="9" stroke="black" stroke-width="0.5" fill="green"/>

<rect x="248.392" y="241.808" width="17" height="9" stroke="black" stroke-width="0.5" fill="green"/>

<rect x="265.392" y="241.808" width="17" height="9" stroke="black" stroke-width="0.5" fill="green"/>

<rect x="15.5885" y="232.808" width="17" height="9" stroke="black" stroke-width="0.5" fill="green"/>

<rect x="32.5885" y="232.808" width="17" height="9" stroke="black" stroke-width="0.5" fill="green"/>

<rect x="49.5885" y="232.808" width="17" height="9" stroke="black" stroke-width="0.5" fill="green"/>

<rect x="66.5885" y="232.808" width="17" height="9" stroke="black" stroke-width="0.5" fill="green"/>

<rect x="83.5885" y="232.808" width="17" height="9" stroke="black" stroke-width="0.5" fill="green"/>

<rect x="100.588" y="232.808" width="17" height="9" stroke="black" stroke-width="0.5" fill="green"/>

<rect x="117.588" y="232.808" width="17" height="9" stroke="black" stroke-width="0.5" fill="green"/>

<rect x="134.588" y="232.808" width="17" height="9" stroke="black" stroke-width="0.5" fill="green"/>

<rect x="151.588" y="232.808" width="17" height="9" stroke="black" stroke-width="0.5" fill="green"/>

<rect x="168.588" y="232.808" width="17" height="9" stroke="black" stroke-width="0.5" fill="green"/>

<rect x="185.588" y="232.808" width="17" height="9" stroke="black" stroke-width="0.5" fill="green"/>

<rect x="202.588" y="232.808" width="17" height="9" stroke="black" stroke-width="0.5" fill="green"/>

<rect x="219.588" y="232.808" width="17" height="9" stroke="black" stroke-width="0.5" fill="green"/>

<rect x="236.588" y="232.808" width="17" height="9" stroke="black" stroke-width="0.5" fill="green"/>

<rect x="253.588" y="232.808" width="17" height="9" stroke="black" stroke-width="0.5" fill="green"/>

<rect x="20.7846" y="223.808" width="17" height="9" stroke="black" stroke-width="0.5" fill="green"/>

<rect x="37.7846" y="223.808" width="17" height="9" stroke="black" stroke-width="0.5" fill="green"/>

<rect x="54.7846" y="223.808" width="17" height="9" stroke="black" stroke-width="0.5" fill="green"/>

<rect x="71.7846" y="223.808" width="17" height="9" stroke="black" stroke-width="0.5" fill="green"/>

<rect x="88.7846" y="223.808" width="17" height="9" stroke="black" stroke-width="0.5" fill="green"/>

<rect x="105.785" y="223.808" width="17" height="9" stroke="black" stroke-width="0.5" fill="green"/>

<rect x="122.785" y="223.808" width="17" height="9" stroke="black" stroke-width="0.5" fill="green"/>

<rect x="139.785" y="223.808" width="17" height="9" stroke="black" stroke-width="0.5" fill="green"/>

<rect x="156.785" y="223.808" width="17" height="9" stroke="black" stroke-width="0.5" fill="green"/>

<rect x="173.785" y="223.808" width="17" height="9" stroke="black" stroke-width="0.5" fill="green"/>

<rect x="190.785" y="223.808" width="17" height="9" stroke="black" stroke-width="0.5" fill="green"/>

<rect x="207.785" y="223.808" width="17" height="9" stroke="black" stroke-width="0.5" fill="green"/>

<rect x="224.785" y="223.808" width="17" height="9" stroke="black" stroke-width="0.5" fill="green"/>

<rect x="241.785" y="223.808" width="17" height="9" stroke="black" stroke-width="0.5" fill="green"/>

<rect x="258.785" y="223.808" width="17" height="9" stroke="black" stroke-width="0.5" fill="green"/>

<rect x="25.9808" y="214.808" width="17" height="9" stroke="black" stroke-width="0.5" fill="green"/>

<rect x="42.9808" y="214.808" width="17" height="9" stroke="black" stroke-width="0.5" fill="green"/>

<rect x="59.9808" y="214.808" width="17" height="9" stroke="black" stroke-width="0.5" fill="green"/>

<rect x="76.9808" y="214.808" width="17" height="9" stroke="black" stroke-width="0.5" fill="green"/>

<rect x="93.9808" y="214.808" width="17" height="9" stroke="black" stroke-width="0.5" fill="green"/>

<rect x="110.981" y="214.808" width="17" height="9" stroke="black" stroke-width="0.5" fill="green"/>

<rect x="127.981" y="214.808" width="17" height="9" stroke="black" stroke-width="0.5" fill="green"/>

<rect x="144.981" y="214.808" width="17" height="9" stroke="black" stroke-width="0.5" fill="green"/>

<rect x="161.981" y="214.808" width="17" height="9" stroke="black" stroke-width="0.5" fill="green"/>

<rect x="178.981" y="214.808" width="17" height="9" stroke="black" stroke-width="0.5" fill="green"/>

<rect x="195.981" y="214.808" width="17" height="9" stroke="black" stroke-width="0.5" fill="green"/>

<rect x="212.981" y="214.808" width="17" height="9" stroke="black" stroke-width="0.5" fill="green"/>

<rect x="229.981" y="214.808" width="17" height="9" stroke="black" stroke-width="0.5" fill="green"/>

<rect x="246.981" y="214.808" width="17" height="9" stroke="black" stroke-width="0.5" fill="green"/>

<rect x="31.1769" y="205.808" width="17" height="9" stroke="black" stroke-width="0.5" fill="green"/>

<rect x="48.1769" y="205.808" width="17" height="9" stroke="black" stroke-width="0.5" fill="green"/>

<rect x="65.1769" y="205.808" width="17" height="9" stroke="black" stroke-width="0.5" fill="green"/>

<rect x="82.1769" y="205.808" width="17" height="9" stroke="black" stroke-width="0.5" fill="green"/>

<rect x="99.1769" y="205.808" width="17" height="9" stroke="black" stroke-width="0.5" fill="green"/>

<rect x="116.177" y="205.808" width="17" height="9" stroke="black" stroke-width="0.5" fill="green"/>

<rect x="133.177" y="205.808" width="17" height="9" stroke="black" stroke-width="0.5" fill="green"/>

<rect x="150.177" y="205.808" width="17" height="9" stroke="black" stroke-width="0.5" fill="green"/>

<rect x="167.177" y="205.808" width="17" height="9" stroke="black" stroke-width="0.5" fill="green"/>

<rect x="184.177" y="205.808" width="17" height="9" stroke="black" stroke-width="0.5" fill="green"/>

<rect x="201.177" y="205.808" width="17" height="9" stroke="black" stroke-width="0.5" fill="green"/>

<rect x="218.177" y="205.808" width="17" height="9" stroke="black" stroke-width="0.5" fill="green"/>

<rect x="235.177" y="205.808" width="17" height="9" stroke="black" stroke-width="0.5" fill="green"/>

<rect x="36.3731" y="196.808" width="17" height="9" stroke="black" stroke-width="0.5" fill="green"/>

<rect x="53.3731" y="196.808" width="17" height="9" stroke="black" stroke-width="0.5" fill="green"/>

<rect x="70.3731" y="196.808" width="17" height="9" stroke="black" stroke-width="0.5" fill="green"/>

<rect x="87.3731" y="196.808" width="17" height="9" stroke="black" stroke-width="0.5" fill="green"/>

<rect x="104.373" y="196.808" width="17" height="9" stroke="black" stroke-width="0.5" fill="green"/>

<rect x="121.373" y="196.808" width="17" height="9" stroke="black" stroke-width="0.5" fill="green"/>

<rect x="138.373" y="196.808" width="17" height="9" stroke="black" stroke-width="0.5" fill="green"/>

<rect x="155.373" y="196.808" width="17" height="9" stroke="black" stroke-width="0.5" fill="green"/>

<rect x="172.373" y="196.808" width="17" height="9" stroke="black" stroke-width="0.5" fill="green"/>

<rect x="189.373" y="196.808" width="17" height="9" stroke="black" stroke-width="0.5" fill="green"/>

<rect x="206.373" y="196.808" width="17" height="9" stroke="black" stroke-width="0.5" fill="green"/>

<rect x="223.373" y="196.808" width="17" height="9" stroke="black" stroke-width="0.5" fill="green"/>

<rect x="240.373" y="196.808" width="17" height="9" stroke="black" stroke-width="0.5" fill="green"/>

<rect x="41.5692" y="187.808" width="17" height="9" stroke="black" stroke-width="0.5" fill="green"/>

<rect x="58.5692" y="187.808" width="17" height="9" stroke="black" stroke-width="0.5" fill="green"/>

<rect x="75.5692" y="187.808" width="17" height="9" stroke="black" stroke-width="0.5" fill="green"/>

<rect x="92.5692" y="187.808" width="17" height="9" stroke="black" stroke-width="0.5" fill="green"/>

<rect x="109.569" y="187.808" width="17" height="9" stroke="black" stroke-width="0.5" fill="green"/>

<rect x="126.569" y="187.808" width="17" height="9" stroke="black" stroke-width="0.5" fill="green"/>

<rect x="143.569" y="187.808" width="17" height="9" stroke="black" stroke-width="0.5" fill="green"/>

<rect x="160.569" y="187.808" width="17" height="9" stroke="black" stroke-width="0.5" fill="green"/>

<rect x="177.569" y="187.808" width="17" height="9" stroke="black" stroke-width="0.5" fill="green"/>

<rect x="194.569" y="187.808" width="17" height="9" stroke="black" stroke-width="0.5" fill="green"/>

<rect x="211.569" y="187.808" width="17" height="9" stroke="black" stroke-width="0.5" fill="green"/>

<rect x="228.569" y="187.808" width="17" height="9" stroke="black" stroke-width="0.5" fill="green"/>

<rect x="46.7654" y="178.808" width="17" height="9" stroke="black" stroke-width="0.5" fill="green"/>

<rect x="63.7654" y="178.808" width="17" height="9" stroke="black" stroke-width="0.5" fill="green"/>

<rect x="80.7654" y="178.808" width="17" height="9" stroke="black" stroke-width="0.5" fill="green"/>

<rect x="97.7654" y="178.808" width="17" height="9" stroke="black" stroke-width="0.5" fill="green"/>

<rect x="114.765" y="178.808" width="17" height="9" stroke="black" stroke-width="0.5" fill="green"/>

<rect x="131.765" y="178.808" width="17" height="9" stroke="black" stroke-width="0.5" fill="green"/>

<rect x="148.765" y="178.808" width="17" height="9" stroke="black" stroke-width="0.5" fill="green"/>

<rect x="165.765" y="178.808" width="17" height="9" stroke="black" stroke-width="0.5" fill="green"/>

<rect x="182.765" y="178.808" width="17" height="9" stroke="black" stroke-width="0.5" fill="green"/>

<rect x="199.765" y="178.808" width="17" height="9" stroke="black" stroke-width="0.5" fill="green"/>

<rect x="216.765" y="178.808" width="17" height="9" stroke="black" stroke-width="0.5" fill="green"/>

<rect x="233.765" y="178.808" width="17" height="9" stroke="black" stroke-width="0.5" fill="green"/>

<rect x="51.9615" y="169.808" width="17" height="9" stroke="black" stroke-width="0.5" fill="green"/>

<rect x="68.9615" y="169.808" width="17" height="9" stroke="black" stroke-width="0.5" fill="green"/>

<rect x="85.9615" y="169.808" width="17" height="9" stroke="black" stroke-width="0.5" fill="green"/>

<rect x="102.962" y="169.808" width="17" height="9" stroke="black" stroke-width="0.5" fill="green"/>

<rect x="119.962" y="169.808" width="17" height="9" stroke="black" stroke-width="0.5" fill="green"/>

<rect x="136.962" y="169.808" width="17" height="9" stroke="black" stroke-width="0.5" fill="green"/>

<rect x="153.962" y="169.808" width="17" height="9" stroke="black" stroke-width="0.5" fill="green"/>

<rect x="170.962" y="169.808" width="17" height="9" stroke="black" stroke-width="0.5" fill="green"/>

<rect x="187.962" y="169.808" width="17" height="9" stroke="black" stroke-width="0.5" fill="green"/>

<rect x="204.962" y="169.808" width="17" height="9" stroke="black" stroke-width="0.5" fill="green"/>

<rect x="221.962" y="169.808" width="17" height="9" stroke="black" stroke-width="0.5" fill="green"/>

<rect x="57.1577" y="160.808" width="17" height="9" stroke="black" stroke-width="0.5" fill="green"/>

<rect x="74.1577" y="160.808" width="17" height="9" stroke="black" stroke-width="0.5" fill="green"/>

<rect x="91.1577" y="160.808" width="17" height="9" stroke="black" stroke-width="0.5" fill="green"/>

<rect x="108.158" y="160.808" width="17" height="9" stroke="black" stroke-width="0.5" fill="green"/>

<rect x="125.158" y="160.808" width="17" height="9" stroke="black" stroke-width="0.5" fill="green"/>

<rect x="142.158" y="160.808" width="17" height="9" stroke="black" stroke-width="0.5" fill="green"/>

<rect x="159.158" y="160.808" width="17" height="9" stroke="black" stroke-width="0.5" fill="green"/>

<rect x="176.158" y="160.808" width="17" height="9" stroke="black" stroke-width="0.5" fill="green"/>

<rect x="193.158" y="160.808" width="17" height="9" stroke="black" stroke-width="0.5" fill="green"/>

<rect x="210.158" y="160.808" width="17" height="9" stroke="black" stroke-width="0.5" fill="green"/>

<rect x="62.3538" y="151.808" width="17" height="9" stroke="black" stroke-width="0.5" fill="green"/>

<rect x="79.3538" y="151.808" width="17" height="9" stroke="black" stroke-width="0.5" fill="green"/>

<rect x="96.3538" y="151.808" width="17" height="9" stroke="black" stroke-width="0.5" fill="green"/>

<rect x="113.354" y="151.808" width="17" height="9" stroke="black" stroke-width="0.5" fill="green"/>

<rect x="130.354" y="151.808" width="17" height="9" stroke="black" stroke-width="0.5" fill="green"/>

<rect x="147.354" y="151.808" width="17" height="9" stroke="black" stroke-width="0.5" fill="green"/>

<rect x="164.354" y="151.808" width="17" height="9" stroke="black" stroke-width="0.5" fill="green"/>

<rect x="181.354" y="151.808" width="17" height="9" stroke="black" stroke-width="0.5" fill="green"/>

<rect x="198.354" y="151.808" width="17" height="9" stroke="black" stroke-width="0.5" fill="green"/>

<rect x="215.354" y="151.808" width="17" height="9" stroke="black" stroke-width="0.5" fill="green"/>

<rect x="67.55" y="142.808" width="17" height="9" stroke="black" stroke-width="0.5" fill="green"/>

<rect x="84.55" y="142.808" width="17" height="9" stroke="black" stroke-width="0.5" fill="green"/>

<rect x="101.55" y="142.808" width="17" height="9" stroke="black" stroke-width="0.5" fill="green"/>

<rect x="118.55" y="142.808" width="17" height="9" stroke="black" stroke-width="0.5" fill="green"/>

<rect x="135.55" y="142.808" width="17" height="9" stroke="black" stroke-width="0.5" fill="green"/>

<rect x="152.55" y="142.808" width="17" height="9" stroke="black" stroke-width="0.5" fill="green"/>

<rect x="169.55" y="142.808" width="17" height="9" stroke="black" stroke-width="0.5" fill="green"/>

<rect x="186.55" y="142.808" width="17" height="9" stroke="black" stroke-width="0.5" fill="green"/>

<rect x="203.55" y="142.808" width="17" height="9" stroke="black" stroke-width="0.5" fill="green"/>

<rect x="72.7461" y="133.808" width="17" height="9" stroke="black" stroke-width="0.5" fill="green"/>

<rect x="89.7461" y="133.808" width="17" height="9" stroke="black" stroke-width="0.5" fill="green"/>

<rect x="106.746" y="133.808" width="17" height="9" stroke="black" stroke-width="0.5" fill="green"/>

<rect x="123.746" y="133.808" width="17" height="9" stroke="black" stroke-width="0.5" fill="green"/>

<rect x="140.746" y="133.808" width="17" height="9" stroke="black" stroke-width="0.5" fill="green"/>

<rect x="157.746" y="133.808" width="17" height="9" stroke="black" stroke-width="0.5" fill="green"/>

<rect x="174.746" y="133.808" width="17" height="9" stroke="black" stroke-width="0.5" fill="green"/>

<rect x="191.746" y="133.808" width="17" height="9" stroke="black" stroke-width="0.5" fill="green"/>

<rect x="208.746" y="133.808" width="17" height="9" stroke="black" stroke-width="0.5" fill="green"/>

<rect x="77.9423" y="124.808" width="17" height="9" stroke="black" stroke-width="0.5" fill="green"/>

<rect x="94.9423" y="124.808" width="17" height="9" stroke="black" stroke-width="0.5" fill="green"/>

<rect x="111.942" y="124.808" width="17" height="9" stroke="black" stroke-width="0.5" fill="green"/>

<rect x="128.942" y="124.808" width="17" height="9" stroke="black" stroke-width="0.5" fill="green"/>

<rect x="145.942" y="124.808" width="17" height="9" stroke="black" stroke-width="0.5" fill="green"/>

<rect x="162.942" y="124.808" width="17" height="9" stroke="black" stroke-width="0.5" fill="green"/>

<rect x="179.942" y="124.808" width="17" height="9" stroke="black" stroke-width="0.5" fill="green"/>

<rect x="196.942" y="124.808" width="17" height="9" stroke="black" stroke-width="0.5" fill="green"/>

<rect x="83.1384" y="115.808" width="17" height="9" stroke="black" stroke-width="0.5" fill="green"/>

<rect x="100.138" y="115.808" width="17" height="9" stroke="black" stroke-width="0.5" fill="green"/>

<rect x="117.138" y="115.808" width="17" height="9" stroke="black" stroke-width="0.5" fill="green"/>

<rect x="134.138" y="115.808" width="17" height="9" stroke="black" stroke-width="0.5" fill="green"/>

<rect x="151.138" y="115.808" width="17" height="9" stroke="black" stroke-width="0.5" fill="green"/>

<rect x="168.138" y="115.808" width="17" height="9" stroke="black" stroke-width="0.5" fill="green"/>

<rect x="185.138" y="115.808" width="17" height="9" stroke="black" stroke-width="0.5" fill="green"/>

<rect x="88.3346" y="106.808" width="17" height="9" stroke="black" stroke-width="0.5" fill="green"/>

<rect x="105.335" y="106.808" width="17" height="9" stroke="black" stroke-width="0.5" fill="green"/>

<rect x="122.335" y="106.808" width="17" height="9" stroke="black" stroke-width="0.5" fill="green"/>

<rect x="139.335" y="106.808" width="17" height="9" stroke="black" stroke-width="0.5" fill="green"/>

<rect x="156.335" y="106.808" width="17" height="9" stroke="black" stroke-width="0.5" fill="green"/>

<rect x="173.335" y="106.808" width="17" height="9" stroke="black" stroke-width="0.5" fill="green"/>

<rect x="190.335" y="106.808" width="17" height="9" stroke="black" stroke-width="0.5" fill="green"/>

<rect x="93.5307" y="97.8076" width="17" height="9" stroke="black" stroke-width="0.5" fill="green"/>

<rect x="110.531" y="97.8076" width="17" height="9" stroke="black" stroke-width="0.5" fill="green"/>

<rect x="127.531" y="97.8076" width="17" height="9" stroke="black" stroke-width="0.5" fill="green"/>

<rect x="144.531" y="97.8076" width="17" height="9" stroke="black" stroke-width="0.5" fill="green"/>

<rect x="161.531" y="97.8076" width="17" height="9" stroke="black" stroke-width="0.5" fill="green"/>

<rect x="178.531" y="97.8076" width="17" height="9" stroke="black" stroke-width="0.5" fill="green"/>

<rect x="98.7269" y="88.8076" width="17" height="9" stroke="black" stroke-width="0.5" fill="green"/>

<rect x="115.727" y="88.8076" width="17" height="9" stroke="black" stroke-width="0.5" fill="green"/>

<rect x="132.727" y="88.8076" width="17" height="9" stroke="black" stroke-width="0.5" fill="green"/>

<rect x="149.727" y="88.8076" width="17" height="9" stroke="black" stroke-width="0.5" fill="green"/>

<rect x="166.727" y="88.8076" width="17" height="9" stroke="black" stroke-width="0.5" fill="green"/>

<rect x="103.923" y="79.8076" width="17" height="9" stroke="black" stroke-width="0.5" fill="green"/>

<rect x="120.923" y="79.8076" width="17" height="9" stroke="black" stroke-width="0.5" fill="green"/>

<rect x="137.923" y="79.8076" width="17" height="9" stroke="black" stroke-width="0.5" fill="green"/>

<rect x="154.923" y="79.8076" width="17" height="9" stroke="black" stroke-width="0.5" fill="green"/>

<rect x="171.923" y="79.8076" width="17" height="9" stroke="black" stroke-width="0.5" fill="green"/>

<rect x="109.119" y="70.8076" width="17" height="9" stroke="black" stroke-width="0.5" fill="green"/>

<rect x="126.119" y="70.8076" width="17" height="9" stroke="black" stroke-width="0.5" fill="green"/>

<rect x="143.119" y="70.8076" width="17" height="9" stroke="black" stroke-width="0.5" fill="green"/>

<rect x="160.119" y="70.8076" width="17" height="9" stroke="black" stroke-width="0.5" fill="green"/>

<rect x="114.315" y="61.8076" width="17" height="9" stroke="black" stroke-width="0.5" fill="green"/>

<rect x="131.315" y="61.8076" width="17" height="9" stroke="black" stroke-width="0.5" fill="green"/>

<rect x="148.315" y="61.8076" width="17" height="9" stroke="black" stroke-width="0.5" fill="green"/>

<rect x="165.315" y="61.8076" width="17" height="9" stroke="black" stroke-width="0.5" fill="green"/>

<rect x="119.512" y="52.8076" width="17" height="9" stroke="black" stroke-width="0.5" fill="green"/>

<rect x="136.512" y="52.8076" width="17" height="9" stroke="black" stroke-width="0.5" fill="green"/>

<rect x="153.512" y="52.8076" width="17" height="9" stroke="black" stroke-width="0.5" fill="green"/>

<rect x="124.708" y="43.8076" width="17" height="9" stroke="black" stroke-width="0.5" fill="green"/>

<rect x="141.708" y="43.8076" width="17" height="9" stroke="black" stroke-width="0.5" fill="green"/>

<rect x="129.904" y="34.8076" width="17" height="9" stroke="black" stroke-width="0.5" fill="green"/>

<rect x="146.904" y="34.8076" width="17" height="9" stroke="black" stroke-width="0.5" fill="green"/>

<rect x="135.1" y="25.8076" width="17" height="9" stroke="black" stroke-width="0.5" fill="green"/>

<rect x="140.296" y="16.8076" width="17" height="9" stroke="black" stroke-width="0.5" fill="green"/>


</svg>