 <svg version=" 1.1 " baseProfile=" full "
width="100%" height="100%" 
 xmlns="http://www.w3.org/2000/svg">

<polygon points="250,0 500,433.013 0,433.013" stroke="black" stroke-width="0.5" fill="red"/>

<circle cx="29.4449" cy="416.013" r="17" stroke="black" stroke-width="0.5" fill="green"/>
<circle cx="63.4449" cy="416.013" r="17" stroke="black" stroke-width="0.5" fill="green"/>
<circle cx="97.4449" cy="416.013" r="17" stroke="black" stroke-width="0.5" fill="green"/>
<circle cx="131.445" cy="416.013" r="17" stroke="black" stroke-width="0.5" fill="green"/>
<circle cx="165.445" cy="416.013" r="17" stroke="black" stroke-width="0.5" fill="green"/>
<circle cx="199.445" cy="416.013" r="17" stroke="black" stroke-width="0.5" fill="green"/>
<circle cx="233.445" cy="416.013" r="17" stroke="black" stroke-width="0.5" fill="green"/>
<circle cx="267.445" cy="416.013" r="17" stroke="black" stroke-width="0.5" fill="green"/>
<circle cx="301.445" cy="416.013" r="17" stroke="black" stroke-width="0.5" fill="green"/>
<circle cx="335.445" cy="416.013" r="17" stroke="black" stroke-width="0.5" fill="green"/>
<circle cx="369.445" cy="416.013" r="17" stroke="black" stroke-width="0.5" fill="green"/>
<circle cx="403.445" cy="416.013" r="17" stroke="black" stroke-width="0.5" fill="green"/>
<circle cx="437.445" cy="416.013" r="17" stroke="black" stroke-width="0.5" fill="green"/>
<circle cx="471.445" cy="416.013" r="17" stroke="black" stroke-width="0.5" fill="green"/>
<circle cx="46.4449" cy="386.568" r="17" stroke="black" stroke-width="0.5" fill="green"/>
<circle cx="80.4449" cy="386.568" r="17" stroke="black" stroke-width="0.5" fill="green"/>
<circle cx="114.445" cy="386.568" r="17" stroke="black" stroke-width="0.5" fill="green"/>
<circle cx="148.445" cy="386.568" r="17" stroke="black" stroke-width="0.5" fill="green"/>
<circle cx="182.445" cy="386.568" r="17" stroke="black" stroke-width="0.5" fill="green"/>
<circle cx="216.445" cy="386.568" r="17" stroke="black" stroke-width="0.5" fill="green"/>
<circle cx="250.445" cy="386.568" r="17" stroke="black" stroke-width="0.5" fill="green"/>
<circle cx="284.445" cy="386.568" r="17" stroke="black" stroke-width="0.5" fill="green"/>
<circle cx="318.445" cy="386.568" r="17" stroke="black" stroke-width="0.5" fill="green"/>
<circle cx="352.445" cy="386.568" r="17" stroke="black" stroke-width="0.5" fill="green"/>
<circle cx="386.445" cy="386.568" r="17" stroke="black" stroke-width="0.5" fill="green"/>
<circle cx="420.445" cy="386.568" r="17" stroke="black" stroke-width="0.5" fill="green"/>
<circle cx="454.445" cy="386.568" r="17" stroke="black" stroke-width="0.5" fill="green"/>
<circle cx="63.4449" cy="357.123" r="17" stroke="black" stroke-width="0.5" fill="green"/>
<circle cx="97.4449" cy="357.123" r="17" stroke="black" stroke-width="0.5" fill="green"/>
<circle cx="131.445" cy="357.123" r="17" stroke="black" stroke-width="0.5" fill="green"/>
<circle cx="165.445" cy="357.123" r="17" stroke="black" stroke-width="0.5" fill="green"/>
<circle cx="199.445" cy="357.123" r="17" stroke="black" stroke-width="0.5" fill="green"/>
<circle cx="233.445" cy="357.123" r="17" stroke="black" stroke-width="0.5" fill="green"/>
<circle cx="267.445" cy="357.123" r="17" stroke="black" stroke-width="0.5" fill="green"/>
<circle cx="301.445" cy="357.123" r="17" stroke="black" stroke-width="0.5" fill="green"/>
<circle cx="335.445" cy="357.123" r="17" stroke="black" stroke-width="0.5" fill="green"/>
<circle cx="369.445" cy="357.123" r="17" stroke="black" stroke-width="0.5" fill="green"/>
<circle cx="403.445" cy="357.123" r="17" stroke="black" stroke-width="0.5" fill="green"/>
<circle cx="437.445" cy="357.123" r="17" stroke="black" stroke-width="0.5" fill="green"/>
<circle cx="80.4449" cy="327.678" r="17" stroke="black" stroke-width="0.5" fill="green"/>
<circle cx="114.445" cy="327.678" r="17" stroke="black" stroke-width="0.5" fill="green"/>
<circle cx="148.445" cy="327.678" r="17" stroke="black" stroke-width="0.5" fill="green"/>
<circle cx="182.445" cy="327.678" r="17" stroke="black" stroke-width="0.5" fill="green"/>
<circle cx="216.445" cy="327.678" r="17" stroke="black" stroke-width="0.5" fill="green"/>
<circle cx="250.445" cy="327.678" r="17" stroke="black" stroke-width="0.5" fill="green"/>
<circle cx="284.445" cy="327.678" r="17" stroke="black" stroke-width="0.5" fill="green"/>
<circle cx="318.445" cy="327.678" r="17" stroke="black" stroke-width="0.5" fill="green"/>
<circle cx="352.445" cy="327.678" r="17" stroke="black" stroke-width="0.5" fill="green"/>
<circle cx="386.445" cy="327.678" r="17" stroke="black" stroke-width="0.5" fill="green"/>
<circle cx="420.445" cy="327.678" r="17" stroke="black" stroke-width="0.5" fill="green"/>
<circle cx="97.4449" cy="298.233" r="17" stroke="black" stroke-width="0.5" fill="green"/>
<circle cx="131.445" cy="298.233" r="17" stroke="black" stroke-width="0.5" fill="green"/>
<circle cx="165.445" cy="298.233" r="17" stroke="black" stroke-width="0.5" fill="green"/>
<circle cx="199.445" cy="298.233" r="17" stroke="black" stroke-width="0.5" fill="green"/>
<circle cx="233.445" cy="298.233" r="17" stroke="black" stroke-width="0.5" fill="green"/>
<circle cx="267.445" cy="298.233" r="17" stroke="black" stroke-width="0.5" fill="green"/>
<circle cx="301.445" cy="298.233" r="17" stroke="black" stroke-width="0.5" fill="green"/>
<circle cx="335.445" cy="298.233" r="17" stroke="black" stroke-width="0.5" fill="green"/>
<circle cx="369.445" cy="298.233" r="17" stroke="black" stroke-width="0.5" fill="green"/>
<circle cx="403.445" cy="298.233" r="17" stroke="black" stroke-width="0.5" fill="green"/>
<circle cx="114.445" cy="268.788" r="17" stroke="black" stroke-width="0.5" fill="green"/>
<circle cx="148.445" cy="268.788" r="17" stroke="black" stroke-width="0.5" fill="green"/>
<circle cx="182.445" cy="268.788" r="17" stroke="black" stroke-width="0.5" fill="green"/>
<circle cx="216.445" cy="268.788" r="17" stroke="black" stroke-width="0.5" fill="green"/>
<circle cx="250.445" cy="268.788" r="17" stroke="black" stroke-width="0.5" fill="green"/>
<circle cx="284.445" cy="268.788" r="17" stroke="black" stroke-width="0.5" fill="green"/>
<circle cx="318.445" cy="268.788" r="17" stroke="black" stroke-width="0.5" fill="green"/>
<circle cx="352.445" cy="268.788" r="17" stroke="black" stroke-width="0.5" fill="green"/>
<circle cx="386.445" cy="268.788" r="17" stroke="black" stroke-width="0.5" fill="green"/>
<circle cx="131.445" cy="239.344" r="17" stroke="black" stroke-width="0.5" fill="green"/>
<circle cx="165.445" cy="239.344" r="17" stroke="black" stroke-width="0.5" fill="green"/>
<circle cx="199.445" cy="239.344" r="17" stroke="black" stroke-width="0.5" fill="green"/>
<circle cx="233.445" cy="239.344" r="17" stroke="black" stroke-width="0.5" fill="green"/>
<circle cx="267.445" cy="239.344" r="17" stroke="black" stroke-width="0.5" fill="green"/>
<circle cx="301.445" cy="239.344" r="17" stroke="black" stroke-width="0.5" fill="green"/>
<circle cx="335.445" cy="239.344" r="17" stroke="black" stroke-width="0.5" fill="green"/>
<circle cx="369.445" cy="239.344" r="17" stroke="black" stroke-width="0.5" fill="green"/>
<circle cx="148.445" cy="209.899" r="17" stroke="black" stroke-width="0.5" fill="green"/>
<circle cx="182.445" cy="209.899" r="17" stroke="black" stroke-width="0.5" fill="green"/>
<circle cx="216.445" cy="209.899" r="17" stroke="black" stroke-width="0.5" fill="green"/>
<circle cx="250.445" cy="209.899" r="17" stroke="black" stroke-width="0.5" fill="green"/>
<circle cx="284.445" cy="209.899" r="17" stroke="black" stroke-width="0.5" fill="green"/>
<circle cx="318.445" cy="209.899" r="17" stroke="black" stroke-width="0.5" fill="green"/>
<circle cx="352.445" cy="209.899" r="17" stroke="black" stroke-width="0.5" fill="green"/>
<circle cx="165.445" cy="180.454" r="17" stroke="black" stroke-width="0.5" fill="green"/>
<circle cx="199.445" cy="180.454" r="17" stroke="black" stroke-width="0.5" fill="green"/>
<circle cx="233.445" cy="180.454" r="17" stroke="black" stroke-width="0.5" fill="green"/>
<circle cx="267.445" cy="180.454" r="17" stroke="black" stroke-width="0.5" fill="green"/>
<circle cx="301.445" cy="180.454" r="17" stroke="black" stroke-width="0.5" fill="green"/>
<circle cx="335.445" cy="180.454" r="17" stroke="black" stroke-width="0.5" fill="green"/>
<circle cx="182.445" cy="151.009" r="17" stroke="black" stroke-width="0.5" fill="green"/>
<circle cx="216.445" cy="151.009" r="17" stroke="black" stroke-width="0.5" fill="green"/>
<circle cx="250.445" cy="151.009" r="17" stroke="black" stroke-width="0.5" fill="green"/>
<circle cx="284.445" cy="151.009" r="17" stroke="black" stroke-width="0.5" fill="green"/>
<circle cx="318.445" cy="151.009" r="17" stroke="black" stroke-width="0.5" fill="green"/>
<circle cx="199.445" cy="121.564" r="17" stroke="black" stroke-width="0.5" fill="green"/>
<circle cx="233.445" cy="121.564" r="17" stroke="black" stroke-width="0.5" fill="green"/>
<circle cx="267.445" cy="121.564" r="17" stroke="black" stroke-width="0.5" fill="green"/>
<circle cx="301.445" cy="121.564" r="17" stroke="black" stroke-width="0.5" fill="green"/>
<circle cx="216.445" cy="92.1192" r="17" stroke="black" stroke-width="0.5" fill="green"/>
<circle cx="250.445" cy="92.1192" r="17" stroke="black" stroke-width="0.5" fill="green"/>
<circle cx="284.445" cy="92.1192" r="17" stroke="black" stroke-width="0.5" fill="green"/>
<circle cx="233.445" cy="62.6743" r="17" stroke="black" stroke-width="0.5" fill="green"/>
<circle cx="267.445" cy="62.6743" r="17" stroke="black" stroke-width="0.5" fill="green"/>
<circle cx="250.445" cy="33.2295" r="17" stroke="black" stroke-width="0.5" fill="green"/>

</svg>