 <svg version=" 1.1 " baseProfile=" full "
width="100%" height="100%" 
 xmlns="http://www.w3.org/2000/svg">

<circle cx="102" cy="102" r="100" stroke="black" stroke-width="0.5" fill="red"/>
<rect x="86" y="1" width="9" height="17" stroke="black" stroke-width="0.5" fill="green"/>

<rect x="95" y="1" width="9" height="17" stroke="black" stroke-width="0.5" fill="green"/>

<rect x="104" y="1" width="9" height="17" stroke="black" stroke-width="0.5" fill="green"/>

<rect x="43" y="18" width="9" height="17" stroke="black" stroke-width="0.5" fill="green"/>

<rect x="52" y="18" width="9" height="17" stroke="black" stroke-width="0.5" fill="green"/>

<rect x="61" y="18" width="9" height="17" stroke="black" stroke-width="0.5" fill="green"/>

<rect x="70" y="18" width="9" height="17" stroke="black" stroke-width="0.5" fill="green"/>

<rect x="79" y="18" width="9" height="17" stroke="black" stroke-width="0.5" fill="green"/>

<rect x="88" y="18" width="9" height="17" stroke="black" stroke-width="0.5" fill="green"/>

<rect x="97" y="18" width="9" height="17" stroke="black" stroke-width="0.5" fill="green"/>

<rect x="106" y="18" width="9" height="17" stroke="black" stroke-width="0.5" fill="green"/>

<rect x="115" y="18" width="9" height="17" stroke="black" stroke-width="0.5" fill="green"/>

<rect x="124" y="18" width="9" height="17" stroke="black" stroke-width="0.5" fill="green"/>

<rect x="133" y="18" width="9" height="17" stroke="black" stroke-width="0.5" fill="green"/>

<rect x="142" y="18" width="9" height="17" stroke="black" stroke-width="0.5" fill="green"/>

<rect x="25" y="35" width="9" height="17" stroke="black" stroke-width="0.5" fill="green"/>

<rect x="34" y="35" width="9" height="17" stroke="black" stroke-width="0.5" fill="green"/>

<rect x="43" y="35" width="9" height="17" stroke="black" stroke-width="0.5" fill="green"/>

<rect x="52" y="35" width="9" height="17" stroke="black" stroke-width="0.5" fill="green"/>

<rect x="61" y="35" width="9" height="17" stroke="black" stroke-width="0.5" fill="green"/>

<rect x="70" y="35" width="9" height="17" stroke="black" stroke-width="0.5" fill="green"/>

<rect x="79" y="35" width="9" height="17" stroke="black" stroke-width="0.5" fill="green"/>

<rect x="88" y="35" width="9" height="17" stroke="black" stroke-width="0.5" fill="green"/>

<rect x="97" y="35" width="9" height="17" stroke="black" stroke-width="0.5" fill="green"/>

<rect x="106" y="35" width="9" height="17" stroke="black" stroke-width="0.5" fill="green"/>

<rect x="115" y="35" width="9" height="17" stroke="black" stroke-width="0.5" fill="green"/>

<rect x="124" y="35" width="9" height="17" stroke="black" stroke-width="0.5" fill="green"/>

<rect x="133" y="35" width="9" height="17" stroke="black" stroke-width="0.5" fill="green"/>

<rect x="142" y="35" width="9" height="17" stroke="black" stroke-width="0.5" fill="green"/>

<rect x="151" y="35" width="9" height="17" stroke="black" stroke-width="0.5" fill="green"/>

<rect x="160" y="35" width="9" height="17" stroke="black" stroke-width="0.5" fill="green"/>

<rect x="13" y="52" width="9" height="17" stroke="black" stroke-width="0.5" fill="green"/>

<rect x="22" y="52" width="9" height="17" stroke="black" stroke-width="0.5" fill="green"/>

<rect x="31" y="52" width="9" height="17" stroke="black" stroke-width="0.5" fill="green"/>

<rect x="40" y="52" width="9" height="17" stroke="black" stroke-width="0.5" fill="green"/>

<rect x="49" y="52" width="9" height="17" stroke="black" stroke-width="0.5" fill="green"/>

<rect x="58" y="52" width="9" height="17" stroke="black" stroke-width="0.5" fill="green"/>

<rect x="67" y="52" width="9" height="17" stroke="black" stroke-width="0.5" fill="green"/>

<rect x="76" y="52" width="9" height="17" stroke="black" stroke-width="0.5" fill="green"/>

<rect x="85" y="52" width="9" height="17" stroke="black" stroke-width="0.5" fill="green"/>

<rect x="94" y="52" width="9" height="17" stroke="black" stroke-width="0.5" fill="green"/>

<rect x="103" y="52" width="9" height="17" stroke="black" stroke-width="0.5" fill="green"/>

<rect x="112" y="52" width="9" height="17" stroke="black" stroke-width="0.5" fill="green"/>

<rect x="121" y="52" width="9" height="17" stroke="black" stroke-width="0.5" fill="green"/>

<rect x="130" y="52" width="9" height="17" stroke="black" stroke-width="0.5" fill="green"/>

<rect x="139" y="52" width="9" height="17" stroke="black" stroke-width="0.5" fill="green"/>

<rect x="148" y="52" width="9" height="17" stroke="black" stroke-width="0.5" fill="green"/>

<rect x="157" y="52" width="9" height="17" stroke="black" stroke-width="0.5" fill="green"/>

<rect x="166" y="52" width="9" height="17" stroke="black" stroke-width="0.5" fill="green"/>

<rect x="175" y="52" width="9" height="17" stroke="black" stroke-width="0.5" fill="green"/>

<rect x="5" y="69" width="9" height="17" stroke="black" stroke-width="0.5" fill="green"/>

<rect x="14" y="69" width="9" height="17" stroke="black" stroke-width="0.5" fill="green"/>

<rect x="23" y="69" width="9" height="17" stroke="black" stroke-width="0.5" fill="green"/>

<rect x="32" y="69" width="9" height="17" stroke="black" stroke-width="0.5" fill="green"/>

<rect x="41" y="69" width="9" height="17" stroke="black" stroke-width="0.5" fill="green"/>

<rect x="50" y="69" width="9" height="17" stroke="black" stroke-width="0.5" fill="green"/>

<rect x="59" y="69" width="9" height="17" stroke="black" stroke-width="0.5" fill="green"/>

<rect x="68" y="69" width="9" height="17" stroke="black" stroke-width="0.5" fill="green"/>

<rect x="77" y="69" width="9" height="17" stroke="black" stroke-width="0.5" fill="green"/>

<rect x="86" y="69" width="9" height="17" stroke="black" stroke-width="0.5" fill="green"/>

<rect x="95" y="69" width="9" height="17" stroke="black" stroke-width="0.5" fill="green"/>

<rect x="104" y="69" width="9" height="17" stroke="black" stroke-width="0.5" fill="green"/>

<rect x="113" y="69" width="9" height="17" stroke="black" stroke-width="0.5" fill="green"/>

<rect x="122" y="69" width="9" height="17" stroke="black" stroke-width="0.5" fill="green"/>

<rect x="131" y="69" width="9" height="17" stroke="black" stroke-width="0.5" fill="green"/>

<rect x="140" y="69" width="9" height="17" stroke="black" stroke-width="0.5" fill="green"/>

<rect x="149" y="69" width="9" height="17" stroke="black" stroke-width="0.5" fill="green"/>

<rect x="158" y="69" width="9" height="17" stroke="black" stroke-width="0.5" fill="green"/>

<rect x="167" y="69" width="9" height="17" stroke="black" stroke-width="0.5" fill="green"/>

<rect x="176" y="69" width="9" height="17" stroke="black" stroke-width="0.5" fill="green"/>

<rect x="185" y="69" width="9" height="17" stroke="black" stroke-width="0.5" fill="green"/>

<rect x="1" y="86" width="9" height="17" stroke="black" stroke-width="0.5" fill="green"/>

<rect x="10" y="86" width="9" height="17" stroke="black" stroke-width="0.5" fill="green"/>

<rect x="19" y="86" width="9" height="17" stroke="black" stroke-width="0.5" fill="green"/>

<rect x="28" y="86" width="9" height="17" stroke="black" stroke-width="0.5" fill="green"/>

<rect x="37" y="86" width="9" height="17" stroke="black" stroke-width="0.5" fill="green"/>

<rect x="46" y="86" width="9" height="17" stroke="black" stroke-width="0.5" fill="green"/>

<rect x="55" y="86" width="9" height="17" stroke="black" stroke-width="0.5" fill="green"/>

<rect x="64" y="86" width="9" height="17" stroke="black" stroke-width="0.5" fill="green"/>

<rect x="73" y="86" width="9" height="17" stroke="black" stroke-width="0.5" fill="green"/>

<rect x="82" y="86" width="9" height="17" stroke="black" stroke-width="0.5" fill="green"/>

<rect x="91" y="86" width="9" height="17" stroke="black" stroke-width="0.5" fill="green"/>

<rect x="100" y="86" width="9" height="17" stroke="black" stroke-width="0.5" fill="green"/>

<rect x="109" y="86" width="9" height="17" stroke="black" stroke-width="0.5" fill="green"/>

<rect x="118" y="86" width="9" height="17" stroke="black" stroke-width="0.5" fill="green"/>

<rect x="127" y="86" width="9" height="17" stroke="black" stroke-width="0.5" fill="green"/>

<rect x="136" y="86" width="9" height="17" stroke="black" stroke-width="0.5" fill="green"/>

<rect x="145" y="86" width="9" height="17" stroke="black" stroke-width="0.5" fill="green"/>

<rect x="154" y="86" width="9" height="17" stroke="black" stroke-width="0.5" fill="green"/>

<rect x="163" y="86" width="9" height="17" stroke="black" stroke-width="0.5" fill="green"/>

<rect x="172" y="86" width="9" height="17" stroke="black" stroke-width="0.5" fill="green"/>

<rect x="181" y="86" width="9" height="17" stroke="black" stroke-width="0.5" fill="green"/>

<rect x="190" y="86" width="9" height="17" stroke="black" stroke-width="0.5" fill="green"/>

<rect x="3" y="103" width="9" height="17" stroke="black" stroke-width="0.5" fill="green"/>

<rect x="12" y="103" width="9" height="17" stroke="black" stroke-width="0.5" fill="green"/>

<rect x="21" y="103" width="9" height="17" stroke="black" stroke-width="0.5" fill="green"/>

<rect x="30" y="103" width="9" height="17" stroke="black" stroke-width="0.5" fill="green"/>

<rect x="39" y="103" width="9" height="17" stroke="black" stroke-width="0.5" fill="green"/>

<rect x="48" y="103" width="9" height="17" stroke="black" stroke-width="0.5" fill="green"/>

<rect x="57" y="103" width="9" height="17" stroke="black" stroke-width="0.5" fill="green"/>

<rect x="66" y="103" width="9" height="17" stroke="black" stroke-width="0.5" fill="green"/>

<rect x="75" y="103" width="9" height="17" stroke="black" stroke-width="0.5" fill="green"/>

<rect x="84" y="103" width="9" height="17" stroke="black" stroke-width="0.5" fill="green"/>

<rect x="93" y="103" width="9" height="17" stroke="black" stroke-width="0.5" fill="green"/>

<rect x="102" y="103" width="9" height="17" stroke="black" stroke-width="0.5" fill="green"/>

<rect x="111" y="103" width="9" height="17" stroke="black" stroke-width="0.5" fill="green"/>

<rect x="120" y="103" width="9" height="17" stroke="black" stroke-width="0.5" fill="green"/>

<rect x="129" y="103" width="9" height="17" stroke="black" stroke-width="0.5" fill="green"/>

<rect x="138" y="103" width="9" height="17" stroke="black" stroke-width="0.5" fill="green"/>

<rect x="147" y="103" width="9" height="17" stroke="black" stroke-width="0.5" fill="green"/>

<rect x="156" y="103" width="9" height="17" stroke="black" stroke-width="0.5" fill="green"/>

<rect x="165" y="103" width="9" height="17" stroke="black" stroke-width="0.5" fill="green"/>

<rect x="174" y="103" width="9" height="17" stroke="black" stroke-width="0.5" fill="green"/>

<rect x="183" y="103" width="9" height="17" stroke="black" stroke-width="0.5" fill="green"/>

<rect x="8" y="120" width="9" height="17" stroke="black" stroke-width="0.5" fill="green"/>

<rect x="17" y="120" width="9" height="17" stroke="black" stroke-width="0.5" fill="green"/>

<rect x="26" y="120" width="9" height="17" stroke="black" stroke-width="0.5" fill="green"/>

<rect x="35" y="120" width="9" height="17" stroke="black" stroke-width="0.5" fill="green"/>

<rect x="44" y="120" width="9" height="17" stroke="black" stroke-width="0.5" fill="green"/>

<rect x="53" y="120" width="9" height="17" stroke="black" stroke-width="0.5" fill="green"/>

<rect x="62" y="120" width="9" height="17" stroke="black" stroke-width="0.5" fill="green"/>

<rect x="71" y="120" width="9" height="17" stroke="black" stroke-width="0.5" fill="green"/>

<rect x="80" y="120" width="9" height="17" stroke="black" stroke-width="0.5" fill="green"/>

<rect x="89" y="120" width="9" height="17" stroke="black" stroke-width="0.5" fill="green"/>

<rect x="98" y="120" width="9" height="17" stroke="black" stroke-width="0.5" fill="green"/>

<rect x="107" y="120" width="9" height="17" stroke="black" stroke-width="0.5" fill="green"/>

<rect x="116" y="120" width="9" height="17" stroke="black" stroke-width="0.5" fill="green"/>

<rect x="125" y="120" width="9" height="17" stroke="black" stroke-width="0.5" fill="green"/>

<rect x="134" y="120" width="9" height="17" stroke="black" stroke-width="0.5" fill="green"/>

<rect x="143" y="120" width="9" height="17" stroke="black" stroke-width="0.5" fill="green"/>

<rect x="152" y="120" width="9" height="17" stroke="black" stroke-width="0.5" fill="green"/>

<rect x="161" y="120" width="9" height="17" stroke="black" stroke-width="0.5" fill="green"/>

<rect x="170" y="120" width="9" height="17" stroke="black" stroke-width="0.5" fill="green"/>

<rect x="179" y="120" width="9" height="17" stroke="black" stroke-width="0.5" fill="green"/>

<rect x="16" y="137" width="9" height="17" stroke="black" stroke-width="0.5" fill="green"/>

<rect x="25" y="137" width="9" height="17" stroke="black" stroke-width="0.5" fill="green"/>

<rect x="34" y="137" width="9" height="17" stroke="black" stroke-width="0.5" fill="green"/>

<rect x="43" y="137" width="9" height="17" stroke="black" stroke-width="0.5" fill="green"/>

<rect x="52" y="137" width="9" height="17" stroke="black" stroke-width="0.5" fill="green"/>

<rect x="61" y="137" width="9" height="17" stroke="black" stroke-width="0.5" fill="green"/>

<rect x="70" y="137" width="9" height="17" stroke="black" stroke-width="0.5" fill="green"/>

<rect x="79" y="137" width="9" height="17" stroke="black" stroke-width="0.5" fill="green"/>

<rect x="88" y="137" width="9" height="17" stroke="black" stroke-width="0.5" fill="green"/>

<rect x="97" y="137" width="9" height="17" stroke="black" stroke-width="0.5" fill="green"/>

<rect x="106" y="137" width="9" height="17" stroke="black" stroke-width="0.5" fill="green"/>

<rect x="115" y="137" width="9" height="17" stroke="black" stroke-width="0.5" fill="green"/>

<rect x="124" y="137" width="9" height="17" stroke="black" stroke-width="0.5" fill="green"/>

<rect x="133" y="137" width="9" height="17" stroke="black" stroke-width="0.5" fill="green"/>

<rect x="142" y="137" width="9" height="17" stroke="black" stroke-width="0.5" fill="green"/>

<rect x="151" y="137" width="9" height="17" stroke="black" stroke-width="0.5" fill="green"/>

<rect x="160" y="137" width="9" height="17" stroke="black" stroke-width="0.5" fill="green"/>

<rect x="169" y="137" width="9" height="17" stroke="black" stroke-width="0.5" fill="green"/>

<rect x="30" y="154" width="9" height="17" stroke="black" stroke-width="0.5" fill="green"/>

<rect x="39" y="154" width="9" height="17" stroke="black" stroke-width="0.5" fill="green"/>

<rect x="48" y="154" width="9" height="17" stroke="black" stroke-width="0.5" fill="green"/>

<rect x="57" y="154" width="9" height="17" stroke="black" stroke-width="0.5" fill="green"/>

<rect x="66" y="154" width="9" height="17" stroke="black" stroke-width="0.5" fill="green"/>

<rect x="75" y="154" width="9" height="17" stroke="black" stroke-width="0.5" fill="green"/>

<rect x="84" y="154" width="9" height="17" stroke="black" stroke-width="0.5" fill="green"/>

<rect x="93" y="154" width="9" height="17" stroke="black" stroke-width="0.5" fill="green"/>

<rect x="102" y="154" width="9" height="17" stroke="black" stroke-width="0.5" fill="green"/>

<rect x="111" y="154" width="9" height="17" stroke="black" stroke-width="0.5" fill="green"/>

<rect x="120" y="154" width="9" height="17" stroke="black" stroke-width="0.5" fill="green"/>

<rect x="129" y="154" width="9" height="17" stroke="black" stroke-width="0.5" fill="green"/>

<rect x="138" y="154" width="9" height="17" stroke="black" stroke-width="0.5" fill="green"/>

<rect x="147" y="154" width="9" height="17" stroke="black" stroke-width="0.5" fill="green"/>

<rect x="156" y="154" width="9" height="17" stroke="black" stroke-width="0.5" fill="green"/>

<rect x="53" y="171" width="9" height="17" stroke="black" stroke-width="0.5" fill="green"/>

<rect x="62" y="171" width="9" height="17" stroke="black" stroke-width="0.5" fill="green"/>

<rect x="71" y="171" width="9" height="17" stroke="black" stroke-width="0.5" fill="green"/>

<rect x="80" y="171" width="9" height="17" stroke="black" stroke-width="0.5" fill="green"/>

<rect x="89" y="171" width="9" height="17" stroke="black" stroke-width="0.5" fill="green"/>

<rect x="98" y="171" width="9" height="17" stroke="black" stroke-width="0.5" fill="green"/>

<rect x="107" y="171" width="9" height="17" stroke="black" stroke-width="0.5" fill="green"/>

<rect x="116" y="171" width="9" height="17" stroke="black" stroke-width="0.5" fill="green"/>

<rect x="125" y="171" width="9" height="17" stroke="black" stroke-width="0.5" fill="green"/>

<rect x="134" y="171" width="9" height="17" stroke="black" stroke-width="0.5" fill="green"/>


</svg>