 <svg version=" 1.1 " baseProfile=" full "
width="100%" height="100%" 
 xmlns="http://www.w3.org/2000/svg">

<rect x="0" y="0" width="500" height="250" stroke="black" stroke-width="0.5" fill="red"/>

<circle cx="17" cy="17" r="17" stroke="black" stroke-width="0.5" fill="green"/>
<circle cx="51" cy="17" r="17" stroke="black" stroke-width="0.5" fill="green"/>
<circle cx="85" cy="17" r="17" stroke="black" stroke-width="0.5" fill="green"/>
<circle cx="119" cy="17" r="17" stroke="black" stroke-width="0.5" fill="green"/>
<circle cx="153" cy="17" r="17" stroke="black" stroke-width="0.5" fill="green"/>
<circle cx="187" cy="17" r="17" stroke="black" stroke-width="0.5" fill="green"/>
<circle cx="221" cy="17" r="17" stroke="black" stroke-width="0.5" fill="green"/>
<circle cx="255" cy="17" r="17" stroke="black" stroke-width="0.5" fill="green"/>
<circle cx="289" cy="17" r="17" stroke="black" stroke-width="0.5" fill="green"/>
<circle cx="323" cy="17" r="17" stroke="black" stroke-width="0.5" fill="green"/>
<circle cx="357" cy="17" r="17" stroke="black" stroke-width="0.5" fill="green"/>
<circle cx="391" cy="17" r="17" stroke="black" stroke-width="0.5" fill="green"/>
<circle cx="425" cy="17" r="17" stroke="black" stroke-width="0.5" fill="green"/>
<circle cx="459" cy="17" r="17" stroke="black" stroke-width="0.5" fill="green"/>
<circle cx="17" cy="51" r="17" stroke="black" stroke-width="0.5" fill="green"/>
<circle cx="51" cy="51" r="17" stroke="black" stroke-width="0.5" fill="green"/>
<circle cx="85" cy="51" r="17" stroke="black" stroke-width="0.5" fill="green"/>
<circle cx="119" cy="51" r="17" stroke="black" stroke-width="0.5" fill="green"/>
<circle cx="153" cy="51" r="17" stroke="black" stroke-width="0.5" fill="green"/>
<circle cx="187" cy="51" r="17" stroke="black" stroke-width="0.5" fill="green"/>
<circle cx="221" cy="51" r="17" stroke="black" stroke-width="0.5" fill="green"/>
<circle cx="255" cy="51" r="17" stroke="black" stroke-width="0.5" fill="green"/>
<circle cx="289" cy="51" r="17" stroke="black" stroke-width="0.5" fill="green"/>
<circle cx="323" cy="51" r="17" stroke="black" stroke-width="0.5" fill="green"/>
<circle cx="357" cy="51" r="17" stroke="black" stroke-width="0.5" fill="green"/>
<circle cx="391" cy="51" r="17" stroke="black" stroke-width="0.5" fill="green"/>
<circle cx="425" cy="51" r="17" stroke="black" stroke-width="0.5" fill="green"/>
<circle cx="459" cy="51" r="17" stroke="black" stroke-width="0.5" fill="green"/>
<circle cx="17" cy="85" r="17" stroke="black" stroke-width="0.5" fill="green"/>
<circle cx="51" cy="85" r="17" stroke="black" stroke-width="0.5" fill="green"/>
<circle cx="85" cy="85" r="17" stroke="black" stroke-width="0.5" fill="green"/>
<circle cx="119" cy="85" r="17" stroke="black" stroke-width="0.5" fill="green"/>
<circle cx="153" cy="85" r="17" stroke="black" stroke-width="0.5" fill="green"/>
<circle cx="187" cy="85" r="17" stroke="black" stroke-width="0.5" fill="green"/>
<circle cx="221" cy="85" r="17" stroke="black" stroke-width="0.5" fill="green"/>
<circle cx="255" cy="85" r="17" stroke="black" stroke-width="0.5" fill="green"/>
<circle cx="289" cy="85" r="17" stroke="black" stroke-width="0.5" fill="green"/>
<circle cx="323" cy="85" r="17" stroke="black" stroke-width="0.5" fill="green"/>
<circle cx="357" cy="85" r="17" stroke="black" stroke-width="0.5" fill="green"/>
<circle cx="391" cy="85" r="17" stroke="black" stroke-width="0.5" fill="green"/>
<circle cx="425" cy="85" r="17" stroke="black" stroke-width="0.5" fill="green"/>
<circle cx="459" cy="85" r="17" stroke="black" stroke-width="0.5" fill="green"/>
<circle cx="17" cy="119" r="17" stroke="black" stroke-width="0.5" fill="green"/>
<circle cx="51" cy="119" r="17" stroke="black" stroke-width="0.5" fill="green"/>
<circle cx="85" cy="119" r="17" stroke="black" stroke-width="0.5" fill="green"/>
<circle cx="119" cy="119" r="17" stroke="black" stroke-width="0.5" fill="green"/>
<circle cx="153" cy="119" r="17" stroke="black" stroke-width="0.5" fill="green"/>
<circle cx="187" cy="119" r="17" stroke="black" stroke-width="0.5" fill="green"/>
<circle cx="221" cy="119" r="17" stroke="black" stroke-width="0.5" fill="green"/>
<circle cx="255" cy="119" r="17" stroke="black" stroke-width="0.5" fill="green"/>
<circle cx="289" cy="119" r="17" stroke="black" stroke-width="0.5" fill="green"/>
<circle cx="323" cy="119" r="17" stroke="black" stroke-width="0.5" fill="green"/>
<circle cx="357" cy="119" r="17" stroke="black" stroke-width="0.5" fill="green"/>
<circle cx="391" cy="119" r="17" stroke="black" stroke-width="0.5" fill="green"/>
<circle cx="425" cy="119" r="17" stroke="black" stroke-width="0.5" fill="green"/>
<circle cx="459" cy="119" r="17" stroke="black" stroke-width="0.5" fill="green"/>
<circle cx="17" cy="153" r="17" stroke="black" stroke-width="0.5" fill="green"/>
<circle cx="51" cy="153" r="17" stroke="black" stroke-width="0.5" fill="green"/>
<circle cx="85" cy="153" r="17" stroke="black" stroke-width="0.5" fill="green"/>
<circle cx="119" cy="153" r="17" stroke="black" stroke-width="0.5" fill="green"/>
<circle cx="153" cy="153" r="17" stroke="black" stroke-width="0.5" fill="green"/>
<circle cx="187" cy="153" r="17" stroke="black" stroke-width="0.5" fill="green"/>
<circle cx="221" cy="153" r="17" stroke="black" stroke-width="0.5" fill="green"/>
<circle cx="255" cy="153" r="17" stroke="black" stroke-width="0.5" fill="green"/>
<circle cx="289" cy="153" r="17" stroke="black" stroke-width="0.5" fill="green"/>
<circle cx="323" cy="153" r="17" stroke="black" stroke-width="0.5" fill="green"/>
<circle cx="357" cy="153" r="17" stroke="black" stroke-width="0.5" fill="green"/>
<circle cx="391" cy="153" r="17" stroke="black" stroke-width="0.5" fill="green"/>
<circle cx="425" cy="153" r="17" stroke="black" stroke-width="0.5" fill="green"/>
<circle cx="459" cy="153" r="17" stroke="black" stroke-width="0.5" fill="green"/>
<circle cx="17" cy="187" r="17" stroke="black" stroke-width="0.5" fill="green"/>
<circle cx="51" cy="187" r="17" stroke="black" stroke-width="0.5" fill="green"/>
<circle cx="85" cy="187" r="17" stroke="black" stroke-width="0.5" fill="green"/>
<circle cx="119" cy="187" r="17" stroke="black" stroke-width="0.5" fill="green"/>
<circle cx="153" cy="187" r="17" stroke="black" stroke-width="0.5" fill="green"/>
<circle cx="187" cy="187" r="17" stroke="black" stroke-width="0.5" fill="green"/>
<circle cx="221" cy="187" r="17" stroke="black" stroke-width="0.5" fill="green"/>
<circle cx="255" cy="187" r="17" stroke="black" stroke-width="0.5" fill="green"/>
<circle cx="289" cy="187" r="17" stroke="black" stroke-width="0.5" fill="green"/>
<circle cx="323" cy="187" r="17" stroke="black" stroke-width="0.5" fill="green"/>
<circle cx="357" cy="187" r="17" stroke="black" stroke-width="0.5" fill="green"/>
<circle cx="391" cy="187" r="17" stroke="black" stroke-width="0.5" fill="green"/>
<circle cx="425" cy="187" r="17" stroke="black" stroke-width="0.5" fill="green"/>
<circle cx="459" cy="187" r="17" stroke="black" stroke-width="0.5" fill="green"/>
<circle cx="17" cy="221" r="17" stroke="black" stroke-width="0.5" fill="green"/>
<circle cx="51" cy="221" r="17" stroke="black" stroke-width="0.5" fill="green"/>
<circle cx="85" cy="221" r="17" stroke="black" stroke-width="0.5" fill="green"/>
<circle cx="119" cy="221" r="17" stroke="black" stroke-width="0.5" fill="green"/>
<circle cx="153" cy="221" r="17" stroke="black" stroke-width="0.5" fill="green"/>
<circle cx="187" cy="221" r="17" stroke="black" stroke-width="0.5" fill="green"/>
<circle cx="221" cy="221" r="17" stroke="black" stroke-width="0.5" fill="green"/>
<circle cx="255" cy="221" r="17" stroke="black" stroke-width="0.5" fill="green"/>
<circle cx="289" cy="221" r="17" stroke="black" stroke-width="0.5" fill="green"/>
<circle cx="323" cy="221" r="17" stroke="black" stroke-width="0.5" fill="green"/>
<circle cx="357" cy="221" r="17" stroke="black" stroke-width="0.5" fill="green"/>
<circle cx="391" cy="221" r="17" stroke="black" stroke-width="0.5" fill="green"/>
<circle cx="425" cy="221" r="17" stroke="black" stroke-width="0.5" fill="green"/>
<circle cx="459" cy="221" r="17" stroke="black" stroke-width="0.5" fill="green"/>

</svg>